SplineFontDB: 3.0
FontName: FreeSerifItalic
FullName: FreeSerif Italic
FamilyName: FreeSerif
Weight: Book
Copyright: Copyright 2002, 2003, 2005, 2008, 2009, 2010, 2012 GNU Freefont contributors.
Version: $Revision: 2268 $
ItalicAngle: -15.5
UnderlinePosition: -100
UnderlineWidth: 50
Ascent: 800
Descent: 200
LayerCount: 2
Layer: 0 0 "Back"  1
Layer: 1 0 "Fore"  0
FSType: 0
OS2Version: 3
OS2_WeightWidthSlopeOnly: 0
OS2_UseTypoMetrics: 1
CreationTime: 1203284335
ModificationTime: 1335895109
PfmFamily: 17
TTFWeight: 400
TTFWidth: 5
LineGap: 100
VLineGap: 0
Panose: 2 2 6 3 5 4 5 9 3 4
OS2TypoAscent: 0
OS2TypoAOffset: 1
OS2TypoDescent: 0
OS2TypoDOffset: 1
OS2TypoLinegap: 100
OS2WinAscent: 0
OS2WinAOffset: 1
OS2WinDescent: 0
OS2WinDOffset: 1
HheadAscent: 0
HheadAOffset: 1
HheadDescent: 100
HheadDOffset: 1
OS2SubXSize: 650
OS2SubYSize: 600
OS2SubXOff: 0
OS2SubYOff: 200
OS2SupXSize: 650
OS2SupYSize: 600
OS2SupXOff: 0
OS2SupYOff: 390
OS2StrikeYSize: 49
OS2StrikeYPos: 258
OS2FamilyClass: 261
OS2Vendor: 'GNU '
Lookup: 2 0 0 "Glyph Decomposition of iogonek"  {"Glyph Decomposition of iogonek-subtable"  } []
Lookup: 4 0 0 "'ccmp' Glyph Composition/Decomposition in Latin - i"  {"'ccmp' Glyph Composition/Decomposition in Latin - i-subtable"  } ['ccmp' ('latn' <'dflt' > ) ]
Lookup: 6 0 0 "'ccmp' Contextual Chaining in Latin - iogonek"  {"'ccmp' Contextual Chaining in Latin - iogonek-subtable"  } ['ccmp' ('latn' <'dflt' > ) ]
Lookup: 1 0 0 "'ss01' Style Set 1 in Cyrillic for Bulgarian"  {"'ss01' Style Set 1 in Cyrillic for Bulgarian-subtable"  } ['ss01' ('cyrl' <'BGR ' > ) ]
Lookup: 1 0 0 "'locl' Localized Forms for Serbian-Macedonian"  {"'locl' Localized Forms for Serbian-Macedonian-1"  } ['locl' ('cyrl' <'MKD ' 'SRB ' > ) ]
Lookup: 3 0 0 "'salt' Stylistic Alternatives in Cyrillic for Serbian"  {"'salt' Stylistic Alternatives in Cyrillic for Serbian-subtable"  } ['salt' ('cyrl' <'MKD ' 'SRB ' > ) ]

StartChar: exclam
Encoding: 33 33 1
Width: 333
Flags: HMW
LayerCount: 2
Fore
SplineSet
120 181 m 1
 211 601 195 667 262 667 c 0
 288 667 302 649 302 616 c 0
 302 550 275 551 137 177 c 1
 120 181 l 1
91 95 m 0
 120 95 145 70 145 41 c 0
 145 13 120 -11 90 -11 c 0
 61 -11 39 12 39 43 c 0
 39 70 64 95 91 95 c 0
EndSplineSet
Validated: 3073
EndChar

StartChar: quotedbl
Encoding: 34 34 2
Width: 333
Flags: HMW
LayerCount: 2
Fore
SplineSet
311 421 m 1
 325 596 325 666 388 666 c 0
 406 666 420 653 420 637 c 0
 420 621 389 545 332 421 c 1
 311 421 l 1
132 421 m 1
 146 602 147 666 210 666 c 0
 227 666 241 653 241 637 c 0
 241 621 211 547 153 421 c 1
 132 421 l 1
EndSplineSet
Validated: 3073
EndChar

StartChar: numbersign
Encoding: 35 35 3
Width: 500
Flags: HMW
LayerCount: 2
Fore
SplineSet
465 267 m 1
 454 213 l 1
 349 213 l 1
 270 0 l 1
 208 0 l 1
 288 213 l 1
 158 213 l 1
 79 0 l 1
 17 0 l 1
 97 213 l 1
 2 213 l 1
 13 267 l 1
 118 267 l 1
 172 410 l 1
 76 410 l 1
 87 464 l 1
 192 464 l 1
 272 676 l 1
 333 676 l 1
 253 464 l 1
 383 464 l 1
 463 676 l 1
 524 676 l 1
 444 464 l 1
 540 464 l 1
 529 410 l 1
 424 410 l 1
 370 267 l 1
 465 267 l 1
363 410 m 1
 233 410 l 1
 179 267 l 1
 309 267 l 1
 363 410 l 1
EndSplineSet
Validated: 3073
EndChar

StartChar: dollar
Encoding: 36 36 4
Width: 500
Flags: HMW
AnchorPoint: "middle" 281 345 basechar 0
LayerCount: 2
Fore
SplineSet
258 329 m 1
 185 381 123 435 123 513 c 0
 123 565 151 612 198 639 c 0
 239 663 266 668 341 668 c 1
 358 731 l 1
 392 731 l 1
 376 663 l 1
 423 652 465 635 497 612 c 1
 469 498 l 1
 454 500 l 1
 452 574 430 609 369 633 c 1
 313 396 l 1
 430 305 455 269 455 190 c 0
 455 114 425 9 215 0 c 1
 194 -89 l 1
 159 -89 l 1
 181 2 l 1
 119 14 67 37 31 67 c 1
 58 190 l 1
 74 193 l 1
 85 88 111 51 189 32 c 1
 258 329 l 1
336 641 m 1
 264 641 201 622 201 538 c 0
 201 493 220 465 282 420 c 1
 336 641 l 1
289 306 m 1
 221 25 l 1
 327 33 380 79 380 162 c 0
 380 218 362 246 289 306 c 1
EndSplineSet
Validated: 3073
EndChar

StartChar: percent
Encoding: 37 37 5
Width: 833
Flags: HMW
LayerCount: 2
Fore
SplineSet
790 263 m 0
 790 156 717 0 588 0 c 0
 512 0 468 50 468 136 c 0
 468 252 577 371 683 371 c 0
 750 371 790 330 790 263 c 0
605 30 m 0
 695 30 765 170 765 259 c 0
 765 303 733 339 694 339 c 0
 598 339 544 155 544 101 c 0
 544 54 564 30 605 30 c 0
403 541 m 0
 403 448 322 289 198 289 c 0
 131 289 79 346 79 419 c 0
 79 542 187 662 297 662 c 0
 323 662 351 653 365 641 c 2
 383 625 l 2
 395 614 420 608 452 608 c 0
 519 608 563 627 613 676 c 1
 653 676 l 1
 267 -13 l 1
 220 -13 l 1
 570 613 l 1
 528 590 504 583 458 583 c 0
 431 583 416 585 396 593 c 1
 397 590 397 590 397 587 c 0
 401 570 403 554 403 541 c 0
368 600 m 1
 311 615 316 632 301 632 c 0
 238 632 155 493 155 386 c 0
 155 347 178 323 214 323 c 0
 296 323 377 436 377 549 c 0
 377 565 375 578 368 600 c 1
EndSplineSet
Validated: 3073
EndChar

StartChar: ampersand
Encoding: 38 38 6
Width: 778
Flags: HMW
AnchorPoint: "middle" 365 345 basechar 0
LayerCount: 2
Fore
SplineSet
586 572 m 0
 586 539 570 475 414 397 c 1
 438 295 469 209 501 160 c 1
 564 236 580 265 580 299 c 0
 580 321 569 328 530 331 c 1
 530 350 l 1
 715 350 l 1
 715 333 l 1
 680 328 660 322 649 300 c 0
 632 264 594 212 520 125 c 1
 560 58 595 31 642 31 c 0
 665 31 683 39 712 61 c 1
 723 50 l 1
 680 1 644 -18 594 -18 c 0
 541 -18 502 4 457 61 c 1
 354 -5 321 -18 258 -18 c 0
 147 -18 76 43 76 140 c 0
 76 283 260 347 331 378 c 1
 330 397 324 441 324 460 c 0
 324 581 390 666 484 666 c 0
 542 666 586 625 586 572 c 0
333 345 m 1
 233 307 170 236 170 164 c 0
 170 91 225 34 298 34 c 0
 348 34 391 51 438 90 c 1
 404 133 369 218 333 345 c 1
410 428 m 1
 495 482 517 513 517 577 c 0
 517 617 504 634 472 634 c 0
 427 634 405 592 405 504 c 0
 405 478 406 458 410 428 c 1
EndSplineSet
Validated: 3073
EndChar

StartChar: quotesingle
Encoding: 39 39 7
Width: 200
Flags: HMW
LayerCount: 2
Fore
SplineSet
132 421 m 1
 146 596 146 666 209 666 c 0
 227 666 241 653 241 637 c 0
 241 621 210 545 153 421 c 1
 132 421 l 1
EndSplineSet
Validated: 3073
EndChar

StartChar: parenleft
Encoding: 40 40 8
Width: 333
Flags: HMW
LayerCount: 2
Fore
SplineSet
141 -181 m 1
 74 -59 42 32 42 180 c 0
 42 453 224 598 302 669 c 1
 315 654 l 1
 250 586 218 539 186 460 c 0
 140 349 111 205 111 85 c 0
 111 -11 123 -74 159 -175 c 1
 141 -181 l 1
EndSplineSet
Validated: 3073
EndChar

StartChar: parenright
Encoding: 41 41 9
Width: 333
Flags: HMW
LayerCount: 2
Fore
SplineSet
190 669 m 1
 252 558 289 455 289 304 c 0
 289 98 189 -41 29 -180 c 1
 16 -165 l 1
 77 -101 107 -59 136 6 c 0
 186 113 220 275 220 402 c 0
 220 502 205 583 171 664 c 1
 190 669 l 1
EndSplineSet
Validated: 3073
EndChar

StartChar: asterisk
Encoding: 42 42 10
Width: 500
Flags: HMW
LayerCount: 2
Fore
SplineSet
346 627 m 0
 346 594 319 552 319 500 c 2
 319 473 l 1
 410 535 422 582 454 582 c 0
 476 582 492 567 492 545 c 0
 492 490 428 522 328 459 c 1
 365 440 l 2
 419 411 492 426 492 378 c 0
 492 356 475 339 454 339 c 0
 422 339 396 402 319 446 c 1
 321 342 347 327 347 295 c 0
 347 272 331 255 308 255 c 0
 288 255 273 271 273 293 c 0
 273 322 302 365 302 417 c 0
 302 422 302 429 300 446 c 1
 286 432 262 433 213 371 c 0
 197 351 180 340 163 340 c 0
 144 340 128 357 128 377 c 0
 128 429 197 403 294 461 c 1
 282 468 l 2
 203 518 128 485 128 546 c 0
 128 566 143 581 163 581 c 0
 208 581 199 533 301 476 c 1
 301 566 275 595 275 626 c 0
 275 651 288 666 310 666 c 0
 331 666 346 650 346 627 c 0
EndSplineSet
Validated: 3073
EndChar

StartChar: plus
Encoding: 43 43 11
Width: 675
Flags: HMW
LayerCount: 2
Fore
SplineSet
305 286 m 1
 305 506 l 1
 371 506 l 1
 371 286 l 1
 590 286 l 1
 590 220 l 1
 371 220 l 1
 371 0 l 1
 305 0 l 1
 305 220 l 1
 86 220 l 1
 86 286 l 1
 305 286 l 1
EndSplineSet
Validated: 3073
EndChar

StartChar: comma
Encoding: 44 44 12
Width: 250
Flags: HMW
LayerCount: 2
Fore
SplineSet
71 -23 m 0
 71 6 26 14 26 54 c 0
 26 81 48 101 77 101 c 0
 110 101 135 70 135 30 c 0
 135 -26 89 -82 5 -129 c 1
 -4 -112 l 1
 48 -77 71 -50 71 -23 c 0
EndSplineSet
Validated: 3073
EndChar

StartChar: hyphen
Encoding: 45 45 13
Width: 333
Flags: HMW
LayerCount: 2
Fore
SplineSet
282 255 m 1
 269 192 l 1
 49 192 l 1
 63 255 l 1
 282 255 l 1
EndSplineSet
Validated: 3073
EndChar

StartChar: period
Encoding: 46 46 14
Width: 250
Flags: HMW
LayerCount: 2
Fore
SplineSet
82 100 m 0
 112 100 138 74 138 43 c 0
 138 13 112 -11 80 -11 c 0
 52 -11 27 14 27 43 c 0
 27 74 52 100 82 100 c 0
EndSplineSet
Validated: 3073
EndChar

StartChar: slash
Encoding: 47 47 15
Width: 296
Flags: HMW
LayerCount: 2
Fore
SplineSet
373 666 m 1
 446 666 l 1
 68 -18 l 1
 -5 -18 l 1
 373 666 l 1
EndSplineSet
Validated: 3073
EndChar

StartChar: zero
Encoding: 48 48 16
Width: 500
Flags: HMW
AnchorPoint: "middle" 271 345 basechar 0
LayerCount: 2
Fore
SplineSet
497 423 m 0
 497 251 375 -7 193 -7 c 0
 96 -7 32 81 32 213 c 0
 32 448 184 676 341 676 c 0
 438 676 497 581 497 423 c 0
197 21 m 0
 330 21 418 334 418 522 c 0
 418 602 388 648 334 648 c 0
 183 648 111 254 111 156 c 0
 111 71 143 21 197 21 c 0
EndSplineSet
Validated: 3073
Substitution2: "'pnum' Proportional Numbers subtable" fit.0
Substitution2: "'onum' Oldstyle Figures subtable" old.0
EndChar

StartChar: one
Encoding: 49 49 17
Width: 500
Flags: HMW
AnchorPoint: "middle" 271 345 basechar 0
LayerCount: 2
Fore
SplineSet
49 0 m 1
 49 14 l 1
 128 21 151 31 161 68 c 2
 299 560 l 2
 304 578 306 588 306 594 c 0
 306 612.314 292.063 625.054 270.458 625.054 c 0
 269.65 625.054 268.83 625.036 268 625 c 2
 211 623 l 1
 211 638 l 1
 222 640 230 642 232 642 c 2
 404 676 l 2
 407 676 409 673 409 669 c 0
 409 664 407 655 403 640 c 2
 260 121 l 2
 258 109 242 64 242 47 c 0
 242 25 263 15 312 15 c 2
 328 15 l 1
 328 0 l 1
 49 0 l 1
EndSplineSet
Validated: 3073
Substitution2: "'pnum' Proportional Numbers subtable" fit.1
Substitution2: "'onum' Oldstyle Figures subtable" old.1
EndChar

StartChar: two
Encoding: 50 50 18
Width: 500
Flags: HMW
AnchorPoint: "middle" 230 345 basechar 0
LayerCount: 2
Fore
SplineSet
80 516 m 1
 130 640 211 676 290 676 c 0
 381 676 452 602 452 506 c 0
 452 440 420 390 303 273 c 2
 111 81 l 1
 111 76 l 1
 301 76 l 2
 355 76 376 89 400 139 c 1
 417 132 l 1
 367 0 l 1
 12 0 l 1
 12 17 l 1
 222 241 l 2
 340 366 366 433 366 481 c 0
 366 551 312 603 241 603 c 0
 181 603 138 574 101 509 c 1
 80 516 l 1
EndSplineSet
Validated: 3073
Substitution2: "'pnum' Proportional Numbers subtable" fit.2
Substitution2: "'onum' Oldstyle Figures subtable" old.2
EndChar

StartChar: three
Encoding: 51 51 19
Width: 500
Flags: HMW
AnchorPoint: "middle" 255 345 basechar 0
LayerCount: 2
Fore
SplineSet
140 377 m 1
 202 387 379 418 379 543 c 0
 379 597 343 634 290 634 c 0
 248 634 213 613 178 567 c 1
 162 572 l 1
 195 636 257 676 326 676 c 0
 406 676 466 622 466 549 c 0
 466 481 431 448 310 401 c 1
 310 398 l 1
 377 367 406 321 406 249 c 0
 406 117 300 -7 127 -7 c 0
 56 -7 15 14 15 52 c 0
 15 77 31 91 59 91 c 0
 110 91 141 31 195 31 c 0
 264 31 326 94 326 195 c 0
 326 329 252 361 140 361 c 1
 140 377 l 1
EndSplineSet
Validated: 3073
Substitution2: "'pnum' Proportional Numbers subtable" fit.3
Substitution2: "'onum' Oldstyle Figures subtable" old.3
EndChar

StartChar: four
Encoding: 52 52 20
Width: 500
Flags: HMW
AnchorPoint: "middle" 289 345 basechar 0
LayerCount: 2
Fore
SplineSet
453 241 m 1
 439 176 l 1
 339 176 l 1
 293 0 l 1
 214 0 l 1
 263 178 l 1
 1 178 l 1
 21 245 l 1
 438 676 l 1
 479 676 l 1
 358 241 l 1
 453 241 l 1
277 241 m 1
 373 563 l 1
 369 563 l 1
 65 245 l 1
 65 241 l 1
 277 241 l 1
EndSplineSet
Validated: 3073
Substitution2: "'pnum' Proportional Numbers subtable" fit.4
Substitution2: "'onum' Oldstyle Figures subtable" old.4
EndChar

StartChar: five
Encoding: 53 53 21
Width: 500
Flags: HMW
AnchorPoint: "middle" 248 345 basechar 0
LayerCount: 2
Fore
SplineSet
350 242 m 0
 350 394 218 414 131 433 c 1
 131 448 l 1
 235 666 l 1
 491 666 l 1
 468 595 l 1
 238 595 l 1
 199 507 l 1
 280 487 316 471 353 436 c 0
 396 395 419 342 419 280 c 0
 419 121 286 -7 121 -7 c 0
 55 -7 15 15 15 50 c 0
 15 74 32 90 56 90 c 0
 97 90 127 35 179 35 c 0
 269 35 350 133 350 242 c 0
EndSplineSet
Validated: 3073
Substitution2: "'pnum' Proportional Numbers subtable" fit.5
Substitution2: "'onum' Oldstyle Figures subtable" old.5
EndChar

StartChar: six
Encoding: 54 54 22
Width: 500
Flags: HMW
AnchorPoint: "middle" 271 345 basechar 0
LayerCount: 2
Fore
SplineSet
521 686 m 1
 521 670 l 1
 403 656 269 555 199 428 c 1
 203 426 l 1
 231 439 264 447 292 447 c 0
 391 447 462 373 462 271 c 0
 462 120 348 -7 213 -7 c 0
 102 -7 30 76 30 204 c 0
 30 347 107 489 234 583 c 0
 320 646 387 671 521 686 c 1
203 19 m 0
 338 19 373 227 373 284 c 0
 373 361 329 411 259 411 c 0
 212 411 180 391 152 345 c 0
 126 301 106 217 106 150 c 0
 106 68 142 19 203 19 c 0
EndSplineSet
Validated: 3073
Substitution2: "'pnum' Proportional Numbers subtable" fit.6
Substitution2: "'onum' Oldstyle Figures subtable" old.6
EndChar

StartChar: seven
Encoding: 55 55 23
Width: 500
Flags: HMW
AnchorPoint: "middle" 238 345 basechar 0
LayerCount: 2
Fore
SplineSet
537 656 m 1
 149 -8 l 1
 79 -8 l 1
 446 590 l 1
 444 593 l 1
 222 593 l 2
 164 593 137 578 89 521 c 1
 75 530 l 1
 156 666 l 1
 531 666 l 1
 537 656 l 1
EndSplineSet
Validated: 3073
Substitution2: "'pnum' Proportional Numbers subtable" fit.7
Substitution2: "'onum' Oldstyle Figures subtable" old.7
EndChar

StartChar: eight
Encoding: 56 56 24
Width: 500
Flags: HMW
AnchorPoint: "middle" 271 345 basechar 0
LayerCount: 2
Fore
SplineSet
229 -7 m 0
 108 -7 30 63 30 161 c 0
 30 249 99 319 225 360 c 1
 159 433 138 472 138 526 c 0
 138 615 211 676 318 676 c 0
 420 676 493 617 493 535 c 0
 493 464 447 421 329 382 c 1
 414 294 444 240 444 173 c 0
 444 70 352 -7 229 -7 c 0
247 344 m 1
 208 329 98 275 98 155 c 0
 98 74 154 15 233 15 c 0
 311 15 369 74 369 155 c 0
 369 211 357 229 247 344 c 1
311 399 m 1
 344 415 l 2
 400 444 425 482 425 535 c 0
 425 605 382 653 318 653 c 0
 255 653 216 610 216 540 c 0
 216 498 233 472 311 399 c 1
EndSplineSet
Validated: 3073
Substitution2: "'pnum' Proportional Numbers subtable" fit.8
Substitution2: "'onum' Oldstyle Figures subtable" old.8
EndChar

StartChar: nine
Encoding: 57 57 25
Width: 500
Flags: HMW
AnchorPoint: "middle" 252 345 basechar 0
LayerCount: 2
Fore
SplineSet
23 -17 m 1
 23 1 l 1
 215 42 332 215 352 272 c 1
 348 274 l 1
 296 241 260 229 219 229 c 0
 131 229 69 304 69 408 c 0
 69 548 185 676 311 676 c 0
 420 676 492 589 492 458 c 0
 492 323 424 189 308 98 c 0
 225 33 158 6 23 -17 c 1
318 650 m 0
 182 650 157 459 157 414 c 0
 157 326 194 275 257 275 c 0
 295 275 336 292 362 318 c 0
 392 347 417 440 417 518 c 0
 417 601 380 650 318 650 c 0
EndSplineSet
Validated: 3073
Substitution2: "'pnum' Proportional Numbers subtable" fit.9
Substitution2: "'onum' Oldstyle Figures subtable" old.9
EndChar

StartChar: colon
Encoding: 58 58 26
Width: 250
Flags: HMW
LayerCount: 2
Fore
SplineSet
106 100 m 0
 136 100 161 74 161 43 c 0
 161 13 136 -11 104 -11 c 0
 75 -11 50 14 50 43 c 0
 50 74 75 100 106 100 c 0
200 441 m 4
 231 441 256 416 256 384 c 4
 256 354 231 330 199 330 c 4
 169 330 145 354 145 384 c 4
 145 416 169 441 200 441 c 4
EndSplineSet
Validated: 3073
EndChar

StartChar: semicolon
Encoding: 59 59 27
Width: 250
Flags: HMW
LayerCount: 2
Fore
SplineSet
102 -23 m 0
 102 6 57 14 57 54 c 0
 57 81 79 101 108 101 c 0
 141 101 166 70 166 30 c 0
 166 -26 120 -82 36 -129 c 1
 27 -112 l 1
 79 -77 102 -50 102 -23 c 0
205 441 m 0
 236 441 261 416 261 384 c 0
 261 354 236 330 204 330 c 0
 174 330 150 354 150 384 c 0
 150 416 174 441 205 441 c 0
EndSplineSet
Validated: 3073
EndChar

StartChar: less
Encoding: 60 60 28
Width: 570
Flags: HMW
LayerCount: 2
Fore
SplineSet
562 -10 m 5
 54 220 l 5
 54 286 l 5
 562 516 l 5
 562 444 l 5
 142 253 l 5
 562 62 l 5
 562 -10 l 5
EndSplineSet
Validated: 3073
EndChar

StartChar: equal
Encoding: 61 61 29
Width: 664
Flags: HMW
LayerCount: 2
Fore
SplineSet
590 386 m 1
 590 320 l 1
 86 320 l 1
 86 386 l 1
 590 386 l 1
590 186 m 1
 590 120 l 1
 86 120 l 1
 86 186 l 1
 590 186 l 1
EndSplineSet
Validated: 3073
EndChar

StartChar: greater
Encoding: 62 62 30
Width: 570
Flags: HMW
LayerCount: 2
Fore
SplineSet
64 -10 m 5
 64 62 l 5
 484 253 l 5
 64 444 l 5
 64 516 l 5
 572 286 l 5
 572 220 l 5
 64 -10 l 5
EndSplineSet
Validated: 3073
EndChar

StartChar: question
Encoding: 63 63 31
Width: 444
Flags: HMW
LayerCount: 2
Fore
SplineSet
248 594 m 0
 248 574 263 561 263 542 c 0
 263 522 246 507 223 507 c 0
 199 507 184 525 184 555 c 0
 184 619 242 664 324 664 c 0
 413 664 472 613 472 535 c 0
 472 394 262 358 223 203 c 2
 216 174 l 1
 199 176 l 1
 216 275 227 298 311 392 c 0
 375 464 398 505 398 557 c 0
 398 611 369 642 318 642 c 0
 275 642 248 624 248 594 c 0
184 93 m 0
 213 93 237 69 237 40 c 0
 237 13 212 -12 185 -12 c 0
 155 -12 132 11 132 40 c 0
 132 69 155 93 184 93 c 0
EndSplineSet
Validated: 3073
EndChar

StartChar: at
Encoding: 64 64 32
Width: 780
Flags: HMW
LayerCount: 2
Fore
SplineSet
271 250 m 0
 271 350 342 500 466 500 c 0
 501 500 515 490 537 449 c 1
 547 486 l 1
 616 486 l 1
 551 234 l 2
 549 227 548 218 548 213 c 0
 548 186 561 171 585 171 c 0
 669 171 716 289 716 367 c 0
 716 513 587 635 431 635 c 0
 268 635 151 500 151 313 c 0
 151 142 273 21 444 21 c 0
 509 21 558 33 636 68 c 1
 648 39 l 1
 554 -5 503 -18 432 -18 c 0
 228 -18 68 130 68 319 c 0
 68 512 228 666 431 666 c 0
 614 666 756 539 756 376 c 0
 756 248 671 138 572 138 c 0
 525 138 489 167 483 210 c 1
 447 165 402 139 360 139 c 0
 310 139 271 187 271 250 c 0
520 400 m 0
 520 444 495 456 477 456 c 0
 428 456 342 380 342 265 c 0
 342 213 364 181 401 181 c 0
 468 181 520 314 520 400 c 0
EndSplineSet
Validated: 3073
EndChar

StartChar: A
Encoding: 65 65 33
Width: 651
Flags: HMW
AnchorPoint: "ogonek" 543 0 basechar 0
AnchorPoint: "below" 276 0 basechar 0
AnchorPoint: "middle" 327 273 basechar 0
AnchorPoint: "above" 433 659 basechar 0
LayerCount: 2
Fore
SplineSet
615 16 m 1
 615 0 l 1
 369 0 l 1
 369 16 l 1
 433 22 447 31 447 69 c 0
 447 77 446 86 445 95 c 2
 425 226 l 1
 205 226 l 1
 148 113 l 2
 131 79 128 70 128 51 c 0
 128 26 136 21 187 16 c 1
 187 0 l 1
 0 0 l 1
 0 16 l 1
 40 24 51 34 129 168 c 2
 419 668 l 1
 445 668 l 1
 539 102 l 2
 552 29 558 21 615 16 c 1
226 262 m 1
 420 262 l 1
 376 522 l 1
 226 262 l 1
EndSplineSet
Validated: 3073
EndChar

StartChar: B
Encoding: 66 66 34
Width: 591
Flags: HMW
AnchorPoint: "below" 253 0 basechar 0
AnchorPoint: "middle" 328 345 basechar 0
AnchorPoint: "above" 410 659 basechar 0 {} {150-150 -4}
LayerCount: 2
Fore
SplineSet
421 351 m 1
 484 324 547 292 547 200 c 0
 547 82 439 0 282 0 c 2
 0 0 l 1
 0 16 l 1
 56 26 65 31 81 90 c 2
 204 532 l 2
 211 556 215 581 215 596 c 0
 215 624 200 632 138 637 c 1
 138 653 l 1
 396 653 l 2
 525 653 596 601 596 506 c 0
 596 384 459 360 421 351 c 1
246 331 m 1
 193 124 179 117 179 72 c 0
 179 45 201 30 243 30 c 0
 365 30 439 96 439 204 c 0
 439 258 414 302 373 319 c 0
 353 327 311 331 246 331 c 1
321 595 m 2
 256 363 l 1
 346 363 394 370 428 390 c 0
 471 414 495 458 495 515 c 0
 495 589 458 623 378 623 c 0
 339 623 327 617 321 595 c 2
EndSplineSet
Validated: 3073
EndChar

StartChar: C
Encoding: 67 67 35
Width: 611
Flags: HMW
AnchorPoint: "below" 309 0 basechar 0
AnchorPoint: "middle" 367 345 basechar 0
AnchorPoint: "above" 454 659 basechar 0
LayerCount: 2
Fore
SplineSet
449 666 m 0
 516 666 579 642 607 642 c 0
 627 642 637 648 645 664 c 1
 666 664 l 1
 629 465 l 1
 611 468 l 1
 601 576 550 630 458 630 c 0
 392 630 329 602 281 553 c 0
 203 472 155 351 155 232 c 0
 155 103 219 27 330 27 c 0
 412 27 470 57 560 145 c 1
 577 131 l 1
 487 26 407 -18 304 -18 c 0
 151 -18 43 90 43 243 c 0
 43 465 236 666 449 666 c 0
EndSplineSet
Validated: 3073
EndChar

StartChar: D
Encoding: 68 68 36
Width: 702
Flags: HMW
AnchorPoint: "below" 233 0 basechar 0
AnchorPoint: "middle" 361 345 basechar 0
AnchorPoint: "above" 416 659 basechar 0
LayerCount: 2
Fore
SplineSet
708 384 m 0
 708 168 526 0 253 0 c 2
 0 0 l 1
 0 16 l 1
 56 26 65 31 81 90 c 2
 204 532 l 2
 211 557 215 581 215 596 c 0
 215 623 200 631 138 637 c 1
 138 653 l 1
 416 653 l 2
 594 653 708 548 708 384 c 0
597 408 m 0
 597 495 565 623 382 623 c 0
 342 623 327 616 321 594 c 2
 200 162 l 2
 183 102 178 80 178 67 c 0
 178 41 197 30 243 30 c 0
 455 30 597 181 597 408 c 0
EndSplineSet
Validated: 3073
EndChar

StartChar: E
Encoding: 69 69 37
Width: 574
Flags: HMW
AnchorPoint: "ogonek" 490 0 basechar 0
AnchorPoint: "below" 273 0 basechar 0
AnchorPoint: "middle" 347 345 basechar 0
AnchorPoint: "above" 420 659 basechar 0
LayerCount: 2
Fore
SplineSet
257 33 m 0
 446 33 485 78 553 170 c 1
 569 162 l 1
 507 0 l 1
 0 0 l 1
 0 16 l 1
 56 26 65 33 81 90 c 2
 204 532 l 2
 209 550 215 585 215 596 c 0
 215 623 200 631 138 637 c 1
 138 653 l 1
 635 653 l 1
 604 500 l 1
 583 502 l 1
 584 519 585 534 585 547 c 0
 585 607 550 620 393 620 c 0
 337 620 326 616 320 594 c 2
 254 361 l 1
 289 362 321 363 333 363 c 0
 424 367 433 373 471 458 c 1
 489 454 l 1
 421 222 l 1
 401 227 l 1
 406 249 408 262 408 279 c 0
 408 312 395 325 331 325 c 2
 323 325 l 2
 311 325 280 326 245 328 c 1
 190 119 177 113 177 67 c 0
 177 43 201 33 257 33 c 0
EndSplineSet
Validated: 3073
EndChar

StartChar: F
Encoding: 70 70 38
Width: 576
Flags: HMW
AnchorPoint: "below" 160 0 basechar 0
AnchorPoint: "middle" 337 345 basechar 0
AnchorPoint: "above" 413 659 basechar 0
LayerCount: 2
Fore
SplineSet
404 279 m 0
 404 323 383 325 327 325 c 0
 305 325 283 326 246 328 c 1
 184 105 l 2
 178 83 175 68 175 60 c 0
 175 30 193 19 251 16 c 1
 251 0 l 1
 0 0 l 1
 0 16 l 1
 57 24 64 30 81 90 c 2
 204 532 l 2
 211 556 215 581 215 596 c 0
 215 625 203 631 138 637 c 1
 138 653 l 1
 636 653 l 1
 604 500 l 1
 583 502 l 1
 585 523 586 526 586 545 c 0
 586 607 550 620 382 620 c 0
 341 620 327 614 321 594 c 0
 255 361 l 1
 423 363 426 364 471 454 c 1
 489 449 l 1
 413 215 l 1
 396 220 l 1
 402 251 404 263 404 279 c 0
EndSplineSet
Validated: 3073
EndChar

StartChar: G
Encoding: 71 71 39
Width: 690
Flags: HMW
AnchorPoint: "below" 321 0 basechar 0
AnchorPoint: "middle" 374 345 basechar 0
AnchorPoint: "above" 461 659 basechar 0
LayerCount: 2
Fore
SplineSet
447 666 m 0
 539 666 590 632 625 632 c 0
 651 632 668 642 685 666 c 1
 700 662 l 1
 651 465 l 1
 633 468 l 1
 621 578 554 632 455 632 c 0
 214 632 154 320 154 224 c 0
 154 93 227 19 356 19 c 0
 478 19 481 89 498 145 c 0
 520 219 526 247 526 269 c 0
 526 287 510 297 477 300 c 0
 473 300 460 302 448 303 c 1
 448 319 l 1
 714 319 l 1
 714 303 l 1
 649 299 632 287 617 231 c 2
 568 44 l 1
 491 1 419 -18 331 -18 c 0
 155 -18 44 100 44 246 c 0
 44 466 236 666 447 666 c 0
EndSplineSet
Validated: 3073
EndChar

StartChar: H
Encoding: 72 72 40
Width: 705
Flags: HMW
AnchorPoint: "below" 303 0 basechar 0
AnchorPoint: "middle" 383 345 basechar 0
AnchorPoint: "above" 470 659 basechar 0
LayerCount: 2
Fore
SplineSet
775 653 m 1
 775 637 l 1
 718 627 709 621 693 563 c 2
 561 82 l 2
 559 74 558 68 558 58 c 0
 558 30 572 22 636 16 c 1
 636 0 l 1
 363 0 l 1
 363 16 l 1
 428 23 450 38 464 90 c 2
 529 326 l 1
 244 326 l 1
 178 82 l 2
 176 75 175 67 175 60 c 0
 175 31 186 24 246 16 c 1
 246 0 l 1
 0 0 l 1
 0 16 l 1
 56 26 65 31 81 90 c 2
 204 532 l 2
 211 557 215 580 215 594 c 0
 215 623 200 631 138 637 c 1
 138 653 l 1
 411 653 l 1
 411 637 l 1
 351 633 324 614 310 563 c 2
 256 368 l 1
 541 368 l 1
 587 532 l 2
 594 557 598 580 598 594 c 0
 598 622 586 630 528 637 c 1
 528 653 l 1
 775 653 l 1
EndSplineSet
Validated: 3073
EndChar

StartChar: I
Encoding: 73 73 41
Width: 322
Flags: HMW
AnchorPoint: "ogonek" 120 0 basechar 0
AnchorPoint: "below" 112 0 basechar 0
AnchorPoint: "middle" 207 345 basechar 0
AnchorPoint: "above" 285 659 basechar 0
LayerCount: 2
Fore
SplineSet
0 0 m 1
 0 16 l 1
 56 26 65 31 81 90 c 2
 204 532 l 2
 211 557 215 580 215 594 c 0
 215 622 203 630 145 637 c 1
 145 653 l 1
 392 653 l 1
 392 637 l 1
 335 627 326 622 310 563 c 2
 187 120 l 2
 178 88 176 76 176 57 c 0
 176 29 187 23 244 16 c 1
 244 0 l 1
 0 0 l 1
EndSplineSet
Validated: 3073
EndChar

StartChar: J
Encoding: 74 74 42
Width: 427
Flags: HMW
AnchorPoint: "below" 129 0 basechar 0
AnchorPoint: "middle" 306 345 basechar 0
AnchorPoint: "above" 388 659 basechar 0
LayerCount: 2
Fore
SplineSet
497 653 m 1
 497 637 l 1
 440 629 432 623 415 563 c 2
 312 192 l 2
 297 138 263 -18 117 -18 c 0
 47 -18 0 18 0 70 c 0
 0 102 19 124 46 124 c 0
 71 124 94 102 94 77 c 0
 94 71 93 58 93 53 c 0
 93 26 104 13 128 13 c 0
 152 13 166 28 177 67 c 2
 308 532 l 2
 316 560 320 582 320 596 c 0
 320 623 306 631 243 637 c 1
 243 653 l 1
 497 653 l 1
EndSplineSet
Validated: 3073
EndChar

StartChar: K
Encoding: 75 75 43
Width: 641
Flags: HMW
AnchorPoint: "below" 283 0 basechar 0
AnchorPoint: "middle" 308 345 basechar 0
AnchorPoint: "above" 449 659 basechar 0
LayerCount: 2
Fore
SplineSet
715 653 m 1
 715 637 l 1
 691 633 668 622 640 601 c 2
 340 375 l 1
 514 72 l 1
 542 25 548 22 611 16 c 1
 611 0 l 1
 336 0 l 1
 336 16 l 1
 349 18 360 19 365 19 c 0
 397 22 411 30 411 45 c 0
 411 64 397 99 373 140 c 2
 252 348 l 1
 184 99 l 2
 178 79 176 70 176 60 c 0
 176 29 185 23 248 16 c 1
 248 0 l 1
 0 0 l 1
 0 16 l 1
 59 25 65 30 82 90 c 0
 205 532 l 2
 212 557 216 580 216 594 c 0
 216 623 201 631 139 637 c 1
 139 653 l 1
 412 653 l 1
 412 637 l 1
 353 633 325 613 311 563 c 0
 258 369 l 1
 410 475 l 2
 499 537 554 591 554 615 c 0
 554 626 544 632 520 634 c 0
 516 634 505 636 493 637 c 1
 493 653 l 1
 715 653 l 1
EndSplineSet
Validated: 3073
EndChar

StartChar: L
Encoding: 76 76 44
Width: 568
Flags: HMW
AnchorPoint: "below" 270 0 basechar 0
AnchorPoint: "middle" 214 345 basechar 0
AnchorPoint: "above" 413 659 basechar 0
LayerCount: 2
Fore
SplineSet
278 36 m 0
 438 36 485 58 547 185 c 1
 567 179 l 1
 509 0 l 1
 0 0 l 1
 0 16 l 1
 56 26 65 31 81 90 c 0
 204 532 l 2
 211 557 215 580 215 594 c 0
 215 623 200 631 138 637 c 1
 138 653 l 1
 411 653 l 1
 411 637 l 1
 351 633 324 614 310 563 c 0
 187 120 l 2
 182 101 177 77 177 70 c 0
 177 44 202 36 278 36 c 0
EndSplineSet
Validated: 3073
EndChar

StartChar: M
Encoding: 77 77 45
Width: 821
Flags: HMW
AnchorPoint: "below" 325 0 basechar 0
AnchorPoint: "middle" 431 345 basechar 0
AnchorPoint: "above" 523 659 basechar 0
LayerCount: 2
Fore
SplineSet
891 653 m 1
 891 637 l 1
 832 628 826 623 809 563 c 0
 686 120 l 1
 677 89 675 76 675 59 c 0
 675 28 684 22 752 16 c 1
 752 0 l 1
 479 0 l 1
 479 16 l 1
 544 23 565 38 580 91 c 0
 709 561 l 1
 332 0 l 1
 315 0 l 1
 254 546 l 1
 136 113 l 1
 131 96 127 70 127 60 c 0
 127 32 147 20 198 16 c 1
 198 0 l 1
 0 0 l 1
 0 16 l 1
 52 22 68 42 98 146 c 0
 204 518 l 2
 214 560 226 584 226 600 c 0
 226 623 202 634 152 637 c 1
 152 653 l 1
 333 653 l 1
 388 160 l 1
 724 653 l 1
 891 653 l 1
EndSplineSet
Validated: 3073
EndChar

StartChar: N
Encoding: 78 78 46
Width: 677
Flags: HMW
AnchorPoint: "below" 285 0 basechar 0
AnchorPoint: "middle" 378 345 basechar 0
AnchorPoint: "above" 464 659 basechar 0
LayerCount: 2
Fore
SplineSet
607 534 m 2
 607 542 618 558 618 586 c 0
 618 622 605 632 548 637 c 1
 548 653 l 1
 747 653 l 1
 747 637 l 1
 684 623 680 617 643 488 c 2
 499 -15 l 1
 481 -15 l 1
 251 535 l 1
 137 113 l 2
 131 92 128 72 128 59 c 0
 128 31 147 20 198 16 c 1
 198 0 l 1
 0 0 l 1
 0 16 l 1
 57 24 66 36 103 164 c 2
 222 581 l 1
 204 620 183 633 136 637 c 1
 136 653 l 1
 297 653 l 1
 505 154 l 1
 607 534 l 2
EndSplineSet
Validated: 3073
EndChar

StartChar: O
Encoding: 79 79 47
Width: 656
Flags: HMW
AnchorPoint: "ogonek" 279 0 basechar 0
AnchorPoint: "below" 268 0 basechar 0
AnchorPoint: "middle" 348 345 basechar 0
AnchorPoint: "above" 452 659 basechar 0
LayerCount: 2
Fore
SplineSet
37 221 m 0
 37 467 276 666 451 666 c 0
 580 666 676 566 676 432 c 0
 676 244 502 -18 255 -18 c 0
 128 -18 37 81 37 221 c 0
272 15 m 0
 451 15 571 306 571 481 c 0
 571 575 521 633 442 633 c 0
 369 633 308 595 252 514 c 0
 192 427 142 278 142 184 c 0
 142 76 188 15 272 15 c 0
EndSplineSet
Validated: 3073
EndChar

StartChar: P
Encoding: 80 80 48
Width: 566
Flags: HMW
AnchorPoint: "below" 204 0 basechar 0
AnchorPoint: "middle" 321 345 basechar 0
AnchorPoint: "above" 413 659 basechar 0
LayerCount: 2
Fore
SplineSet
605 504 m 0
 605 422 551 305 334 305 c 0
 293 305 267 307 242 313 c 1
 189 120 l 2
 179 84 177 74 177 62 c 0
 177 28 182 25 245 16 c 1
 245 0 l 1
 0 0 l 1
 0 16 l 1
 56 27 64.3164 29.9121 81 90 c 2
 199 515 l 2
 212 560 215 581 215 595 c 0
 215 625.2 195 630 138 637 c 1
 138 653 l 1
 394 653 l 2
 530 653 605 600 605 504 c 0
502 504 m 0
 502 568 480 623 368 623 c 0
 340 623 328 616 322 595 c 2
 251 347 l 1
 278 343 286 342 303 342 c 0
 417 342 502 372 502 504 c 0
EndSplineSet
Validated: 3073
EndChar

StartChar: Q
Encoding: 81 81 49
Width: 656
Flags: HMW
AnchorPoint: "middle" 362 345 basechar 0
AnchorPoint: "above" 453 659 basechar 0
LayerCount: 2
Fore
SplineSet
37 221 m 0
 37 467 280 666 447 666 c 0
 580 666 676 568 676 433 c 0
 676 275 575 113 427 30 c 0
 371 -1 333 -11 256 -16 c 1
 202 -73 l 1
 227 -73 l 2
 229 -73 233 -72 234 -72 c 0
 265 -72 407 -115 461 -115 c 0
 533 -115 574 -96 630 -38 c 1
 645 -49 l 1
 586 -131 492 -183 406 -183 c 0
 319 -183 216 -138 161 -138 c 0
 122 -138 84 -148 46 -169 c 1
 36 -154 l 1
 113 -100 122 -92 213 -12 c 1
 169 -2 147 8 121 29 c 0
 67 71 37 139 37 221 c 0
270 17 m 0
 456 17 571 312 571 480 c 0
 571 575 522 633 442 633 c 0
 369 633 308 595 252 514 c 0
 191 427 142 278 142 183 c 0
 142 78 189 17 270 17 c 0
EndSplineSet
Validated: 3073
EndChar

StartChar: R
Encoding: 82 82 50
Width: 616
Flags: HMW
AnchorPoint: "below" 279 0 basechar 0
AnchorPoint: "middle" 308 345 basechar 0
AnchorPoint: "above" 398 659 basechar 0
LayerCount: 2
Fore
SplineSet
601 509 m 0
 601 368 446 342 404 333 c 1
 497 88 l 2
 516 36 536 19 580 16 c 1
 580 0 l 1
 432 0 l 1
 309 324 l 1
 246 329 l 1
 188 120 l 2
 179 85 176 72 176 62 c 0
 176 29 183 24 244 16 c 1
 244 0 l 1
 0 0 l 1
 0 16 l 1
 58.333 26.167 65.2314 33.334 81 90 c 2
 204 532 l 2
 211 559 215 583 215 595 c 0
 215 622.75 201.5 630.875 138 637 c 1
 138 653 l 1
 393 653 l 2
 527 653 601 602 601 509 c 0
321 595 m 2
 256 366 l 1
 280 362 291 361 307 361 c 0
 432 361 496 412 496 511 c 0
 496 585 455 623 372 623 c 0
 340 623 327 616 321 595 c 2
EndSplineSet
Validated: 3073
EndChar

StartChar: S
Encoding: 83 83 51
Width: 454
Flags: HMW
AnchorPoint: "below" 201 0 basechar 0
AnchorPoint: "middle" 258 345 basechar 0
AnchorPoint: "above" 326 659 basechar 0
LayerCount: 2
Fore
SplineSet
292 666 m 0
 363 666 394 641 423 641 c 0
 445 641 454 646 468 667 c 1
 491 667 l 1
 451 468 l 1
 433 471 l 1
 430 561 412 633 312 633 c 0
 244 633 202 594 202 531 c 0
 202 482 211 468 301 377 c 0
 391 286 414 247 414 182 c 0
 414 69 327 -18 212 -18 c 0
 145 -18 90 18 56 18 c 0
 36 18 25 8 18 -15 c 1
 0 -15 l 1
 34 208 l 1
 54 206 l 1
 53 199 52 191 52 183 c 0
 52 88 115 17 198 17 c 0
 271 17 327 75 327 150 c 0
 327 281 114 350 114 499 c 0
 114 597 188 666 292 666 c 0
EndSplineSet
Validated: 3073
EndChar

StartChar: T
Encoding: 84 84 52
Width: 589
Flags: HMW
AnchorPoint: "below" 232 0 basechar 0
AnchorPoint: "middle" 328 345 basechar 0
AnchorPoint: "above" 418 659 basechar 0
LayerCount: 2
Fore
SplineSet
668 653 m 1
 624 490 l 1
 607 492 l 1
 609 509 610 524 610 537 c 0
 610 593 578 618 506 618 c 2
 451 618 l 1
 312 120 l 2
 303 86 300 74 300 61 c 0
 300 31 312 22 352 19 c 0
 358 19 373 17 390 16 c 1
 390 0 l 1
 100 0 l 1
 100 16 l 1
 166 21 192 37 206 90 c 2
 350 618 l 1
 329 618 l 2
 194 618 162 598 112 495 c 1
 94 499 l 1
 136 653 l 1
 668 653 l 1
EndSplineSet
Validated: 3073
EndChar

StartChar: U
Encoding: 85 85 53
Width: 706
Flags: HMW
AnchorPoint: "ogonek" 340 0 basechar 0
AnchorPoint: "below" 324 0 basechar 0
AnchorPoint: "middle" 405 345 basechar 0
AnchorPoint: "above" 476 659 basechar 0
LayerCount: 2
Fore
SplineSet
648 591 m 0
 648 626 620 633 577 637 c 1
 577 653 l 1
 776 653 l 1
 776 637 l 1
 714 623 710 618 672 488 c 2
 589 203 l 2
 545 53 462 -18 331 -18 c 0
 205 -18 113 51 113 147 c 0
 113 187 126 251 156 359 c 2
 209 551 l 2
 213 568 216 584 216 596 c 0
 216 625 205 631 138 637 c 1
 138 653 l 1
 411 653 l 1
 411 637 l 1
 318 627 318 585 301 527 c 0
 234 296 203 175 203 141 c 0
 203 71 260 23 343 23 c 0
 525 23 555 242 574 304 c 0
 622 473 648 575 648 591 c 0
EndSplineSet
Validated: 3073
EndChar

StartChar: V
Encoding: 86 86 54
Width: 663
Flags: HMW
AnchorPoint: "below" 303 0 basechar 0
AnchorPoint: "middle" 383 345 basechar 0
AnchorPoint: "above" 432 659 basechar 0
LayerCount: 2
Fore
SplineSet
738 653 m 1
 738 637 l 1
 715 636 699 624 682 597 c 2
 309 -18 l 1
 290 -18 l 1
 205 502 l 2
 184 627 182 630 126 637 c 1
 126 653 l 1
 367 653 l 1
 367 637 l 1
 304 630 290 620 290 586 c 0
 290 580 290 576 291 571 c 2
 357 128 l 1
 563 484 l 2
 596 541 615 584 615 603 c 0
 615 622 597 632 552 637 c 1
 552 653 l 1
 738 653 l 1
EndSplineSet
Validated: 3073
EndChar

StartChar: W
Encoding: 87 87 55
Width: 888
Flags: HMW
AnchorPoint: "below" 430 0 basechar 0
AnchorPoint: "middle" 494 345 basechar 0
AnchorPoint: "above" 555 659 basechar 0
LayerCount: 2
Fore
SplineSet
963 653 m 1
 963 637 l 1
 925 625 915 616 888 565 c 2
 585 -18 l 1
 565 -18 l 1
 515 436 l 1
 510 436 l 1
 288 -18 l 1
 269 -18 l 1
 207 499 l 2
 193 603 200 628 128 637 c 1
 128 653 l 1
 364 653 l 1
 364 637 l 1
 303 630 291 621 291 582 c 0
 291 580 291 573 292 568 c 2
 336 162 l 1
 508 510 l 1
 499 579 l 1
 492 628 482 635 424 637 c 1
 424 653 l 1
 662 653 l 1
 662 637 l 1
 608 632 594 619 594 578 c 2
 635 162 l 1
 822 530 l 2
 835 556 843 581 843 597 c 0
 843 625 832 632 778 637 c 1
 778 653 l 1
 963 653 l 1
EndSplineSet
Validated: 3073
EndChar

StartChar: X
Encoding: 88 88 56
Width: 665
Flags: HMW
AnchorPoint: "below" 292 0 basechar 0
AnchorPoint: "middle" 347 337 basechar 0
AnchorPoint: "above" 411 659 basechar 0
LayerCount: 2
Fore
SplineSet
684 653 m 1
 684 637 l 1
 641 623 610 601 559 542 c 2
 390 348 l 1
 492 90 l 2
 517 30 526 24 596 16 c 1
 596 0 l 1
 323 0 l 1
 323 16 l 1
 389 21 399 26 399 55 c 0
 399 70 395 86 388 104 c 2
 321 269 l 1
 170 97 l 2
 157 82 149 65 149 50 c 0
 149 25 166 16 214 16 c 1
 214 0 l 1
 0 0 l 1
 0 16 l 1
 74 31 100 83 303 313 c 1
 197 576 l 2
 178 622 163 632 105 637 c 1
 105 653 l 1
 369 653 l 1
 369 637 l 1
 314 630 298 621 298 596 c 0
 298 583 302 566 313 540 c 2
 372 393 l 1
 517 560 l 2
 531 576 537 588 537 601 c 0
 537 624 525 631 476 637 c 1
 476 653 l 1
 684 653 l 1
EndSplineSet
Validated: 3073
EndChar

StartChar: Y
Encoding: 89 89 57
Width: 593
Flags: HMW
AnchorPoint: "ogonek" 267 0 basechar 0
AnchorPoint: "below" 235 0 basechar 0
AnchorPoint: "middle" 338 345 basechar 0
AnchorPoint: "above" 407 659 basechar 0
LayerCount: 2
Fore
SplineSet
313 56 m 0
 313 23 336 20 402 16 c 1
 402 0 l 1
 113 0 l 1
 113 16 l 1
 179 20 202 36 218 90 c 0
 279 302 l 1
 202 571 l 1
 185 626 182 629 126 637 c 1
 126 653 l 1
 365 653 l 1
 365 637 l 1
 305 631 293 625 293 601 c 0
 293 576 308 537 360 347 c 1
 398 393 l 1
 502 514 548 579 548 606 c 0
 548 631 519 634 479 637 c 1
 479 653 l 1
 668 653 l 1
 668 637 l 1
 638 623 630 616 598 576 c 2
 379 306 l 1
 350 205 l 2
 343 175 313 91 313 56 c 0
EndSplineSet
Validated: 3073
EndChar

StartChar: Z
Encoding: 90 90 58
Width: 563
Flags: HMW
AnchorPoint: "below" 263 0 basechar 0
AnchorPoint: "middle" 313 345 basechar 0
AnchorPoint: "above" 388 659 basechar 0
LayerCount: 2
Fore
SplineSet
308 617 m 2
 132 617 119 543 99 502 c 1
 80 507 l 1
 126 653 l 1
 612 653 l 1
 612 639 l 1
 129 36 l 1
 290 36 l 2
 473 36 495 81 540 171 c 1
 559 168 l 1
 505 0 l 1
 0 0 l 1
 0 14 l 1
 479 617 l 1
 308 617 l 2
EndSplineSet
Validated: 3073
EndChar

StartChar: bracketleft
Encoding: 91 91 59
Width: 389
Flags: HMW
LayerCount: 2
Fore
SplineSet
384 636 m 1
 322 636 l 2
 293 636 281 627 275 601 c 2
 115 -77 l 2
 111 -93 111 -93 111 -98 c 0
 111 -117 128 -126 160 -126 c 2
 216 -126 l 1
 209 -153 l 1
 21 -153 l 1
 218 663 l 1
 391 663 l 1
 384 636 l 1
EndSplineSet
Validated: 3073
EndChar

StartChar: backslash
Encoding: 92 92 60
Width: 490
Flags: HMW
LayerCount: 2
Fore
SplineSet
109 666 m 1
 181 666 l 1
 469 -18 l 1
 398 -18 l 1
 109 666 l 1
EndSplineSet
Validated: 3073
EndChar

StartChar: bracketright
Encoding: 93 93 61
Width: 389
Flags: HMW
LayerCount: 2
Fore
SplineSet
19 -126 m 1
 81 -126 l 2
 111 -126 120 -119 127 -90 c 2
 288 588 l 2
 292 604 292 605 292 609 c 0
 292 627 275 636 243 636 c 2
 186 636 l 1
 193 663 l 1
 382 663 l 1
 185 -153 l 1
 12 -153 l 1
 19 -126 l 1
EndSplineSet
Validated: 3073
EndChar

StartChar: asciicircum
Encoding: 94 94 62
Width: 422
Flags: HMW
LayerCount: 2
Fore
SplineSet
68 301 m 1
 0 301 l 1
 181 666 l 1
 241 666 l 1
 422 301 l 1
 354 301 l 1
 211 590 l 1
 68 301 l 1
EndSplineSet
Validated: 3073
EndChar

StartChar: underscore
Encoding: 95 95 63
Width: 500
Flags: HMW
LayerCount: 2
Fore
SplineSet
500 -125 m 1
 0 -125 l 1
 0 -75 l 1
 500 -75 l 1
 500 -125 l 1
EndSplineSet
Validated: 3073
EndChar

StartChar: grave
Encoding: 96 96 64
Width: 250
Flags: HMW
LayerCount: 2
Fore
SplineSet
298.484 495 m 1
 258.484 495 l 1
 145.719 592 l 2
 136.094 600.28 131.693 610.076 131.693 622.918 c 0
 131.693 638.852 141.725 666 178.178 666 c 0
 192.178 666 203.702 661.831 214.4 643 c 2
 298.484 495 l 1
EndSplineSet
Validated: 3073
EndChar

StartChar: a
Encoding: 97 97 65
Width: 498
Flags: HMW
AnchorPoint: "topright" 400 442 basechar 0
AnchorPoint: "ogonek" 339 0 basechar 0
AnchorPoint: "below" 203 0 basechar 0
AnchorPoint: "middle" 250 233 basechar 0
AnchorPoint: "above" 307 443 basechar 0
LayerCount: 2
Fore
SplineSet
384 41 m 0
 399 41 430 76 464 110 c 1
 476 100 l 1
 402 9 377 -10 337 -10 c 0
 309 -10 297 2 297 31 c 0
 297 55 300 68 320 146 c 1
 232 22 189 -11 119 -11 c 0
 55 -11 17 30 17 100 c 0
 17 258 171 441 303 441 c 0
 346 441 375 420 383 383 c 1
 394 431 l 1
 397 434 l 1
 458 441 l 1
 465 438 l 1
 463 429 462 427 459 417 c 0
 412 245 370 74 370 54 c 0
 370 47 376 41 384 41 c 0
365 358 m 0
 365 395 341 419 304 419 c 0
 184 419 101 180 101 113 c 0
 101 67 124 38 159 38 c 0
 257 38 365 235 365 358 c 0
EndSplineSet
Validated: 3073
EndChar

StartChar: b
Encoding: 98 98 66
Width: 476
Flags: HMW
AnchorPoint: "topright" 380 442 basechar 0
AnchorPoint: "below" 164 0 basechar 0
AnchorPoint: "above" 374 666 basechar 0
AnchorPoint: "middle" 270 233 basechar 0
LayerCount: 2
Fore
SplineSet
112 643 m 1
 112 660 l 1
 179 668 215 674 265 683 c 1
 270 678 l 1
 166 290 l 1
 237 400 289 441 359 441 c 0
 426 441 475 391 475 321 c 0
 475 164 309 -11 158 -11 c 0
 98.3408 -11 25 18.1904 25 46 c 1
 161 547 l 2
 165 561 177 603 177 616 c 0
 177 638 171 641 112 643 c 1
157 12 m 0
 304 12 390 239 390 306 c 0
 390 359 363 392 320 392 c 0
 192 392 111 125 111 46 c 0
 111 23 126 12 157 12 c 0
EndSplineSet
Validated: 3073
EndChar

StartChar: c
Encoding: 99 99 67
Width: 403
Flags: HMW
AnchorPoint: "topright" 330 442 basechar 0
AnchorPoint: "below" 184 0 basechar 0
AnchorPoint: "middle" 238 233 basechar 0
AnchorPoint: "above" 318 443 basechar 0
LayerCount: 2
Fore
SplineSet
309 420 m 0
 182 420 110 251 110 139 c 0
 110 68 144 25 201 25 c 0
 250 25 289 47 344 106 c 1
 360 96 l 1
 300 20 245 -11 171 -11 c 0
 78 -11 24 44 24 139 c 0
 24 295 164 441 314 441 c 0
 374 441 419 406 419 360 c 0
 419 334 398 314 371 314 c 0
 347 314 332 328 332 352 c 0
 332 370 347 389 347 400 c 0
 347 412 332 420 309 420 c 0
EndSplineSet
Validated: 3073
EndChar

StartChar: d
Encoding: 100 100 68
Width: 500
Flags: HMW
AnchorPoint: "topright" 493 442 basechar 0
AnchorPoint: "below" 167 0 basechar 0
AnchorPoint: "above" 328 664 basechar 0
AnchorPoint: "middle" 247 233 basechar 0
LayerCount: 2
Fore
SplineSet
466 111 m 1
 478 101 l 1
 426 28 374 -13 332 -13 c 0
 307 -13 290 5 290 32 c 0
 290 55 292 70 303 121 c 1
 235 21 191 -11 123 -11 c 0
 58 -11 18 32 18 103 c 0
 18 253 180 441 310 441 c 0
 349 441 367 425 375 383 c 1
 419 547 l 2
 433 598 434 608.333 434 617 c 0
 434 632.333 419.333 643 372 643 c 1
 372 660 l 1
 436 666 472 672 525 683 c 1
 530 678 l 1
 479 478 458 398 431 306 c 0
 398 196 366 74 366 60 c 0
 366 49 374 40 384 40 c 0
 401 40 412 49 466 111 c 1
359 361 m 0
 359 410 331 418 310 418 c 0
 215 418 105 227 105 103 c 0
 105 64 129 37 163 37 c 0
 255 37 359 209 359 361 c 0
EndSplineSet
Validated: 3073
EndChar

StartChar: e
Encoding: 101 101 69
Width: 406
Flags: HMW
AnchorPoint: "topright" 320 442 basechar 0
AnchorPoint: "ogonek" 165 0 basechar 0
AnchorPoint: "below" 150 0 basechar 0
AnchorPoint: "middle" 237 233 basechar 0
AnchorPoint: "above" 328 443 basechar 0
LayerCount: 2
Fore
SplineSet
351 109 m 1
 363 97 l 1
 304 30 227 -11 156 -11 c 0
 78 -11 24 45 24 126 c 0
 24 276 181 441 325 441 c 0
 375 441 405 415 405 373 c 0
 405 287 299 211 149 190 c 2
 121 186 l 1
 113 154 111 139 111 124 c 0
 111 70 148 34 205 34 c 0
 248 34 279 50 351 109 c 1
128 208 m 1
 317 254 339 342 339 379 c 0
 339 402 325 418 304 418 c 0
 253 418 179 341 145 252 c 2
 128 208 l 1
EndSplineSet
Validated: 3073
EndChar

StartChar: f
Encoding: 102 102 70
Width: 424
Flags: HMW
AnchorPoint: "below" 90 -200 basechar 0
AnchorPoint: "topright" 490 442 basechar 0
AnchorPoint: "above" 377 662 basechar 0
AnchorPoint: "middle" 177 233 basechar 0
LayerCount: 2
Fore
SplineSet
-1 -143 m 0
 -1 -158 -10 -160 -10 -170 c 0
 -10 -179 -2 -186 10 -186 c 0
 52 -186 85 -131 107 -24 c 2
 195 396 l 1
 105 396 l 1
 112 428 l 1
 204 428 l 1
 237 535 286 678 408 678 c 0
 457 678 494 650 494 613 c 0
 494 591 475 573 452 573 c 0
 430 573 415 589 415 613 c 0
 415 628 425 637 425 644 c 0
 425 651 416 656 403 656 c 0
 347 656 310 585 281 428 c 1
 389 428 l 1
 383 396 l 1
 274 396 l 1
 202 76 l 2
 161 -108 91 -207 2 -207 c 0
 -42 -207 -77 -180 -77 -146 c 0
 -77 -123 -61 -105 -40 -105 c 0
 -19 -105 -1 -122 -1 -143 c 0
EndSplineSet
Validated: 3073
EndChar

StartChar: g
Encoding: 103 103 71
Width: 440
Flags: HMW
AnchorPoint: "topright" 340 442 basechar 0
AnchorPoint: "below" 151 -200 basechar 0
AnchorPoint: "middle" 212 233 basechar 0
AnchorPoint: "above" 266 443 basechar 0
LayerCount: 2
Fore
SplineSet
265 441 m 0
 343 441 364 405 379 405 c 2
 440 405 l 1
 440 366 l 1
 390 366 l 1
 396 346 399 326 399 310 c 0
 399 232 305 151 214 151 c 0
 190 151 182 155 176 155 c 0
 163 155 140 129 140 114 c 0
 140 63 353 79 353 -60 c 0
 353 -147 269 -206 143 -206 c 0
 42 -206 -24 -161 -24 -92 c 0
 -24 -46 -6 -26 93 39 c 1
 74 53 66 65 66 78 c 0
 66 102 84 122 143 162 c 1
 86 188 64 218 64 270 c 0
 64 364 154 441 265 441 c 0
116 28 m 1
 113.312 26.7188 31 -13 31 -82 c 0
 31 -146 78 -184 158 -184 c 0
 235 -184 293 -144 293 -90 c 0
 293 -14.3708 187.975 -2.30516 116 28 c 1
202 172 m 0
 276 172 320 279 320 348 c 0
 320 395 301 419 264 419 c 0
 199 419 142 339 142 247 c 0
 142 200 164 172 202 172 c 0
EndSplineSet
Validated: 3073
EndChar

StartChar: h
Encoding: 104 104 72
Width: 499
Flags: HMW
AnchorPoint: "topright" 380 442 basechar 0
AnchorPoint: "below" 187 0 basechar 0
AnchorPoint: "above" 347 658 basechar 0
AnchorPoint: "middle" 185 233 basechar 0
LayerCount: 2
Fore
SplineSet
448 374 m 0
 448 316 367 92 367 56 c 0
 367 47 374 38 383 38 c 0
 399 38 411 49 465 117 c 1
 478 105 l 1
 418 18 383 -9 332 -9 c 0
 305 -9 288 7 288 33 c 0
 288 45 295 76 308 125 c 2
 363 332 l 2
 367 348 370 361 370 365 c 0
 370 378 357 390 342 390 c 0
 307 390 239 328 187 249 c 0
 147 188 134 154 94 0 c 1
 19 0 l 1
 154 512 l 2
 171 573 178 596 178 617 c 0
 178 635.146 157.387 641 137 641 c 2
 111 641 l 1
 111 656 l 1
 171 663 210 670 268 683 c 1
 273 678 l 1
 153 230 l 1
 246 375 317 441 382 441 c 0
 421 441 448 414 448 374 c 0
EndSplineSet
Validated: 3073
EndChar

StartChar: i
Encoding: 105 105 73
Width: 246
Flags: HMW
AnchorPoint: "topright" 250 420 basechar 0
AnchorPoint: "ogonek" 92 0 basechar 0
AnchorPoint: "below" 85 0 basechar 0
AnchorPoint: "above" 209 650 basechar 0
AnchorPoint: "middle" 126 233 basechar 0
LayerCount: 2
Fore
SplineSet
130 36 m 0
 147 36 174 64 212 114 c 1
 225 103 l 1
 168 19 131 -11 85 -11 c 0
 55 -11 39 9 39 46 c 0
 39 66 45 97 61 155 c 2
 109 332 l 2
 115 352 118 368 118 376 c 0
 118 396 108 399 55 400 c 1
 55 416 l 1
 94 419 114 422 215 441 c 1
 218 439 l 1
 124 95 l 2
 118.581 75.4902 114 61 114 51 c 0
 114 44 122 36 130 36 c 0
204 654 m 0
 231 654 254 628 254 599 c 0
 254 571 231 548 205 548 c 0
 176 548 157 569 157 601 c 0
 157 631 177 654 204 654 c 0
EndSplineSet
Validated: 3073
EndChar

StartChar: j
Encoding: 106 106 74
Width: 285
Flags: HMW
AnchorPoint: "below" 70 -200 basechar 0
AnchorPoint: "topright" 320 442 basechar 0
AnchorPoint: "above" 268 648 basechar 0
AnchorPoint: "middle" 197 233 basechar 0
LayerCount: 2
Fore
SplineSet
159 400 m 2
 123 400 l 1
 123 416 l 1
 154 417 204 425 293 441 c 1
 296 439 l 1
 192 28 l 2
 152 -131 92 -207 5 -207 c 0
 -41 -207 -74 -181 -74 -146 c 0
 -74 -122 -57 -104 -34 -104 c 0
 -11 -104 7 -120 7 -141 c 0
 7 -160 -6 -162 -6 -173 c 0
 -6 -180 0 -184 12 -184 c 0
 52 -184 75 -140 109 -3 c 2
 181 289 l 2
 192 332 197 359 197 369 c 0
 197 396 173 400 159 400 c 2
276 654 m 0
 303 654 326 628 326 599 c 0
 326 571 303 548 277 548 c 0
 248 548 229 569 229 601 c 0
 229 632 249 654 276 654 c 0
EndSplineSet
Validated: 3073
EndChar

StartChar: k
Encoding: 107 107 75
Width: 453
Flags: HMW
AnchorPoint: "topright" 340 442 basechar 0
AnchorPoint: "below" 181 0 basechar 0
AnchorPoint: "above" 339 656 basechar 0
AnchorPoint: "middle" 191 233 basechar 0
LayerCount: 2
Fore
SplineSet
240 258 m 1
 319 78 330 41 358 41 c 0
 379.384 41 402.102 81.4434 418 109 c 1
 433 98 l 1
 388 14 362 -11 322 -11 c 0
 296 -11 258 7 183 212 c 1
 141 180 l 1
 93 0 l 1
 18 0 l 1
 145 483 l 2
 152 515 174 585 178 615 c 1
 176.844 635.81 152.342 640 110 640 c 1
 110 656 l 1
 169 663 207 670 266 683 c 1
 271 678 l 1
 151 221 l 1
 190 248 337 361 337 394 c 0
 337 405 323 412 298 412 c 2
 282 412 l 1
 282 428 l 1
 465 428 l 1
 465 412 l 1
 418 409 387 389 240 258 c 1
EndSplineSet
Validated: 3073
EndChar

StartChar: l
Encoding: 108 108 76
Width: 251
Flags: HMW
AnchorPoint: "topright" 262 442 basechar 0
AnchorPoint: "below" 80 0 basechar 0
AnchorPoint: "above" 238 666 basechar 0
AnchorPoint: "middle" 140 308 basechar 0
LayerCount: 2
Fore
SplineSet
124 32 m 0
 147 32 156 44 220 123 c 1
 233 114 l 1
 168 18 133 -11 81 -11 c 0
 49 -11 32 9 32 45 c 0
 32 50 34 60 37 71 c 2
 174 599 l 2
 177 608 178 614 178 617 c 0
 178 633 158 640 110 640 c 1
 110 656 l 1
 169 663 207 670 266 683 c 1
 271 678 l 1
 120 99 l 2
 119 97 109 60 109 50 c 0
 109 39 114 32 124 32 c 0
EndSplineSet
Validated: 3073
EndChar

StartChar: m
Encoding: 109 109 77
Width: 725
Flags: HMW
AnchorPoint: "topright" 600 442 basechar 0
AnchorPoint: "below" 291 0 basechar 0
AnchorPoint: "above" 407 443 basechar 0
AnchorPoint: "middle" 357 233 basechar 0
LayerCount: 2
Fore
SplineSet
604 38 m 0
 621 38 634 51 689 117 c 1
 704 105 l 1
 661 45 615 -9 555 -9 c 0
 529 -9 515 7 515 37 c 0
 515 47 519 66 528 103 c 2
 586 333 l 2
 591 351 593 363 593 368 c 0
 593 379 584 389 573 389 c 0
 544 389 494 345 445 277 c 0
 394 206 374 156 334 0 c 1
 259 0 l 1
 322 234 354 355 354 364 c 0
 354 380 347 389 334 389 c 0
 300 389 240 333 184 248 c 0
 150 196 135 159 87 0 c 1
 12 0 l 1
 25 51 28 61 51 143 c 0
 87 270 110 361 110 372 c 0
 110 387 97 394 71 394 c 2
 46 394 l 1
 46 410 l 1
 129 425 150 429 206 441 c 1
 209 439 l 1
 151 230 l 1
 243 375 313 441 374 441 c 0
 408 441 431 416 431 381 c 0
 431 362 416 305 391 229 c 1
 420 275 519 441 613 441 c 0
 647 441 672 414 672 378 c 0
 672 372 670 354 669 350 c 2
 601 99 l 2
 595 75 591 59 591 54 c 0
 591 44 596 38 604 38 c 0
EndSplineSet
Validated: 3073
EndChar

StartChar: n
Encoding: 110 110 78
Width: 493
Flags: HMW
AnchorPoint: "topright" 368 442 basechar 0
AnchorPoint: "below" 185 0 basechar 0
AnchorPoint: "middle" 242 233 basechar 0
AnchorPoint: "above" 314 443 basechar 0
LayerCount: 2
Fore
SplineSet
458 117 m 1
 472 104 l 1
 403 12 377 -9 332 -9 c 0
 299 -9 285 7 285 45 c 0
 285 55 287.373 68.8994 301 120 c 0
 345 285 l 2
 353 316 359 349 359 361 c 0
 359 379 350 390 335 390 c 0
 298 390 247 340 187 248 c 0
 143 180 134 158 87 0 c 1
 12 0 l 1
 108 350 l 2
 109 355 110 361 110 367 c 0
 110 387 97 393 46 394 c 1
 46 410 l 1
 133 426 154 430 208 441 c 1
 211 439 l 1
 144 221 l 1
 247 381 310 441 374 441 c 0
 413 441 440 416 440 380 c 0
 440 366 437 344 431 323 c 2
 374 117 l 2
 360 61 360 61 360 54 c 0
 360 46 368 38 376 38 c 0
 393.597 38 434.413 87.7969 458 117 c 1
EndSplineSet
Validated: 3073
EndChar

StartChar: o
Encoding: 111 111 79
Width: 473
Flags: HMW
AnchorPoint: "topright" 370 442 basechar 0
AnchorPoint: "ogonek" 190 0 basechar 0
AnchorPoint: "middle" 242 233 basechar 0
AnchorPoint: "below" 177 0 basechar 0
AnchorPoint: "above" 330 443 basechar 0
LayerCount: 2
Fore
SplineSet
466 301 m 0
 466 172 335 -11 172 -11 c 0
 81 -11 25 43 25 129 c 0
 25 286 173 441 323 441 c 0
 408 441 466 384 466 301 c 0
187 10 m 0
 299 10 382 208 382 326 c 0
 382 383 354 420 311 420 c 0
 205 420 109 231 109 101 c 0
 109 46 140 10 187 10 c 0
EndSplineSet
Validated: 3073
EndChar

StartChar: p
Encoding: 112 112 80
Width: 469
Flags: HMW
AnchorPoint: "below" 148 -200 basechar 0
AnchorPoint: "topright" 370 442 basechar 0
AnchorPoint: "above" 312 443 basechar 0
AnchorPoint: "middle" 242 233 basechar 0
LayerCount: 2
Fore
SplineSet
87 404 m 2
 54 404 l 1
 52 419 l 1
 104.092 426.423 202.745 441 208 441 c 0
 210.562 441 213 440.688 213 437 c 9
 181 328 l 1
 239 409 287 441 352 441 c 0
 423 441 467 394 467 316 c 0
 467 157 313 -11 167 -11 c 0
 144 -11 126 -7 101 6 c 1
 81 -68 64 -146 64 -160 c 0
 64 -181 81 -190 128 -190 c 1
 128 -205 l 1
 -77 -205 l 1
 -77 -189 l 1
 -5 -187 -21 -161 48 94 c 0
 83 226 119 368 119 377 c 0
 119 390 100 404 87 404 c 2
377 312 m 0
 377 360 365 398 311 398 c 0
 262 398 206 350 180 284 c 0
 151 210 115 79 115 45 c 0
 115 23 135 8 163 8 c 0
 292 8 377 203 377 312 c 0
EndSplineSet
Validated: 3073
EndChar

StartChar: q
Encoding: 113 113 81
Width: 483
Flags: HMW
AnchorPoint: "below" 124 -200 basechar 0
AnchorPoint: "topright" 390 442 basechar 0
AnchorPoint: "above" 321 443 basechar 0
AnchorPoint: "middle" 238 233 basechar 0
LayerCount: 2
Fore
SplineSet
385 -191 m 1
 385 -209 l 1
 144 -209 l 1
 144 -193 l 1
 209 -188 226 -180 238 -140 c 0
 327 153 l 1
 238 26 192 -11 121 -11 c 0
 58 -11 19 34 19 105 c 0
 19 257 180 441 312 441 c 0
 353 441 373 425 389 379 c 1
 404 426 l 1
 477 426 l 1
 313 -151 l 2
 310.938 -159.248 311 -160.6 311 -163 c 0
 311 -181 332 -191 368 -191 c 2
 385 -191 l 1
161 42 m 0
 256 42 374 239 374 358 c 0
 374 392 348 419 315 419 c 0
 223 419 105 234 105 119 c 0
 105 72 127 42 161 42 c 0
EndSplineSet
Validated: 3073
EndChar

StartChar: r
Encoding: 114 114 82
Width: 366
Flags: HMW
AnchorPoint: "topright" 290 442 basechar 0
AnchorPoint: "below" 121 0 basechar 0
AnchorPoint: "above" 220 443 basechar 0
AnchorPoint: "middle" 134 233 basechar 0
LayerCount: 2
Fore
SplineSet
340 340 m 0
 296 340 310 376 288 376 c 0
 271 376 243 345 210 289 c 0
 164 213 147 170 95 0 c 1
 19 0 l 1
 100 292 l 2
 115.181 346.727 116 354 116 374 c 0
 116 392 103 402 81 402 c 0
 74 402 71 402 47 397 c 1
 47 414 l 1
 120 426 129 428 202 441 c 1
 205 439 l 1
 152 222 l 1
 173.365 276.938 252.563 441 339 441 c 0
 367 441 386 420 386 389 c 0
 386 358 369 340 340 340 c 0
EndSplineSet
Validated: 3073
EndChar

StartChar: s
Encoding: 115 115 83
Width: 345
Flags: HMW
AnchorPoint: "topright" 260 442 basechar 0
AnchorPoint: "below" 140 0 basechar 0
AnchorPoint: "middle" 187 233 basechar 0
AnchorPoint: "above" 233 443 basechar 0
LayerCount: 2
Fore
SplineSet
144 -11 m 0
 105 -11 73 8 40 8 c 0
 30 8 24 3 16 -13 c 1
 0 -13 l 1
 20 146 l 1
 36 146 l 1
 52 51 83 10 138 10 c 0
 182 10 212 42 212 87 c 0
 212 175 93 236 93 331 c 0
 93 398 141 441 214 441 c 0
 251 441 284 424 306 424 c 0
 320 424 328 428 336 442 c 1
 350 442 l 1
 330 303 l 1
 314 303 l 1
 304 381 274 418 222 418 c 0
 187 418 166 397 166 364 c 0
 166 290 288 215 288 119 c 0
 288 43 228 -11 144 -11 c 0
EndSplineSet
Validated: 3073
Substitution2: "'hist' Historical Forms in Latin subtable" longs
EndChar

StartChar: t
Encoding: 116 116 84
Width: 238
Flags: HMW
AnchorPoint: "topright" 279 442 basechar 0
AnchorPoint: "below" 78 0 basechar 0
AnchorPoint: "above" 235 552 basechar 0
AnchorPoint: "middle" 121 233 basechar 0
LayerCount: 2
Fore
SplineSet
285 428 m 1
 280 396 l 1
 196 396 l 1
 108 63 l 2
 107 60 107 59 107 58 c 0
 107 46 113 38 122 38 c 0
 138 38 154 54 203 117 c 1
 216 110 l 1
 153 17 120 -11 74 -11 c 0
 47 -11 26 5 26 27 c 0
 26 46 46 108 49 121 c 2
 121 396 l 1
 47 396 l 1
 46 399 46 401 46 402 c 0
 46 434 116 413 211 537 c 0
 217 545 220 546 226 546 c 0
 231 546 234 543 234 536 c 0
 234 535 234 533 233 531 c 1
 205 428 l 1
 285 428 l 1
EndSplineSet
Validated: 3073
EndChar

StartChar: u
Encoding: 117 117 85
Width: 484
Flags: HMW
AnchorPoint: "topright" 380 442 basechar 0
AnchorPoint: "ogonek" 331 0 basechar 0
AnchorPoint: "below" 181 0 basechar 0
AnchorPoint: "middle" 233 233 basechar 0
AnchorPoint: "above" 291 443 basechar 0
LayerCount: 2
Fore
SplineSet
107 376 m 0
 107 396 88 400 47 400 c 1
 47 414 l 1
 104 421 140 428 197 441 c 1
 200 439 l 1
 109 76 l 2
 108 73 108 71 108 67 c 0
 108 52 117 42 129 42 c 0
 161 42 210 93 270 188 c 0
 316 261 323 277 380 432 c 1
 454 432 l 1
 375 133 l 2
 356 61 356 61 356 55 c 0
 356 44 360 38 367 38 c 0
 383 38 398 52 450 117 c 1
 464 108 l 1
 396 11 373 -9 326 -9 c 0
 296 -9 278 9 278 39 c 0
 278 60 294 129 323 236 c 1
 208 43 155 -11 84 -11 c 0
 49 -11 31 8 31 44 c 0
 31 62 38 96 56 167 c 2
 93 309 l 2
 102 343 107 368 107 376 c 0
EndSplineSet
Validated: 3073
EndChar

StartChar: v
Encoding: 118 118 86
Width: 456
Flags: HMW
AnchorPoint: "topright" 360 442 basechar 0
AnchorPoint: "below" 208 0 basechar 0
AnchorPoint: "above" 302 443 basechar 0
AnchorPoint: "middle" 274 233 basechar 0
LayerCount: 2
Fore
SplineSet
405 333 m 0
 405 361 363 367 363 407 c 0
 363 428 378 441 400 441 c 0
 430 441 456 414 456 382 c 0
 456 345 430 280 395 230 c 0
 293 88 200 -18 175 -18 c 0
 168 -18 166 -11 166 17 c 0
 166 75 154 226 144 295 c 0
 130 387 120 404 81 404 c 0
 70 404 62 404 51 403 c 1
 51 416 l 1
 156 433 159 441 182 441 c 0
 204 441 229 238 237 70 c 1
 268 102 l 2
 339 176 405 287 405 333 c 0
EndSplineSet
Validated: 3073
EndChar

StartChar: w
Encoding: 119 119 87
Width: 683
Flags: HMW
AnchorPoint: "topright" 560 442 basechar 0
AnchorPoint: "below" 299 0 basechar 0
AnchorPoint: "above" 425 443 basechar 0
AnchorPoint: "middle" 353 233 basechar 0
LayerCount: 2
Fore
SplineSet
86 405 m 0
 77 405 78 404 71 404 c 2
 51 404 l 1
 51 417 l 1
 63 419 73 421 77 421 c 0
 156 433 158 441 175 441 c 0
 203 441 223 181 225 126 c 1
 417 430 l 2
 422 438 425 440 430 440 c 0
 436 440 437 437 438 426 c 2
 470 74 l 1
 601 237 635 291 635 334 c 0
 635 365 592 375 592 407 c 0
 592 428 607 441 631 441 c 0
 661 441 683 419 683 389 c 0
 683 283 440 -18 417 -18 c 0
 410 -18 408 -15 406 12 c 0
 377 331 l 1
 288 175 l 2
 221 57 191 -18 169 -18 c 0
 160 -18 158 -10 156 29 c 2
 152 117 l 2
 149 196 137 302 125 359 c 0
 119 394 110 405 86 405 c 0
EndSplineSet
Validated: 3073
EndChar

StartChar: x
Encoding: 120 120 88
Width: 435
Flags: HMW
AnchorPoint: "topright" 350 442 basechar 0
AnchorPoint: "below" 186 0 basechar 0
AnchorPoint: "above" 284 443 basechar 0
AnchorPoint: "middle" 239 233 basechar 0
LayerCount: 2
Fore
SplineSet
331 44 m 0
 349 44 350 56 399 111 c 1
 413 103 l 1
 355 13 329 -11 291 -11 c 0
 259 -11 246 5 233 56 c 2
 203 176 l 1
 78 3 56 -11 20 -11 c 0
 -10 -11 -30 5 -30 31 c 0
 -30 51 -15 66 4 66 c 0
 27 66 44 47 62 47 c 0
 73 47 92 65 113 95 c 0
 195 212 l 1
 166 335 l 2
 152 395 146 404 121 404 c 0
 112 404 103 402 65 393 c 1
 61 408 l 1
 72 412 l 2
 133 432 167 441 189 441 c 0
 216 441 227 421 241 353 c 2
 252 298 l 1
 321 405 359 441 403 441 c 0
 427 441 444 425 444 404 c 0
 444 383 430 368 409 368 c 0
 389 368 376 385 358 385 c 0
 340 385 304 341 260 264 c 1
 260 244 290 124 300 85 c 0
 307 57 316 44 331 44 c 0
EndSplineSet
Validated: 3073
EndChar

StartChar: y
Encoding: 121 121 89
Width: 462
Flags: HMW
AnchorPoint: "topright" 376 442 basechar 0
AnchorPoint: "ogonek" 358 0 basechar 0
AnchorPoint: "below" 352 0 basechar 0
AnchorPoint: "middle" 280 233 basechar 0
AnchorPoint: "above" 343 443 basechar 0
LayerCount: 2
Fore
SplineSet
51 417 m 1
 148 435 161 438 194 441 c 1
 209 441 265 276 280 188 c 2
 300 72 l 1
 385 213 422 291 422 331 c 0
 422 368 368 363 368 404 c 0
 368 426 384 441 407 441 c 0
 437 441 462 416 462 386 c 0
 462 258 183 -206 63 -206 c 0
 34 -206 12 -187 12 -162 c 0
 12 -140 29 -123 51 -123 c 0
 74 -123 98 -151 112 -151 c 0
 144 -151 241 -30 241 8 c 0
 241 25 217 142 200 207 c 0
 154 379 139 404 82 404 c 0
 71 404 64 403 51 400 c 1
 51 417 l 1
EndSplineSet
Validated: 3073
EndChar

StartChar: z
Encoding: 122 122 90
Width: 389
Flags: HMW
AnchorPoint: "topright" 300 442 basechar 0
AnchorPoint: "below" 177 0 basechar 0
AnchorPoint: "middle" 217 233 basechar 0
AnchorPoint: "above" 246 443 basechar 0
LayerCount: 2
Fore
SplineSet
269 -81 m 0
 193 -81 122 5 53 5 c 0
 36 5 23 0 7 -13 c 1
 -2 -4 l 1
 308 368 l 1
 162 368 l 2
 115 368 102 359 81 309 c 1
 65 313 l 1
 96 428 l 1
 380 428 l 1
 380 417 l 1
 90 73 l 1
 224 43 207 -60 281 -60 c 0
 297 -60 308 -54 308 -45 c 0
 308 -35 294 -20 294 0 c 0
 294 18 308 31 328 31 c 0
 349 31 363 16 363 -5 c 0
 363 -45 319 -81 269 -81 c 0
EndSplineSet
Validated: 3073
EndChar

StartChar: braceleft
Encoding: 123 123 91
Width: 400
Flags: HMW
LayerCount: 2
Fore
SplineSet
51 -99 m 0
 51 -38 117 136 117 198 c 0
 117 227 104 241 65 255 c 1
 129 272 150 296 170 369 c 0
 218 547 l 1
 249 653 294 687 407 687 c 1
 404 676 l 1
 342 660 316 631 295 552 c 2
 250 384 l 2
 228 301 202 272 137 255 c 1
 176 238 192 219 192 192 c 0
 192 145 126 -57 126 -100 c 0
 126 -137 141 -155 179 -166 c 1
 176 -177 l 1
 84 -174 51 -154 51 -99 c 0
EndSplineSet
Validated: 3073
EndChar

StartChar: bar
Encoding: 124 124 92
Width: 275
Flags: HMW
LayerCount: 2
Fore
SplineSet
105 -18 m 1
 105 666 l 1
 171 666 l 1
 171 -18 l 1
 105 -18 l 1
EndSplineSet
Validated: 3073
EndChar

StartChar: braceright
Encoding: 125 125 93
Width: 400
Flags: HMW
LayerCount: 2
Fore
SplineSet
208 318 m 0
 208 366 274 571 274 609 c 0
 274 646 259 665 221 676 c 1
 224 687 l 1
 315 684 349 663 349 609 c 0
 349 550 283 376 283 312 c 0
 283 283 296 269 335 255 c 1
 271 238 250 214 230 141 c 0
 182 -37 l 1
 151 -143 105 -177 -7 -177 c 1
 -4 -166 l 1
 58 -150 84 -121 105 -42 c 2
 150 126 l 2
 172 209 197 238 263 255 c 1
 224 272 208 291 208 318 c 0
EndSplineSet
Validated: 3073
EndChar

StartChar: asciitilde
Encoding: 126 126 94
Width: 541
Flags: HMW
LayerCount: 2
Fore
SplineSet
163 320 m 0
 263 320 297 252 374 252 c 0
 405 252 422 264 448 303 c 1
 502 271 l 1
 456 207 425 186 379 186 c 0
 279 186 245 254 168 254 c 0
 137 254 120 242 94 203 c 1
 40 235 l 1
 86 299 117 320 163 320 c 0
EndSplineSet
Validated: 3073
EndChar

StartChar: exclamdown
Encoding: 161 161 95
Width: 333
Flags: HMW
LayerCount: 2
Fore
SplineSet
241 281 m 1
 154 -114 166 -205 99 -205 c 0
 73 -205 59 -188 59 -154 c 0
 59 -83 95 -67 224 285 c 1
 241 281 l 1
270 474 m 0
 299 474 321 451 321 419 c 0
 321 393 296 368 269 368 c 0
 240 368 215 393 215 422 c 0
 215 450 240 474 270 474 c 0
EndSplineSet
Validated: 3073
EndChar

StartChar: cent
Encoding: 162 162 96
Width: 500
Flags: HMW
LayerCount: 2
Fore
SplineSet
185 -7 m 1
 157 -1 77 22 77 140 c 0
 77 262 171 414 342 440 c 1
 384 560 l 1
 414 560 l 1
 372 440 l 1
 434 435 472 407 472 360 c 0
 472 334 452 314 424 314 c 0
 400 314 385 328 385 352 c 0
 385 370 400 389 400 400 c 0
 400 412 388 419 365 420 c 1
 228 29 l 1
 236 26 242 25 252 25 c 0
 303 25 341 47 397 106 c 1
 413 96 l 1
 353 21 299 -11 227 -11 c 0
 222 -11 220 -11 215 -10 c 1
 168 -143 l 1
 137 -143 l 1
 185 -7 l 1
334 417 m 1
 188 375 163 193 163 139 c 0
 163 94 175 64 202 41 c 1
 334 417 l 1
EndSplineSet
Validated: 3073
EndChar

StartChar: sterling
Encoding: 163 163 97
Width: 500
Flags: HMW
LayerCount: 2
Fore
SplineSet
478 553 m 0
 419 553 466 641 402 641 c 0
 345 641 322 587 280 361 c 1
 403 361 l 1
 396 319 l 1
 270 319 l 1
 244 209 238 193 197 104 c 1
 268 77 315 66 357 66 c 0
 386 66 408 73 436 93 c 2
 446 100 l 1
 457 91 l 1
 432 29 382 -6 315 -6 c 0
 266 -6 235 8 171 57 c 1
 132 8 110 -6 75 -6 c 0
 36 -6 10 20 10 58 c 0
 10 98 49 126 104 126 c 0
 119 126 120 126 160 115 c 1
 185 319 l 1
 72 319 l 1
 81 361 l 1
 191 361 l 1
 215 495 275 670 424 670 c 0
 479 670 517 639 517 594 c 0
 517 567 503 553 478 553 c 0
146 73 m 1
 116 94 107 98 86 98 c 0
 54 98 32 80 32 53 c 0
 32 32 51 16 75 16 c 0
 105 16 134 39 146 73 c 1
EndSplineSet
Validated: 3073
EndChar

StartChar: currency
Encoding: 164 164 98
Width: 500
Flags: HMW
LayerCount: 2
Fore
SplineSet
-22 103 m 1
 76 199 l 1
 47 241 35 278 35 325 c 0
 35 373 47 411 76 451 c 1
 -22 549 l 1
 28 597 l 1
 124 501 l 1
 167 529 204 540 251 540 c 0
 299 540 338 528 376 501 c 1
 474 597 l 1
 522 549 l 1
 426 451 l 1
 453 410 465 373 465 326 c 0
 465 279 454 242 426 199 c 1
 522 103 l 1
 474 53 l 1
 376 151 l 1
 337 123 298 110 251 110 c 0
 205 110 166 123 124 151 c 1
 28 53 l 1
 -22 103 l 1
253 476 m 0
 170 476 103 410 103 327 c 0
 103 242 169 174 251 174 c 0
 332 174 397 241 397 326 c 0
 397 408 332 476 253 476 c 0
EndSplineSet
Validated: 3073
EndChar

StartChar: yen
Encoding: 165 165 99
Width: 500
Flags: HMW
LayerCount: 2
Fore
SplineSet
483 606 m 0
 483 631 454 634 414 637 c 1
 414 653 l 1
 603 653 l 1
 603 637 l 1
 571 623 562 616 530 576 c 2
 349 352 l 1
 500 352 l 1
 488 312 l 1
 318 312 l 1
 312 304 l 1
 288 222 l 1
 468 222 l 1
 456 182 l 1
 276 182 l 1
 251 103 245 79 245 57 c 0
 245 22 269 20 337 16 c 1
 337 0 l 1
 52 0 l 1
 56 16 l 1
 119 20 150 38 165 90 c 0
 192 182 l 1
 27 182 l 1
 39 222 l 1
 203 222 l 1
 226 302 l 1
 223 312 l 1
 60 312 l 1
 72 352 l 1
 212 352 l 1
 149 571 l 1
 132 625 127 629 61 637 c 1
 61 653 l 1
 300 653 l 1
 300 637 l 1
 236 631 225 626 225 601 c 0
 225 586 236 543 264 447 c 2
 293 347 l 1
 335 395 483 564 483 606 c 0
EndSplineSet
Validated: 3073
EndChar

StartChar: brokenbar
Encoding: 166 166 100
Width: 275
Flags: HMW
LayerCount: 2
Fore
SplineSet
105 -18 m 1
 105 257 l 1
 171 257 l 1
 171 -18 l 1
 105 -18 l 1
105 391 m 1
 105 666 l 1
 171 666 l 1
 171 391 l 1
 105 391 l 1
EndSplineSet
Validated: 3073
EndChar

StartChar: section
Encoding: 167 167 101
Width: 500
Flags: HMW
LayerCount: 2
Fore
SplineSet
156 -41 m 0
 156 -91 114 -80 114 -104 c 0
 114 -124 148 -141 185 -141 c 0
 245 -141 287 -104 287 -51 c 0
 287 -21 275 3 237 46 c 2
 161 133 l 2
 114 186 90 239 90 286 c 0
 90 353 138 409 196 409 c 0
 213 409 232 405 249 398 c 1
 251 401 l 1
 201 462 184 497 184 541 c 0
 184 614 245 666 331 666 c 0
 407 666 461 625 461 567 c 0
 461 533 441 512 409 512 c 0
 382 512 363 531 363 557 c 0
 363 590 397 597 397 614 c 0
 397 631 371 645 337 645 c 0
 280 645 245 613 245 562 c 0
 245 536 254 510 271 490 c 2
 394 340 l 2
 420 308 435 267 435 226 c 0
 435 151 387 100 317 100 c 0
 303 100 296 102 284 107 c 1
 282 104 l 1
 335 36 345 15 345 -25 c 0
 345 -103 277 -162 189 -162 c 0
 113 -162 53 -115 53 -54 c 0
 53 -19 74 2 109 2 c 0
 138 2 156 -14 156 -41 c 0
377 192 m 0
 377 261 277 388 213 388 c 0
 177 388 147 359 147 322 c 0
 147 251 254 121 312 121 c 0
 347 121 377 154 377 192 c 0
EndSplineSet
Validated: 3073
EndChar

StartChar: ordfeminine
Encoding: 170 170 104
Width: 276
Flags: HMW
LayerCount: 2
Fore
SplineSet
272 355 m 1
 259 292 l 1
 39 292 l 1
 53 355 l 1
 272 355 l 1
307 447 m 1
 310 447 323 462 343 482 c 1
 350 472 l 1
 301 417 286 406 260 406 c 0
 241 406 229 416 229 432 c 0
 229 448 232 458 246 493 c 1
 197 425 169 406 120 406 c 0
 72 406 42 433 42 476 c 0
 42 569 143 676 231 676 c 0
 265 676 285 665 290 641 c 1
 297 671 l 1
 299 673 l 1
 352 675 l 1
 319 559 302 493 298 472 c 2
 295 457 l 1
 294 454 294 451 294 449 c 0
 294 446 296 443 298 443 c 0
 300 443 307 447 307 447 c 1
269 620 m 0
 269 636 264 658 245 658 c 0
 194 658 115 552 115 480 c 0
 115 460 129 440 144 440 c 0
 213 440 269 579 269 620 c 0
EndSplineSet
Validated: 3073
EndChar

StartChar: logicalnot
Encoding: 172 172 106
Width: 675
Flags: HMW
LayerCount: 2
Fore
SplineSet
524 108 m 1
 524 320 l 1
 86 320 l 1
 86 386 l 1
 590 386 l 1
 590 108 l 1
 524 108 l 1
EndSplineSet
Validated: 3073
EndChar

StartChar: macron
Encoding: 175 175 108
Width: 333
Flags: HMW
LayerCount: 2
Fore
SplineSet
411 583 m 1
 400 532 l 1
 99 532 l 1
 110 583 l 1
 411 583 l 1
EndSplineSet
Validated: 3073
EndChar

StartChar: degree
Encoding: 176 176 109
Width: 400
Flags: HMW
LayerCount: 2
Fore
SplineSet
244 676 m 0
 324 676 387 613 387 533 c 0
 387 452 324 390 242 390 c 0
 164 390 101 454 101 533 c 0
 101 613 164 676 244 676 c 0
244 642 m 0
 187 642 140 592 140 533 c 0
 140 474 187 424 243 424 c 0
 301 424 348 473 348 533 c 0
 348 592 300 642 244 642 c 0
EndSplineSet
Validated: 3073
EndChar

StartChar: plusminus
Encoding: 177 177 110
Width: 675
Flags: HMW
LayerCount: 2
Fore
SplineSet
86 0 m 1
 86 66 l 1
 590 66 l 1
 590 0 l 1
 86 0 l 1
305 348 m 1
 305 568 l 1
 371 568 l 1
 371 348 l 1
 590 348 l 1
 590 282 l 1
 371 282 l 1
 371 122 l 1
 305 122 l 1
 305 282 l 1
 86 282 l 1
 86 348 l 1
 305 348 l 1
EndSplineSet
Validated: 3073
EndChar

StartChar: twosuperior
Encoding: 178 178 111
Width: 300
Flags: HMW
LayerCount: 2
Fore
SplineSet
185 700 m 1
 216 773 270 799 320 799 c 0
 381 799 431 753 431 698 c 0
 431 663 424 643 337 559 c 2
 223 449 l 1
 225 444 l 1
 328 444 l 2
 364 444 375 451 391 478 c 1
 404 470 l 1
 371 391 l 1
 140 391 l 1
 140 409 l 1
 273 539 l 2
 335 599 363 646 363 678 c 0
 363 715 331 742 288 742 c 0
 252 742 227 728 198 690 c 1
 185 700 l 1
EndSplineSet
Validated: 3073
EndChar

StartChar: threesuperior
Encoding: 179 179 112
Width: 300
Flags: HMW
LayerCount: 2
Fore
SplineSet
330 512 m 0
 330 590 282 607 219 607 c 1
 219 620 l 1
 319 638 364 667 364 712 c 0
 364 742 344 764 316 764 c 0
 290 764 274 755 245 728 c 1
 233 735 l 1
 253 773 293 799 338 799 c 0
 392 799 433 763 433 720 c 1
 432.082 679.385 404.992 652.945 332 633 c 1
 350 624 397 611 397 545 c 0
 397 453 318 385 210 385 c 0
 163 385 137 402 137 427 c 0
 137 442 150 455 167 455 c 0
 194 455 216 421 248 421 c 0
 296 421 330 459 330 512 c 0
EndSplineSet
Validated: 3073
EndChar

StartChar: acute
Encoding: 180 180 113
Width: 250
Flags: HMW
LayerCount: 2
Fore
SplineSet
101 494 m 1
 263 654 l 2
 270 660 278 664 288 664 c 0
 308 664 324 648 324 628 c 0
 324 616 319 607 307 600 c 2
 136 494 l 1
 101 494 l 1
EndSplineSet
Validated: 3073
EndChar

StartChar: micro
Encoding: 181 181 114
Width: 500
Flags: HMW
LayerCount: 2
Fore
SplineSet
73 18 m 0
 73 -31 75 -17 75 -66 c 0
 75 -153 47 -209 4 -209 c 0
 -19 -209 -30 -194 -30 -164 c 0
 -30 -84 16 -63 42 54 c 2
 127 428 l 1
 215 428 l 1
 148 144 l 1
 146 137 145 123 145 114 c 0
 145 72 172 45 214 45 c 0
 257 45 301 70 336 115 c 1
 409 428 l 1
 497 428 l 1
 419 92 l 1
 413 70 413 68 413 58 c 0
 413 40 422 30 439 30 c 0
 456 30 470 37 495 56 c 1
 490 42 447 -10 385 -10 c 0
 347 -10 328 10 328 49 c 0
 328 59 329 66 332 80 c 1
 279 18 231 -10 178 -10 c 0
 125 -10 94 14 75 66 c 1
 74 45 73 34 73 18 c 0
EndSplineSet
Validated: 3073
EndChar

StartChar: paragraph
Encoding: 182 182 115
Width: 523
Flags: HMW
LayerCount: 2
Fore
SplineSet
92 403 m 0
 92 500 132 653 359 653 c 2
 616 653 l 1
 610 632 l 1
 534 627 526 622 513 574 c 0
 357 -11 l 2
 354 -20 342 -61 342 -76 c 0
 342 -90 356 -96 391 -100 c 0
 394 -100 404 -101 414 -102 c 1
 409 -123 l 1
 261 -123 l 1
 461 632 l 1
 403 632 l 1
 203 -123 l 1
 55 -123 l 1
 60 -102 l 1
 106 -98 122 -95 134 -89 c 0
 156 -82 199 115 245 283 c 1
 112 288 92 354 92 403 c 0
334 632 m 1
 216 624 169 487 169 406 c 0
 169 349 197 310 255 304 c 1
 334 632 l 1
EndSplineSet
Validated: 3073
EndChar

StartChar: middot
Encoding: 183 183 116
Width: 250
Flags: HMW
LayerCount: 2
Fore
SplineSet
192 286 m 0
 217 286 240 262 240 237 c 0
 240 210 218 188 191 188 c 0
 164 188 142 210 142 238 c 0
 142 264 164 286 192 286 c 0
EndSplineSet
Validated: 3073
EndChar

StartChar: cedilla
Encoding: 184 184 117
Width: 250
Flags: HMW
LayerCount: 2
Fore
SplineSet
21 -96 m 1
 81 0 l 1
 119 0 l 1
 75 -66 l 1
 85 -64 92 -63 100 -63 c 0
 150 -63 182 -90 182 -131 c 0
 182 -181 132 -217 63 -217 c 0
 35 -217 12 -212 -30 -196 c 1
 -13 -167 l 1
 17 -178 34 -182 55 -182 c 0
 89 -182 108 -167 108 -141 c 0
 108 -115 89 -97 62 -97 c 0
 52 -97 44 -99 30 -104 c 1
 21 -96 l 1
EndSplineSet
Validated: 3073
EndChar

StartChar: onesuperior
Encoding: 185 185 118
Width: 250
Flags: HMW
LayerCount: 2
Fore
SplineSet
235 774 m 1
 335 790 338 796 360 796 c 2
 370 796 l 2
 372.818 796 375 793 375 791 c 0
 375 789 373.195 781.996 371 775 c 2
 285 501 l 2
 273 463 266 436 266 427 c 0
 266 412 273 408 311 407 c 1
 311 391 l 1
 130 391 l 1
 130 407 l 1
 177 412 190 417 195 432 c 2
 285 717 l 2
 289 729 290 734 290 738 c 0
 290 748.988 282.142 755.689 273.671 755.689 c 0
 272.12 755.689 270.548 755.464 269 755 c 2
 235 755 l 1
 235 774 l 1
EndSplineSet
Validated: 3073
EndChar

StartChar: ordmasculine
Encoding: 186 186 119
Width: 310
Flags: HMW
LayerCount: 2
Fore
SplineSet
272 355 m 1
 259 292 l 1
 39 292 l 1
 53 355 l 1
 272 355 l 1
265 676 m 0
 322 676 362 641 362 592 c 0
 362 500 262 406 164 406 c 0
 105 406 67 439 67 489 c 0
 67 584 164 676 265 676 c 0
289 607 m 0
 289 642 275 654 255 654 c 0
 201 654 140 559 140 476 c 0
 140 448 155 430 178 430 c 0
 241 430 289 541 289 607 c 0
EndSplineSet
Validated: 3073
EndChar

StartChar: questiondown
Encoding: 191 191 124
Width: 500
Flags: HMW
LayerCount: 2
Fore
SplineSet
252 -135 m 0
 252 -116 237 -102 237 -83 c 0
 237 -63 253 -48 277 -48 c 0
 301 -48 316 -66 316 -96 c 0
 316 -160 258 -205 175 -205 c 0
 86 -205 28 -154 28 -76 c 0
 28 65 238 101 277 256 c 2
 284 285 l 1
 301 283 l 1
 283 184 273 161 189 67 c 0
 125 -5 102 -46 102 -99 c 0
 102 -153 131 -183 182 -183 c 0
 225 -183 252 -165 252 -135 c 0
314 473 m 0
 344 473 367 450 367 421 c 0
 367 391 344 368 315 368 c 0
 286 368 262 392 262 421 c 0
 262 448 286 473 314 473 c 0
EndSplineSet
Validated: 3073
EndChar

StartChar: AE
Encoding: 198 198 131
Width: 877
Flags: HMW
LayerCount: 2
Fore
SplineSet
250 234 m 1
 226 203 125 88 125 47 c 0
 125 28 136 22 189 16 c 1
 189 0 l 1
 2 0 l 1
 2 16 l 1
 26 22 38 32 86 92 c 2
 455 557 l 2
 485 594 487 598 487 610 c 0
 487 626 476 634 449 636 c 0
 445 636 434 637 423 638 c 1
 423 653 l 1
 940 653 l 1
 907 500 l 1
 890 502 l 1
 891 515 891 532 891 538 c 0
 891 608 863 620 699 620 c 0
 652 620 644 615 635 583 c 2
 574 361 l 1
 733 362 743 367 785 458 c 1
 803 454 l 1
 734 222 l 1
 717 226 l 1
 721 250 723 264 723 278 c 0
 723 319 702 328 605 328 c 2
 565 328 l 1
 507 122 494 74 494 62 c 0
 494 42 510 33 545 33 c 2
 575 33 l 2
 725 33 779 60 855 169 c 1
 873 164 l 1
 809 0 l 1
 311 0 l 1
 311 16 l 1
 372 22 380 27 391 64 c 0
 440 234 l 1
 250 234 l 1
278 271 m 1
 451 271 l 1
 546 613 l 1
 278 271 l 1
EndSplineSet
Validated: 3073
EndChar

StartChar: Ccedilla
Encoding: 199 199 132
Width: 611
Flags: HMW
LayerCount: 2
Fore
SplineSet
451 666 m 0
 518 666 581 642 609 642 c 0
 629 642 639 648 647 664 c 1
 668 664 l 1
 631 465 l 1
 613 468 l 1
 603 576 552 630 460 630 c 0
 394 630 331 602 283 553 c 0
 205 472 157 351 157 232 c 0
 157 103 221 27 332 27 c 0
 414 27 472 57 562 145 c 1
 579 131 l 1
 489 26 409 -18 306 -18 c 0
 290 -18 274 -17 256 -14 c 1
 221 -66 l 1
 231 -64 238 -63 246 -63 c 0
 296 -63 328 -90 328 -131 c 0
 328 -181 278 -217 209 -217 c 0
 181 -217 158 -212 116 -196 c 1
 133 -167 l 1
 162 -178 180 -182 201 -182 c 0
 235 -182 254 -167 254 -141 c 0
 254 -115 235 -97 208 -97 c 0
 198 -97 190 -99 176 -104 c 1
 167 -96 l 1
 223 -6 l 1
 114 26 45 122 45 243 c 0
 45 465 238 666 451 666 c 0
EndSplineSet
Validated: 3073
EndChar

StartChar: Eth
Encoding: 208 208 141
Width: 702
Flags: HMW
LayerCount: 2
Fore
SplineSet
708 384 m 0
 708 168 526 0 253 0 c 2
 0 0 l 1
 0 16 l 1
 56 26 65 32 81 90 c 0
 146 326 l 1
 56 326 l 1
 68 368 l 1
 158 368 l 1
 204 532 l 2
 211 556 215 580 215 596 c 0
 215 623 201 631 138 637 c 1
 138 653 l 1
 416 653 l 2
 594 653 708 548 708 384 c 0
597 408 m 0
 597 493 565 623 385 623 c 0
 343 623 327 616 321 594 c 2
 258 368 l 1
 411 368 l 1
 399 326 l 1
 246 326 l 1
 200 162 l 2
 184 106 178 79 178 67 c 0
 178 41 197 30 243 30 c 0
 455 30 597 181 597 408 c 0
EndSplineSet
Validated: 3073
EndChar

StartChar: multiply
Encoding: 215 215 148
Width: 675
Flags: HMW
LayerCount: 2
Fore
SplineSet
289 253 m 1
 93 449 l 1
 141 497 l 1
 337 300 l 1
 534 497 l 1
 582 449 l 1
 385 253 l 1
 582 56 l 1
 534 8 l 1
 337 205 l 1
 141 8 l 1
 93 56 l 1
 289 253 l 1
EndSplineSet
Validated: 3073
EndChar

StartChar: Oslash
Encoding: 216 216 149
Width: 657
Flags: HMW
LayerCount: 2
Fore
SplineSet
37 222 m 0
 37 468 281 666 445 666 c 0
 482 666 513 660 550 644 c 1
 602 722 l 1
 646 722 l 1
 582 626 l 1
 615 600 676 548 676 431 c 0
 676 205 468 -18 258 -18 c 0
 227 -18 202 -12 164 3 c 1
 90 -105 l 1
 46 -105 l 1
 132 22 l 1
 66 70 37 132 37 222 c 0
441 633 m 0
 262 633 142 345 142 176 c 0
 142 138 149 108 167 74 c 1
 523 607 l 1
 498 625 474 633 441 633 c 0
547 574 m 1
 192 44 l 1
 214 23 238 15 272 15 c 0
 343 15 405 53 460 132 c 0
 522 222 571 373 571 475 c 0
 571 514 563 545 547 574 c 1
EndSplineSet
Validated: 3073
EndChar

StartChar: Thorn
Encoding: 222 222 155
Width: 537
Flags: HMW
LayerCount: 2
Fore
SplineSet
539 369 m 0
 539 287 484 170 265 170 c 0
 223 170 200 173 176 180 c 1
 159 120 l 2
 150 87 147 74 147 62 c 0
 147 28 152 25 215 16 c 1
 215 0 l 1
 -30 0 l 1
 -30 16 l 1
 27 24 35 30 52 90 c 0
 170 515 l 2
 183 561 187 581 187 595 c 0
 187 622 173 630 116 637 c 1
 116 653 l 1
 354 653 l 1
 354 637 l 1
 314 632 299 623 292 595 c 0
 272 518 l 1
 328 518 l 2
 464 518 539 465 539 369 c 0
436 368 m 0
 436 432 414 488 302 488 c 0
 274 488 262 480 256 459 c 2
 185 211 l 1
 215 206 220 206 237 206 c 0
 351 206 436 236 436 368 c 0
EndSplineSet
Validated: 3073
EndChar

StartChar: ssharp
Encoding: 223 223 156
Width: 569
Flags: HMW
LayerCount: 2
Fore
SplineSet
586 548 m 0
 586 482 551 432 423 384 c 1
 423 381 l 1
 535 367 547 274 547 244 c 0
 547 133 462 -13 334 -13 c 0
 286 -13 254 14 254 53 c 0
 254 81 272 100 298 100 c 0
 321 100 336 84 336 60 c 0
 336 40 324 30 324 22 c 0
 324 15 333 9 342 9 c 0
 436 9 460 221 460 262 c 0
 460 332 434 367 379 369 c 0
 359 370 353 374 353 384 c 0
 353 394 357 397 370 397 c 0
 451 397 506 470 506 577 c 0
 506 628 484 656 444 656 c 0
 386 656 337 582 299 438 c 0
 188 12 l 2
 152 -125 83 -207 3 -207 c 0
 -44 -207 -75 -182 -75 -145 c 0
 -75 -119 -60 -103 -36 -103 c 0
 -13 -103 4 -118 4 -139 c 0
 4 -157 -8 -167 -8 -175 c 0
 -8 -180 -1 -183 10 -183 c 0
 59 -183 86 -139 116 -4 c 0
 188 315 l 2
 246 571 323 679 447 679 c 0
 530 679 586 626 586 548 c 0
EndSplineSet
Validated: 3073
EndChar

StartChar: ae
Encoding: 230 230 163
Width: 634
Flags: HMW
LayerCount: 2
Fore
SplineSet
582 113 m 1
 592 101 l 1
 536 33 460 -11 397 -11 c 0
 334 -11 290 40 290 111 c 0
 290 125 292 135 296 151 c 1
 211 27 165 -11 101 -11 c 0
 52 -11 17 28 17 83 c 0
 17 241 173 441 297 441 c 0
 331 441 347 430 363 394 c 1
 382 437 l 1
 453 439 l 1
 431 377 l 1
 478 423 512 441 553 441 c 0
 603 441 634 414 634 371 c 0
 634 267 477 227 378 198 c 1
 372 170 370 159 370 137 c 0
 370 71 394 36 440 36 c 0
 483 36 523 57 582 113 c 1
344 370 m 0
 344 401 325 421 296 421 c 0
 212 421 103 222 103 92 c 0
 103 58 116 39 137 39 c 0
 228 39 344 244 344 370 c 0
384 223 m 1
 463 246 568 284 568 379 c 0
 568 403 556 416 533 416 c 0
 445 416 397 263 384 223 c 1
EndSplineSet
Validated: 3073
EndChar

StartChar: ccedilla
Encoding: 231 231 164
Width: 403
Flags: HMW
LayerCount: 2
Fore
SplineSet
310 420 m 0
 151 420 110 199 110 139 c 0
 110 68 144 25 201 25 c 0
 250 25 289 47 344 106 c 1
 360 96 l 1
 300 19 246 -11 170 -11 c 2
 162 -11 l 1
 125 -66 l 1
 135 -64 142 -63 150 -63 c 0
 200 -63 232 -90 232 -131 c 0
 232 -181 182 -217 113 -217 c 0
 85 -217 62 -212 20 -196 c 1
 37 -167 l 1
 66 -178 84 -182 105 -182 c 0
 139 -182 158 -167 158 -141 c 0
 158 -115 139 -97 112 -97 c 0
 102 -97 94 -99 80 -104 c 1
 71 -96 l 1
 127 -6 l 1
 60 10 24 60 24 139 c 0
 24 295 164 441 314 441 c 0
 374 441 419 406 419 360 c 0
 419 334 398 314 371 314 c 0
 347 314 332 328 332 352 c 0
 332 370 347 389 347 400 c 0
 347 412 332 420 310 420 c 0
EndSplineSet
Validated: 3073
EndChar

StartChar: eth
Encoding: 240 240 173
Width: 456
Flags: HMW
LayerCount: 2
Fore
SplineSet
322 567 m 1
 205 516 l 1
 172 545 l 1
 295 599 l 1
 260 632 234 649 192 666 c 1
 227 683 l 1
 272 673 309 655 349 622 c 1
 448 665 l 1
 480 637 l 1
 379 592 l 1
 440 519 465 452 465 359 c 0
 465 161 329 -11 172 -11 c 0
 81 -11 25 43 25 129 c 0
 25 280 171 441 308 441 c 0
 346 441 375 424 392 392 c 1
 394 393 l 1
 384 462 362 515 322 567 c 1
187 10 m 0
 299 10 382 208 382 326 c 0
 382 383 354 420 311 420 c 0
 205 420 109 229 109 101 c 0
 109 47 140 10 187 10 c 0
EndSplineSet
Validated: 3073
EndChar

StartChar: divide
Encoding: 247 247 180
Width: 675
Flags: HMW
LayerCount: 2
Fore
SplineSet
590 220 m 1
 86 220 l 1
 86 286 l 1
 590 286 l 1
 590 220 l 1
338 100 m 0
 368 100 394 74 394 43 c 0
 394 13 368 -11 336 -11 c 0
 308 -11 283 14 283 43 c 0
 283 74 308 100 338 100 c 0
338 517 m 0
 368 517 394 491 394 460 c 0
 394 431 368 406 337 406 c 0
 308 406 283 431 283 460 c 0
 283 491 308 517 338 517 c 0
EndSplineSet
Validated: 3073
EndChar

StartChar: oslash
Encoding: 248 248 181
Width: 474
Flags: HMW
LayerCount: 2
Fore
SplineSet
121 -4 m 1
 45 20 25 78 25 130 c 0
 25 283 175 441 320 441 c 0
 324 441 329 441 336 440 c 1
 391 554 l 1
 425 554 l 1
 367 435 l 1
 444 413 466 352 466 298 c 0
 466 165 327 -11 173 -11 c 0
 164 -11 159 -11 153 -9 c 1
 92 -135 l 1
 57 -135 l 1
 121 -4 l 1
315 420 m 0
 199 420 109 222 109 97 c 0
 109 70 118 48 137 29 c 1
 325 418 l 1
 320 419 317 420 315 420 c 0
186 10 m 0
 296 10 382 201 382 325 c 0
 382 360 373 385 354 406 c 1
 164 14 l 1
 172 11 177 10 186 10 c 0
EndSplineSet
Validated: 3073
EndChar

StartChar: thorn
Encoding: 254 254 187
Width: 471
Flags: HMW
LayerCount: 2
Fore
SplineSet
130 -190 m 1
 130 -205 l 1
 -75 -205 l 1
 -75 -189 l 1
 -32 -188 -20 -176 -8 -130 c 2
 179 573 l 2
 186 596 188 607 188 616 c 0
 188 638 182 641 123 643 c 1
 123 660 l 1
 190 668 226 674 275 683 c 1
 280 678 l 1
 216 433 199 366 189 335 c 1
 191 333 l 1
 237 406 290 441 353 441 c 0
 426 441 469 394 469 315 c 0
 469 157 315 -11 169 -11 c 0
 146 -11 128 -7 103 6 c 1
 84 -67 66 -146 66 -159 c 0
 66 -182 83 -190 130 -190 c 1
166 8 m 0
 286 8 379 190 379 312 c 0
 379 370 358 398 317 398 c 0
 263 398 209 353 182 284 c 0
 153 210 117 79 117 45 c 0
 117 23 137 8 166 8 c 0
EndSplineSet
Validated: 3073
EndChar

StartChar: Aogonek
Encoding: 260 260 193
Width: 611
Flags: HMW
AnchorPoint: "above" 382 659 basechar 0
LayerCount: 2
Fore
SplineSet
374 226 m 1
 154 226 l 1
 97 113 l 2
 80 79 77 70 77 51 c 0
 77 26 85 21 136 16 c 1
 136 0 l 1
 -51 0 l 1
 -51 16 l 1
 -11 24 0 34 78 168 c 0
 368 668 l 1
 394 668 l 1
 488 102 l 1
 501 29 507 21 564 16 c 1
 564 0 l 1
 553 -11 548 -27 548 -49 c 0
 548 -85 570 -106 607 -106 c 0
 638 -106 663 -96 690 -74 c 1
 707 -92 l 1
 672 -143 630 -169 582 -169 c 0
 530 -169 487 -126 487 -73 c 0
 487 -46 493 -30 515 0 c 1
 318 0 l 1
 318 16 l 1
 382 22 396 31 396 69 c 0
 396 77 395 86 394 95 c 0
 374 226 l 1
175 262 m 1
 369 262 l 1
 325 522 l 1
 175 262 l 1
EndSplineSet
Validated: 3073
EndChar

StartChar: aogonek
Encoding: 261 261 194
Width: 500
Flags: HMW
AnchorPoint: "above" 307 443 basechar 0
LayerCount: 2
Fore
SplineSet
384 41 m 0
 399 41 430 76 464 110 c 1
 476 100 l 1
 428 41 399 12 372 -4 c 0
 348 -17 341 -28 341 -52 c 0
 341 -85 364 -106 400 -106 c 0
 431 -106 456 -96 483 -74 c 1
 500 -92 l 1
 465 -143 423 -169 375 -169 c 0
 323 -169 280 -126 280 -74 c 0
 280 -48 288 -26 306 0 c 1
 299 8 297 15 297 31 c 0
 297 55 300 68 320 146 c 1
 232 22 189 -11 119 -11 c 0
 55 -11 17 30 17 100 c 0
 17 258 171 441 303 441 c 0
 346 441 375 420 383 383 c 1
 394 431 l 1
 397 434 l 1
 458 441 l 1
 465 438 l 1
 463 429 462 427 459 417 c 0
 412 245 370 74 370 54 c 0
 370 47 376 41 384 41 c 0
365 358 m 0
 365 395 341 419 304 419 c 0
 184 419 101 180 101 113 c 0
 101 67 124 38 159 38 c 0
 257 38 365 235 365 358 c 0
EndSplineSet
Validated: 3073
EndChar

StartChar: dcroat
Encoding: 273 273 206
Width: 500
Flags: HMW
LayerCount: 2
Fore
SplineSet
418 544 m 1
 252 544 l 1
 260 579 l 1
 428 579 l 1
 433 598 434 606 434 616 c 0
 434 638 427 641 372 643 c 1
 372 660 l 1
 436 666 472 672 525 683 c 1
 530 678 l 1
 504 579 l 1
 561 579 l 1
 553 544 l 1
 495 544 l 1
 460 407 458 398 431 306 c 0
 398 197 366 75 366 60 c 0
 366 49 374 40 384 40 c 0
 401 40 412 49 466 111 c 1
 478 101 l 1
 426 28 374 -13 332 -13 c 0
 307 -13 290 5 290 32 c 0
 290 55 292 70 303 121 c 1
 235 21 191 -11 123 -11 c 0
 58 -11 18 32 18 103 c 0
 18 253 180 441 310 441 c 0
 349 441 367 425 375 383 c 1
 418 544 l 1
314 418 m 0
 313 418 311 418 310 418 c 0
 282 418 248 400 221 372 c 0
 155 302 105 186 105 103 c 0
 105 64 129 37 163 37 c 0
 255 37 359 209 359 361 c 0
 359 397 344 416 314 418 c 0
EndSplineSet
Validated: 3073
EndChar

StartChar: Eogonek
Encoding: 280 280 213
Width: 611
Flags: HMW
AnchorPoint: "above" 402 659 basechar 0
LayerCount: 2
Fore
SplineSet
256 33 m 0
 445 33 484 78 552 170 c 1
 568 162 l 1
 506 0 l 2
 497 -23 492 -44 492 -56 c 0
 492 -85 517 -106 551 -106 c 0
 582 -106 607 -96 634 -74 c 1
 651 -92 l 1
 616 -143 574 -169 526 -169 c 0
 473 -169 431 -126 431 -72 c 0
 431 -45 438 -27 459 0 c 1
 -1 0 l 1
 -1 16 l 1
 55 26 64 33 80 90 c 0
 203 532 l 2
 208 550 214 585 214 596 c 0
 214 623 199 631 137 637 c 1
 137 653 l 1
 634 653 l 1
 603 500 l 1
 582 502 l 1
 583 519 584 534 584 547 c 0
 584 607 549 620 392 620 c 0
 336 620 325 616 319 594 c 2
 253 361 l 1
 288 362 320 363 332 363 c 0
 423 367 432 373 470 458 c 1
 488 454 l 1
 420 222 l 1
 400 227 l 1
 405 249 407 262 407 279 c 0
 407 312 394 325 330 325 c 2
 322 325 l 2
 310 325 279 326 244 328 c 1
 189 119 176 113 176 67 c 0
 176 43 200 33 256 33 c 0
EndSplineSet
Validated: 3073
EndChar

StartChar: eogonek
Encoding: 281 281 214
Width: 406
Flags: HMW
AnchorPoint: "above" 330 443 basechar 0
LayerCount: 2
Fore
SplineSet
363 97 m 1
 317 42 278 12 278 -53 c 0
 278 -85 302 -106 337 -106 c 0
 368 -106 393 -96 420 -74 c 1
 437 -92 l 1
 402 -143 360 -169 312 -169 c 0
 260 -169 217 -126 217 -75 c 0
 217 -42 228 -16 255 14 c 1
 219 -4 191 -11 157 -11 c 0
 78 -11 24 45 24 126 c 0
 24 276 181 441 325 441 c 0
 375 441 405 415 405 373 c 0
 405 287 299 211 149 190 c 2
 121 186 l 1
 113 154 111 139 111 124 c 0
 111 70 148 34 205 34 c 0
 248 34 279 50 351 109 c 1
 363 97 l 1
128 208 m 1
 317 254 339 342 339 379 c 0
 339 402 325 418 304 418 c 0
 253 418 179 341 145 252 c 2
 128 208 l 1
EndSplineSet
Validated: 3073
EndChar

StartChar: Hbar
Encoding: 294 294 227
Width: 722
Flags: HMW
LayerCount: 2
Fore
SplineSet
575.575 526 m 1
 290.575 526 l 1
 248 368 l 1
 533 368 l 1
 575.575 526 l 1
194 526 m 1
 95 526 l 1
 105 561 l 1
 202.446 561 l 1
 205.172 574.345 207 586.477 207 594 c 0
 207 623 192 631 130 637 c 1
 130 653 l 1
 403 653 l 1
 403 637 l 1
 315.062 631.137 311 595 300 561 c 1
 585 561 l 1
 589 574 590 580 590 594 c 0
 590 622 578 630 520 637 c 1
 520 653 l 1
 767 653 l 1
 767 637 l 1
 711.188 627.208 700.806 620.6 684.451 561 c 1
 766 561 l 1
 756 526 l 1
 674.846 526 l 1
 553 82 l 2
 551 74 550 68 550 58 c 0
 550 30 564 22 628 16 c 1
 628 0 l 1
 355 0 l 1
 355 16 l 1
 420 23 441.7 38.0816 456 90 c 2
 521 326 l 1
 236 326 l 1
 170 82 l 2
 168 75 167 67 167 60 c 0
 167 31 178 24 238 16 c 1
 238 0 l 1
 -8 0 l 1
 -8 16 l 1
 48 26 56.6526 31.0953 73 90 c 2
 194 526 l 1
EndSplineSet
Validated: 3073
EndChar

StartChar: hbar
Encoding: 295 295 228
Width: 500
Flags: HMW
LayerCount: 2
Fore
SplineSet
146 643 m 0
 138 643 124.333 642.333 111 641 c 1
 111 656 l 1
 171 663 210 670 268 683 c 1
 273 678 l 1
 243.804 569 l 1
 446 569 l 1
 436 534 l 1
 234.429 534 l 1
 153 230 l 1
 246 375 317 441 382 441 c 0
 421 441 448 414 448 374 c 0
 448 316 367 92 367 56 c 0
 367 47 374 38 383 38 c 0
 399 38 411 49 465 117 c 1
 478 105 l 1
 418 18 383 -9 332 -9 c 0
 305 -9 288 7 288 33 c 0
 288 45 295 76 308 125 c 2
 363 332 l 2
 367 348 370 361 370 365 c 0
 370 378 357 390 342 390 c 0
 307 390 239 328 187 249 c 0
 147 188 134 154 94 0 c 1
 19 0 l 1
 160.109 534 l 1
 78 534 l 1
 88 569 l 1
 169.358 569 l 1
 172 579 l 2
 176 595 178 608 178 617 c 0
 178 629 160 643 146 643 c 0
EndSplineSet
Validated: 3073
EndChar

StartChar: Iogonek
Encoding: 302 302 235
Width: 343
Flags: HMW
AnchorPoint: "above" 280 659 basechar 0
LayerCount: 2
Fore
SplineSet
145 653 m 1
 392 653 l 1
 392 637 l 1
 335 627 326 622 310 563 c 0
 187 120 l 2
 178 88 176 76 176 57 c 0
 176 29 187 23 244 16 c 1
 244 0 l 1
 233 -14 228 -29 228 -49 c 0
 228 -85 250 -106 287 -106 c 0
 318 -106 343 -96 370 -74 c 1
 387 -92 l 1
 352 -143 310 -169 262 -169 c 0
 210 -169 167 -126 167 -73 c 0
 167 -46 173 -31 194 0 c 1
 0 0 l 1
 0 16 l 1
 56 26 65 31 81 90 c 0
 204 532 l 2
 211 557 215 580 215 594 c 0
 215 622 203 630 145 637 c 1
 145 653 l 1
EndSplineSet
Validated: 3073
EndChar

StartChar: iogonek
Encoding: 303 303 236
Width: 278
Flags: HMW
AnchorPoint: "above" 222 659 basechar 0
LayerCount: 2
Fore
SplineSet
140 36 m 0
 157 36 184 64 222 114 c 1
 235 103 l 1
 149 -27 119 9 119 -50 c 0
 119 -85 141 -106 178 -106 c 0
 209 -106 234 -96 261 -74 c 1
 278 -92 l 1
 243 -144 201 -169 153 -169 c 0
 100 -169 58 -126 58 -72 c 0
 58 -48 63 -32 80 -9 c 1
 58 -1 49 15 49 46 c 0
 49 66 55 97 71 155 c 2
 119 332 l 1
 125 352 128 368 128 376 c 0
 128 396 118 399 65 400 c 1
 65 416 l 1
 104 419 124 422 225 441 c 1
 228 439 l 1
 140 117 l 1
 139 115 l 1
 139 113 l 1
 137 105 134 98 134 95 c 0
 127 76 124 61 124 51 c 0
 124 44 132 36 140 36 c 0
214 654 m 0
 241 654 264 628 264 599 c 0
 264 571 241 548 215 548 c 0
 186 548 167 569 167 601 c 0
 167 631 187 654 214 654 c 0
EndSplineSet
Validated: 3073
MultipleSubs2: "Glyph Decomposition of iogonek-subtable" dotlessi ogonekcmb
EndChar

StartChar: dotlessi
Encoding: 305 305 238
Width: 278
Flags: HMW
AnchorPoint: "below" 95 0 basechar 0
AnchorPoint: "ogonek" 102 0 basechar 0
AnchorPoint: "above" 189 443 basechar 0
LayerCount: 2
Fore
SplineSet
140 36 m 0
 157 36 184 64 222 114 c 1
 235 103 l 1
 178 19 141 -11 95 -11 c 0
 65 -11 49 9 49 46 c 0
 49 66 55 97 71 155 c 2
 119 332 l 2
 125 352 128 368 128 376 c 0
 128 396 118 399 65 400 c 1
 65 416 l 1
 104 419 124 422 225 441 c 1
 228 439 l 1
 140 117 l 26
 133 91 124 63 124 51 c 0
 124 44 132 36 140 36 c 0
EndSplineSet
Validated: 3073
EndChar

StartChar: ij
Encoding: 307 307 240
Width: 452
Flags: HMW
LayerCount: 2
Fore
SplineSet
190 652 m 0
 215 652 238 628 238 603 c 0
 238 576 216 554 189 554 c 0
 162 554 140 576 140 604 c 0
 140 630 162 652 190 652 c 0
440 652 m 0
 465 652 488 628 488 603 c 0
 488 576 466 554 439 554 c 0
 412 554 390 576 390 604 c 0
 390 630 412 652 440 652 c 0
463 439 m 1
 359 28 l 2
 335 -66 290 -207 171 -207 c 0
 131 -207 93 -187 93 -143 c 0
 93 -122 114 -104 134 -104 c 0
 154 -104 174 -119 174 -140 c 0
 174 -159 161 -162 161 -173 c 0
 161 -184 174 -184 181 -184 c 0
 238 -184 266 -45 276 -3 c 0
 339 250 l 1
 292 173 196 -11 93 -11 c 0
 53 -11 38 9 38 48 c 0
 38 128 114 302 114 371 c 0
 114 397 93 400 72 400 c 0
 54 400 l 1
 54 414 l 1
 104 420 155 429 204 441 c 1
 207 439 l 1
 197 399 115 86 115 67 c 0
 115 53 122 42 137 42 c 0
 203 42 365 310 365 378 c 0
 365 397 337 401 315 401 c 0
 305 401 295 400 290 400 c 1
 290 416 l 1
 347 419 404 431 460 441 c 1
 463 439 l 1
EndSplineSet
Validated: 3073
Ligature2: "'liga' Standard Ligatures in Latin for Dutch" i j
LCarets2: 1 0 
EndChar

StartChar: kgreenlandic
Encoding: 312 312 245
Width: 454
Flags: HMW
LayerCount: 2
Fore
SplineSet
466 412 m 1
 397 409 290 301 241 258 c 1
 252 231 321 41 358 41 c 0
 386 41 407 89 419 109 c 1
 434 98 l 1
 412 56 378 -11 323 -11 c 0
 264 -11 201 162 184 212 c 1
 142 180 l 1
 94 0 l 1
 19 0 l 1
 104 324 l 2
 109 341 119 369 119 387 c 0
 119 408.987 88.7852 412.476 66.6074 412.476 c 0
 60.543 412.476 55.0801 412.215 51 412 c 1
 51 428 l 1
 103 434 156 443 207 455 c 1
 212 450 l 1
 153 225 l 1
 155 223 l 1
 186 247 338 360 338 393 c 0
 338 410.286 312.689 412.138 295.05 412.138 c 0
 290.24 412.138 286 412 283 412 c 1
 283 428 l 1
 466 428 l 1
 466 412 l 1
EndSplineSet
Validated: 3073
EndChar

StartChar: Lslash
Encoding: 321 321 254
Width: 564
Flags: HMW
LayerCount: 2
Fore
SplineSet
281 36 m 0
 437 36 485 57 547 185 c 1
 567 179 l 1
 509 0 l 1
 0 0 l 1
 0 16 l 1
 56 26 65 31 81 90 c 0
 135 284 l 1
 36 225 l 1
 49 273 l 1
 148 332 l 1
 204 532 l 2
 211 557 215 580 215 594 c 0
 215 623 200 631 138 637 c 1
 138 653 l 1
 411 653 l 1
 411 637 l 1
 351 633 324 614 310 563 c 0
 261 388 l 1
 404 473 l 1
 390 424 l 1
 248 341 l 1
 214 218 l 1
 187 125 176 80 176 70 c 0
 176 44 202 36 281 36 c 0
EndSplineSet
Validated: 3073
EndChar

StartChar: lslash
Encoding: 322 322 255
Width: 278
Flags: HMW
LayerCount: 2
Fore
SplineSet
133 32 m 0
 166 32 210 101 228 123 c 1
 241 114 l 1
 176 18 142 -11 90 -11 c 0
 58 -11 41 8 41 45 c 0
 41 84 84 220 109 314 c 1
 37 278 l 1
 49 324 l 1
 121 360 l 1
 165 525 186 608 186 616 c 0
 186 633 167 640 118 640 c 1
 118 656 l 1
 177 663 215 670 274 683 c 1
 279 678 l 1
 209 410 l 1
 307 460 l 1
 295 414 l 1
 197 364 l 1
 128 99 l 1
 128 97 l 1
 127 96 126 93 126 89 c 0
 121 70 118 57 118 50 c 0
 118 38 123 32 133 32 c 0
EndSplineSet
Validated: 3073
EndChar

StartChar: Eng
Encoding: 330 330 263
Width: 696
Flags: HMW
LayerCount: 2
Fore
SplineSet
437 24 m 0
 558 24 631 383 631 489 c 0
 631 596 608 618 559 618 c 0
 511 618 396 581 298 465 c 1
 196 98 l 2
 192 85 190 74 190 65 c 0
 190 36 210 24 265 19 c 1
 265 0 l 1
 174 0 83 0 -8 0 c 1
 -8 19 l 1
 69 25 84 48 107 131 c 2
 208 493 l 2
 214 515 215 533 215 546 c 0
 215 577 201 587 172 587 c 0
 156 587 140 585 130 581 c 1
 130 606 l 1
 217 629 261 642 340 669 c 1
 350 666 l 1
 306 510 l 1
 415 636 519 667 586 667 c 0
 665 667 738 647 738 513 c 0
 738 386 656 -18 397 -18 c 0
 347 -18 316 9 316 42 c 0
 316 77 349 108 381 108 c 0
 442 108 401 24 437 24 c 0
EndSplineSet
Validated: 3073
Substitution2: "'locl' Localized Forms for Sami-1" Engsami
EndChar

StartChar: eng
Encoding: 331 331 264
Width: 500
Flags: HMW
AnchorPoint: "above" 316 443 basechar 0
AnchorPoint: "middle" 244 233 basechar 0
AnchorPoint: "topright" 370 442 basechar 0
LayerCount: 2
Fore
SplineSet
433 323 m 2
 352 28 l 2
 305.1 -142.81 252 -207 165 -207 c 0
 119 -207 86 -181 86 -146 c 0
 86 -122 103 -104 126 -104 c 0
 149 -104 167 -120 167 -141 c 0
 167 -160 154 -162 154 -173 c 0
 154 -180 160 -184 172 -184 c 0
 212 -184 233.596 -133.724 269 -3 c 2
 347 285 l 2
 355.206 315.298 361 349 361 361 c 0
 361 379 352 390 337 390 c 0
 300 390 249 340 189 248 c 0
 145 180 136 158 89 0 c 1
 14 0 l 1
 110 350 l 2
 111 355 112 361 112 367 c 0
 112 387 99 393 48 394 c 1
 48 410 l 1
 135 426 156 430 210 441 c 1
 213 439 l 1
 146 221 l 1
 249 381 312 441 376 441 c 0
 415 441 442 416 442 380 c 0
 442 366 438.824 344.049 433 323 c 2
EndSplineSet
Validated: 3073
EndChar

StartChar: OE
Encoding: 338 338 271
Width: 891
Flags: HMW
LayerCount: 2
Fore
SplineSet
431 666 m 0
 483 666 553 653 583 653 c 2
 952 653 l 1
 921 503 l 1
 905 503 l 1
 905 594 897 620 785 620 c 2
 689 620 l 2
 668 620 659 612 652 588 c 2
 588 361 l 1
 600 361 l 2
 747 361 757 366 798 456 c 1
 816 452 l 1
 750 222 l 1
 730 224 l 1
 733 246 736 249 736 266 c 0
 736 313 720 322 641 325 c 2
 579 328 l 1
 527 138 l 2
 527 136 512 88 512 69 c 0
 512 42 530 33 587 33 c 0
 732 33 791 62 871 172 c 1
 887 166 l 1
 822 0 l 1
 476 0 l 2
 394 0 327 -8 264 -8 c 0
 134 -8 37 92 37 225 c 0
 37 457 224 666 431 666 c 0
436 634 m 0
 261 634 145 388 145 202 c 0
 145 84 194 24 289 24 c 0
 383 24 412 77 446 199 c 2
 519 467 l 2
 539 540 539 540 539 555 c 0
 539 601 496 634 436 634 c 0
EndSplineSet
Validated: 3073
EndChar

StartChar: oe
Encoding: 339 339 272
Width: 653
Flags: HMW
LayerCount: 2
Fore
SplineSet
598 105 m 1
 609 94 l 1
 535 20 475 -12 412 -12 c 0
 367 -12 332 11 308 56 c 1
 257 6 221 -11 170 -11 c 0
 86 -11 25 51 25 135 c 0
 25 279 170 441 299 441 c 0
 352 441 394 411 411 361 c 1
 479 423 516 441 570 441 c 0
 621 441 651 415 651 373 c 0
 651 265 474 208 424 203 c 0
 400 201 392 197 388 185 c 0
 383 169 378 135 378 114 c 0
 378 65 409 30 453 30 c 0
 491 30 520 45 598 105 c 1
175 9 m 0
 293 9 348 293 348 352 c 0
 348 392 325 418 289 418 c 0
 194 418 108 229 108 100 c 0
 108 44 134 9 175 9 c 0
397 215 m 1
 479 241 490 245 516 264 c 0
 559 296 585 339 585 377 c 0
 585 401 572 416 551 416 c 0
 528 416 453 397 397 215 c 1
EndSplineSet
Validated: 3073
EndChar

StartChar: Scedilla
Encoding: 350 350 283
Width: 464
Flags: HMW
LayerCount: 2
Fore
SplineSet
302 666 m 0
 373 666 404 641 433 641 c 0
 455 641 464 646 478 667 c 1
 501 667 l 1
 461 468 l 1
 443 471 l 1
 440 561 422 633 322 633 c 0
 254 633 212 594 212 531 c 0
 212 482 221 468 311 377 c 0
 401 286 424 247 424 182 c 0
 424 68 337 -18 222 -18 c 0
 211 -18 203 -17 186 -15 c 1
 152 -66 l 1
 162 -64 168 -63 177 -63 c 0
 227 -63 259 -90 259 -131 c 0
 259 -181 209 -217 140 -217 c 0
 111 -217 89 -212 47 -196 c 1
 64 -167 l 1
 93 -178 111 -182 132 -182 c 0
 166 -182 185 -167 185 -141 c 0
 185 -115 165 -97 139 -97 c 0
 128 -97 120 -99 107 -104 c 1
 98 -96 l 1
 153 -7 l 1
 108 8 84 18 66 18 c 0
 46 18 35 8 28 -15 c 1
 10 -15 l 1
 44 208 l 1
 64 206 l 1
 63 199 62 191 62 183 c 0
 62 88 125 17 208 17 c 0
 281 17 337 75 337 150 c 0
 337 281 124 350 124 499 c 0
 124 597 198 666 302 666 c 0
EndSplineSet
Validated: 3073
EndChar

StartChar: scedilla
Encoding: 351 351 284
Width: 345
Flags: HMW
LayerCount: 2
Fore
SplineSet
166 364 m 0
 166 290 288 215 288 119 c 0
 288 43 228 -11 143 -11 c 0
 138 -11 133 -11 125 -10 c 1
 87 -66 l 1
 97 -64 104 -63 112 -63 c 0
 162 -63 194 -90 194 -131 c 0
 194 -181 144 -217 75 -217 c 0
 47 -217 24 -212 -18 -196 c 1
 -1 -167 l 1
 29 -178 46 -182 67 -182 c 0
 101 -182 120 -167 120 -141 c 0
 120 -115 101 -97 74 -97 c 0
 64 -97 56 -99 42 -104 c 1
 33 -96 l 1
 92 -2 l 1
 62 6 53 8 40 8 c 0
 30 8 24 3 16 -13 c 1
 0 -13 l 1
 20 146 l 1
 36 146 l 1
 52 51 83 10 138 10 c 0
 182 10 212 42 212 87 c 0
 212 175 93 236 93 331 c 0
 93 398 141 441 214 441 c 0
 251 441 284 424 306 424 c 0
 320 424 328 428 336 442 c 1
 350 442 l 1
 330 303 l 1
 314 303 l 1
 304 381 274 418 222 418 c 0
 187 418 166 397 166 364 c 0
EndSplineSet
Validated: 3073
EndChar

StartChar: Tcedilla
Encoding: 354 354 287
Width: 556
Flags: HMW
LayerCount: 2
Fore
SplineSet
189 0 m 1
 65 0 l 1
 65 16 l 1
 131 21 155 37 171 90 c 1
 315 618 l 1
 294 618 l 0
 159 618 127 598 77 495 c 1
 59 499 l 1
 101 653 l 1
 633 653 l 1
 589 490 l 1
 572 492 l 1
 574 509 575 524 575 537 c 0
 575 593 543 618 471 618 c 2
 416 618 l 1
 277 120 l 0
 268 86 265 74 265 61 c 0
 265 31 277 22 317 19 c 0
 323 19 338 17 355 16 c 1
 355 0 l 1
 227 0 l 1
 183 -66 l 1
 193 -64 200 -63 208 -63 c 0
 258 -63 290 -90 290 -131 c 0
 290 -181 240 -217 171 -217 c 0
 143 -217 120 -212 78 -196 c 1
 95 -167 l 1
 125 -178 142 -182 163 -182 c 0
 197 -182 216 -167 216 -141 c 0
 216 -115 197 -97 170 -97 c 0
 160 -97 152 -99 138 -104 c 1
 129 -96 l 1
 189 0 l 1
EndSplineSet
Validated: 3073
EndChar

StartChar: tcedilla
Encoding: 355 355 288
Width: 238
Flags: HMW
LayerCount: 2
Fore
SplineSet
94 -10 m 1
 50 -77 l 1
 60 -75 67 -74 75 -74 c 0
 125 -74 157 -101 157 -142 c 0
 157 -192 107 -228 38 -228 c 0
 10 -228 -13 -223 -55 -207 c 1
 -38 -178 l 1
 -8 -189 9 -193 30 -193 c 0
 64 -193 83 -178 83 -152 c 0
 83 -126 64 -108 37 -108 c 0
 27 -108 19 -110 5 -115 c 1
 -4 -107 l 1
 58 -9 l 1
 39 -4 26 10 26 27 c 0
 26 46 46 107 49 121 c 2
 121 396 l 1
 47 396 l 1
 46 399 46 401 46 402 c 0
 46 413 53 419 78 427 c 0
 147 446 209 546 226 546 c 0
 231 546 234 543 234 536 c 0
 234 535 234 533 233 531 c 1
 205 428 l 1
 285 428 l 1
 280 396 l 1
 196 396 l 1
 108 63 l 2
 107 60 107 59 107 58 c 0
 107 46 113 38 122 38 c 0
 138 38 154 54 203 117 c 1
 216 110 l 1
 163 32 130 -1 94 -10 c 1
EndSplineSet
Validated: 3073
EndChar

StartChar: Tbar
Encoding: 358 358 291
Width: 556
Flags: HMW
LayerCount: 2
Fore
SplineSet
101 653 m 1
 633 653 l 1
 589 490 l 1
 572 492 l 1
 574 509 575 524 575 537 c 0
 575 593 543 618 471 618 c 2
 416 618 l 1
 345 362 l 1
 443 362 l 1
 432 311 l 1
 330 311 l 1
 277 120 l 2
 268 86 265 74 265 61 c 0
 265 31 277 22 317 19 c 0
 323 19 338 17 355 16 c 1
 355 0 l 1
 65 0 l 1
 65 16 l 1
 131 21 157 37 171 90 c 0
 231 311 l 1
 131 311 l 1
 142 362 l 1
 245 362 l 1
 315 618 l 1
 294 618 l 2
 159 618 127 598 77 495 c 1
 59 499 l 1
 101 653 l 1
EndSplineSet
Validated: 3073
EndChar

StartChar: tbar
Encoding: 359 359 292
Width: 248
Flags: HMW
LayerCount: 2
Fore
SplineSet
216 428 m 1
 296 428 l 1
 291 396 l 1
 207 396 l 1
 179 290 l 1
 270 290 l 1
 258 239 l 1
 166 239 l 1
 119 63 l 2
 118 60 118 59 118 58 c 0
 118 46 124 38 133 38 c 0
 149 38 165 54 214 117 c 1
 227 110 l 1
 164 17 131 -11 85 -11 c 0
 58 -11 37 5 37 27 c 0
 37 46 57 108 60 121 c 2
 91 239 l 1
 13 239 l 1
 25 290 l 1
 104 290 l 1
 132 396 l 1
 58 396 l 1
 57 399 57 401 57 402 c 0
 57 434 127 413 222 537 c 0
 228 545 231 546 237 546 c 0
 242 546 245 543 245 536 c 0
 245 535 245 533 244 531 c 1
 216 428 l 1
EndSplineSet
Validated: 3073
EndChar

StartChar: Uogonek
Encoding: 370 370 303
Width: 698
Flags: HMW
AnchorPoint: "above" 487 659 basechar 0
LayerCount: 2
Fore
SplineSet
637 591 m 0
 637 626 609 633 566 637 c 1
 566 653 l 1
 765 653 l 1
 765 637 l 1
 703 623 699 618 661 488 c 2
 578 203 l 2
 543 88 469 8 469 -52 c 0
 469 -85 492 -106 528 -106 c 0
 559 -106 584 -96 611 -74 c 1
 628 -92 l 1
 593 -143 551 -169 503 -169 c 0
 451 -169 408 -126 408 -75 c 0
 408 -44 418 -19 443 10 c 1
 404 -10 366 -18 319 -18 c 0
 194 -18 102 51 102 147 c 0
 102 187 115 251 145 359 c 2
 198 551 l 1
 202 568 205 584 205 596 c 0
 205 625 194 631 127 637 c 1
 127 653 l 1
 400 653 l 1
 400 637 l 1
 307 627 307 585 290 527 c 0
 223 296 192 175 192 141 c 0
 192 71 249 23 332 23 c 0
 514 23 544 242 563 304 c 0
 611 473 637 575 637 591 c 0
EndSplineSet
Validated: 3073
EndChar

StartChar: uogonek
Encoding: 371 371 304
Width: 484
Flags: HMW
AnchorPoint: "above" 293 443 basechar 0
LayerCount: 2
Fore
SplineSet
107 376 m 0
 107 396 88 400 47 400 c 1
 47 414 l 1
 104 421 140 428 197 441 c 1
 200 439 l 1
 109 76 l 2
 108 73 108 71 108 67 c 0
 108 52 117 42 129 42 c 0
 161 42 210 93 270 188 c 0
 316 261 323 277 380 432 c 1
 454 432 l 1
 375 133 l 2
 356 61 356 61 356 55 c 0
 356 44 360 38 367 38 c 0
 383 38 398 52 450 117 c 1
 464 108 l 1
 414 37 396 16 369 1 c 0
 336 -17 330 -26 330 -51 c 0
 330 -85 353 -106 389 -106 c 0
 420 -106 445 -96 472 -74 c 1
 489 -92 l 1
 454 -144 412 -169 364 -169 c 0
 312 -169 269 -126 269 -74 c 0
 269 -48 277 -26 295 -1 c 1
 284 8 278 22 278 39 c 0
 278 60 294 129 323 236 c 1
 208 43 155 -11 84 -11 c 0
 49 -11 31 8 31 44 c 0
 31 62 38 96 56 167 c 0
 93 309 l 2
 102 343 107 368 107 376 c 0
EndSplineSet
Validated: 3073
EndChar

StartChar: longs
Encoding: 383 383 316
Width: 464
Flags: HMW
LayerCount: 2
Fore
SplineSet
-1 -143 m 0
 -1 -158 -10 -160 -10 -170 c 0
 -10 -179 -2 -186 10 -186 c 0
 52 -186 85 -131 107 -24 c 0
 195 396 l 1
 105 396 l 1
 112 428 l 1
 204 428 l 1
 237 535 286 678 408 678 c 0
 457 678 494 650 494 613 c 0
 494 591 475 573 452 573 c 0
 430 573 415 589 415 613 c 0
 415 628 425 637 425 644 c 0
 425 651 416 656 403 656 c 0
 347 656 316 584 281 428 c 0
 202 76 l 2
 161 -108 91 -207 2 -207 c 0
 -42 -207 -77 -180 -77 -146 c 0
 -77 -123 -61 -105 -40 -105 c 0
 -19 -105 -1 -122 -1 -143 c 0
EndSplineSet
Validated: 3073
Substitution2: "'fina' Terminal Forms in Latin subtable" s
EndChar

StartChar: clickalveolar
Encoding: 450 450 317
Width: 600
Flags: HMW
LayerCount: 2
Fore
SplineSet
635 468 m 1
 622 418 l 1
 394 418 l 1
 358 272 l 1
 586 272 l 1
 573 222 l 1
 345 222 l 1
 286 -16 l 1
 236 -16 l 1
 295 222 l 1
 67 222 l 1
 80 272 l 1
 308 272 l 1
 344 418 l 1
 116 418 l 1
 129 468 l 1
 357 468 l 1
 416 706 l 1
 466 706 l 1
 407 468 l 1
 635 468 l 1
EndSplineSet
Validated: 3073
EndChar

StartChar: Udieresisacute
Encoding: 471 471 328
Width: 698
Flags: HMW
LayerCount: 2
Fore
SplineSet
354 714 m 0
 379 714 402 690 402 665 c 0
 402 638 380 616 353 616 c 0
 326 616 304 638 304 666 c 0
 304 692 326 714 354 714 c 0
554 714 m 0
 579 714 602 690 602 665 c 0
 602 638 580 616 553 616 c 0
 526 616 504 638 504 666 c 0
 504 692 526 714 554 714 c 0
612 502.35 m 0
 612 532.1 584 538.05 541 541.45 c 1
 541 555.05 l 1
 740 555.05 l 1
 740 541.45 l 1
 678 529.55 674 525.3 636 414.8 c 2
 553 172.55 l 2
 509 45.0498 426 -15.2998 295 -15.2998 c 0
 169 -15.2998 77 43.3496 77 124.95 c 0
 77 158.95 90 213.35 120 305.15 c 2
 173 468.35 l 2
 177 482.8 180 496.4 180 506.6 c 0
 180 531.25 169 536.35 102 541.45 c 1
 102 555.05 l 1
 375 555.05 l 1
 375 541.45 l 1
 282 532.95 282 497.25 265 447.95 c 0
 198 251.6 167 148.75 167 119.85 c 0
 167 60.3496 224 19.5498 307 19.5498 c 0
 489 19.5498 519 205.7 538 258.4 c 0
 586 402.05 612 488.75 612 502.35 c 0
407 730 m 1
 569 890 l 2
 576 896 584 900 594 900 c 0
 614 900 630 884 630 864 c 0
 630 852 625 843 613 836 c 2
 442 730 l 1
 407 730 l 1
EndSplineSet
Validated: 3073
EndChar

StartChar: Udieresiscaron
Encoding: 473 473 330
Width: 698
Flags: HMW
LayerCount: 2
Fore
SplineSet
354 714 m 0
 379 714 402 690 402 665 c 0
 402 638 380 616 353 616 c 0
 326 616 304 638 304 666 c 0
 304 692 326 714 354 714 c 0
554 714 m 0
 579 714 602 690 602 665 c 0
 602 638 580 616 553 616 c 0
 526 616 504 638 504 666 c 0
 504 692 526 714 554 714 c 0
612 502.35 m 0
 612 532.1 584 538.05 541 541.45 c 1
 541 555.05 l 1
 740 555.05 l 1
 740 541.45 l 1
 678 529.55 674 525.3 636 414.8 c 2
 553 172.55 l 2
 509 45.0498 426 -15.2998 295 -15.2998 c 0
 169 -15.2998 77 43.3496 77 124.95 c 0
 77 158.95 90 213.35 120 305.15 c 2
 173 468.35 l 2
 177 482.8 180 496.4 180 506.6 c 0
 180 531.25 169 536.35 102 541.45 c 1
 102 555.05 l 1
 375 555.05 l 1
 375 541.45 l 1
 282 532.95 282 497.25 265 447.95 c 0
 198 251.6 167 148.75 167 119.85 c 0
 167 60.3496 224 19.5498 307 19.5498 c 0
 489 19.5498 519 205.7 538 258.4 c 0
 586 402.05 612 488.75 612 502.35 c 0
644.263 900 m 1
 483.767 733 l 1
 421.767 733 l 1
 333.263 900 l 1
 367.263 900 l 1
 466.37 797 l 1
 610.263 900 l 1
 644.263 900 l 1
EndSplineSet
Validated: 3073
EndChar

StartChar: Udieresisgrave
Encoding: 475 475 332
Width: 698
Flags: HMW
LayerCount: 2
Fore
SplineSet
499.484 729 m 1
 459.484 729 l 1
 346.719 826 l 2
 340.374 831.904 332.693 841.076 332.693 853.918 c 0
 332.693 858.477 333.661 863.498 336 869 c 0
 336.85 871 350.178 900 381.178 900 c 0
 384.178 900 l 0
 398.178 900 402.752 899 415.4 877 c 2
 499.484 729 l 1
357 709 m 0
 382 709 405 685 405 660 c 0
 405 633 383 611 356 611 c 0
 329 611 307 633 307 661 c 0
 307 687 329 709 357 709 c 0
557 709 m 0
 582 709 605 685 605 660 c 0
 605 633 583 611 556 611 c 0
 529 611 507 633 507 661 c 0
 507 687 529 709 557 709 c 0
612 502.35 m 0
 612 532.1 584 538.05 541 541.45 c 1
 541 555.05 l 1
 740 555.05 l 1
 740 541.45 l 1
 678 529.55 674 525.3 636 414.8 c 2
 553 172.55 l 2
 509 45.0498 426 -15.2998 295 -15.2998 c 0
 169 -15.2998 77 43.3496 77 124.95 c 0
 77 158.95 90 213.35 120 305.15 c 2
 173 468.35 l 2
 177 482.8 180 496.4 180 506.6 c 0
 180 531.25 169 536.35 102 541.45 c 1
 102 555.05 l 1
 375 555.05 l 1
 375 541.45 l 1
 282 532.95 282 497.25 265 447.95 c 0
 198 251.6 167 148.75 167 119.85 c 0
 167 60.3496 224 19.5498 307 19.5498 c 0
 489 19.5498 519 205.7 538 258.4 c 0
 586 402.05 612 488.75 612 502.35 c 0
EndSplineSet
Validated: 3073
EndChar

StartChar: Gbar
Encoding: 484 484 339
Width: 712
Flags: HMW
LayerCount: 2
Fore
SplineSet
712 303 m 1
 626 298 623 269 605 191 c 1
 696 191 l 1
 683 147 l 1
 593 147 l 1
 566 44 l 1
 502 4 411 -18 335 -18 c 0
 182 -18 42 76 42 240 c 0
 42 458 223 666 447 666 c 0
 515 666 581 632 620 632 c 0
 647 632 669 643 683 666 c 1
 698 662 l 1
 649 465 l 1
 631 468 l 1
 624 573 553 632 451 632 c 0
 253 632 152 390 152 221 c 0
 152 94 225 19 354 19 c 0
 454 19 474 59 498 147 c 1
 405 147 l 1
 418 191 l 1
 509 191 l 1
 514 213 524 243 524 266 c 0
 524 302 471 301 446 303 c 1
 446 319 l 1
 712 319 l 1
 712 303 l 1
EndSplineSet
Validated: 3073
EndChar

StartChar: gbar
Encoding: 485 485 340
Width: 490
Flags: HMW
LayerCount: 2
Fore
SplineSet
472 366 m 1
 422 366 l 1
 428 347 431 327 431 307 c 0
 431 224 325 151 248 151 c 0
 235 151 221 155 208 155 c 0
 194 155 172 128 172 115 c 0
 172 62 384 76 385 -64 c 1
 415 -64 l 1
 408 -105 l 1
 377 -105 l 1
 347 -186 246 -206 170 -206 c 0
 106 -206 18 -181 9 -105 c 1
 -26 -105 l 1
 -19 -64 l 1
 12 -64 l 1
 27 -20 88 15 125 39 c 1
 112 49 98 61 98 79 c 0
 98 113 150 145 175 162 c 1
 125 184 96 213 96 271 c 0
 96 373 199 441 294 441 c 0
 352 441 406 405 411 405 c 2
 472 405 l 1
 472 366 l 1
352 351 m 0
 352 389 337 419 295 419 c 0
 217 419 174 316 174 250 c 0
 174 209 189 172 236 172 c 0
 313 172 352 289 352 351 c 0
321 -64 m 1
 306 -27 179 28 147 28 c 0
 122 28 68 -38 64 -64 c 1
 321 -64 l 1
323 -105 m 1
 64 -105 l 1
 74 -162 134 -184 186 -184 c 0
 238 -184 310 -165 323 -105 c 1
EndSplineSet
Validated: 3073
EndChar

StartChar: Oogonek
Encoding: 490 490 345
Width: 670
Flags: HMW
AnchorPoint: "above" 472 659 basechar 0
LayerCount: 2
Fore
SplineSet
393 -105 m 1
 410 -123 l 1
 375 -174 333 -200 285 -200 c 0
 233 -200 190 -157 190 -105 c 0
 190 -70.583 202.237 -43.5088 231.496 -15.1621 c 1
 123.921 1.94434 50 94.8193 50 221 c 0
 50 467 289 666 464 666 c 0
 593 666 689 566 689 432 c 0
 689 244.193 515.357 -17.4619 268.761 -17.999 c 1
 256.92 -41.9824 251 -63.9912 251 -86 c 0
 251 -116 276 -137 310 -137 c 0
 341 -137 366 -127 393 -105 c 1
285 15 m 0
 464 15 584 306 584 481 c 0
 584 575 534 633 455 633 c 0
 382 633 321 595 265 514 c 0
 205 427 155 278 155 184 c 0
 155 76 201 15 285 15 c 0
EndSplineSet
Validated: 3073
EndChar

StartChar: oogonek
Encoding: 491 491 346
Width: 473
Flags: HMW
AnchorPoint: "above" 325 443 basechar 0
LayerCount: 2
Fore
SplineSet
295 -105 m 1
 312 -123 l 1
 277 -174 235 -200 187 -200 c 0
 135 -200 92 -157 92 -105 c 0
 92 -67.9619 106.172 -39.4268 140.481 -8.65723 c 1
 68.2432 2.56543 25 53.4277 25 129 c 0
 25 286 173 441 323 441 c 0
 408 441 466 384 466 301 c 0
 466 172.623 336.263 -9.23242 174.361 -10.9873 c 1
 160.12 -37.7275 153 -61.8633 153 -86 c 0
 153 -116 178 -137 212 -137 c 0
 243 -137 268 -127 295 -105 c 1
187 10 m 0
 299 10 382 208 382 326 c 0
 382 383 354 420 311 420 c 0
 205 420 109 231 109 101 c 0
 109 46 140 10 187 10 c 0
EndSplineSet
Validated: 3073
EndChar

StartChar: Aringacute
Encoding: 506 506 350
Width: 611
Flags: HM
LayerCount: 2
Fore
SplineSet
464.128 718 m 0
 512.039 718 545.104 683.854 545.104 638.694 c 0
 545.104 572.271 480.864 519 421.829 519 c 0
 373.407 519 341.698 551.896 341.698 597.004 c 0
 341.698 663.767 405.794 718 464.128 718 c 0
457.9 684 m 0
 417.001 684 376.596 646.862 376.596 605.165 c 0
 376.596 575.629 397.658 553 428.056 553 c 0
 466.842 553 510.315 587.456 510.315 631.428 c 0
 510.315 661.163 488.438 684 457.9 684 c 0
597 12 m 1
 597 0 l 1
 351 0 l 1
 351 12 l 1
 415 16.5 429 23.25 429 51.75 c 0
 429 57.75 428 64.5 427 71.25 c 2
 407 169.5 l 1
 187 169.5 l 1
 130 84.75 l 2
 113 59.25 110 52.5 110 38.25 c 0
 110 19.5 118 15.75 169 12 c 1
 169 0 l 1
 -18 0 l 1
 -18 12 l 1
 22 18 33 25.5 111 126 c 2
 401 501 l 1
 427 501 l 1
 521 76.5 l 2
 534 21.75 540 15.75 597 12 c 1
208 196.5 m 1
 402 196.5 l 1
 358 391.5 l 1
 208 196.5 l 1
433 730 m 1
 595 890 l 2
 602 896 610 900 620 900 c 0
 640 900 656 884 656 864 c 0
 656 852 651 843 639 836 c 2
 468 730 l 1
 433 730 l 1
EndSplineSet
Validated: 3073
EndChar

StartChar: uni0228
Encoding: 552 552 388
Width: 577
Flags: HMW
LayerCount: 2
Fore
SplineSet
249 33 m 0
 438 33 477 78 545 170 c 1
 561 162 l 1
 499 0 l 1
 229.333 -1.38778e-17 l 1
 186 -65 l 1
 196 -63 203 -62 211 -62 c 0
 261 -62 293 -89 293 -130 c 0
 293 -180 243 -216 174 -216 c 0
 146 -216 123 -211 81 -195 c 1
 98 -166 l 1
 128 -177 145 -181 166 -181 c 0
 200 -181 219 -166 219 -140 c 0
 219 -114 200 -96 173 -96 c 0
 163 -96 155 -98 141 -103 c 1
 132 -95 l 1
 191.375 1.77636e-15 l 1
 -8 0 l 1
 -8 16 l 1
 48 26 57 33 73 90 c 2
 196 532 l 2
 201 550 207 585 207 596 c 0
 207 623 192 631 130 637 c 1
 130 653 l 1
 627 653 l 1
 596 500 l 1
 575 502 l 1
 576 519 577 534 577 547 c 0
 577 607 542 620 385 620 c 0
 329 620 318.215 615.94 312 594 c 2
 246 361 l 1
 281 362 313 363 325 363 c 0
 416 367 425 373 463 458 c 1
 481 454 l 1
 413 222 l 1
 393 227 l 1
 398 249 400 262 400 279 c 0
 400 312 387 325 323 325 c 0
 314.403 325 288.535 325.055 237 328 c 1
 182 119 169 113 169 67 c 0
 169 43 193 33 249 33 c 0
EndSplineSet
Validated: 3073
EndChar

StartChar: uni0229
Encoding: 553 553 389
Width: 406
Flags: HMW
LayerCount: 2
Fore
SplineSet
128 208 m 1
 317 254 339 342 339 379 c 0
 339 402 325 418 304 418 c 0
 253 418 179.336 340.871 145 252 c 2
 128 208 l 1
351 109 m 1
 363 97 l 1
 304.928 31.0537 229.417 -9.7041 159.354 -10.9697 c 1
 118 -73 l 1
 128 -71 135 -70 143 -70 c 0
 193 -70 225 -97 225 -138 c 0
 225 -188 175 -224 106 -224 c 0
 78 -224 55 -219 13 -203 c 1
 30 -174 l 1
 60 -185 77 -189 98 -189 c 0
 132 -189 151 -174 151 -148 c 0
 151 -122 132 -104 105 -104 c 0
 95 -104 87 -106 73 -111 c 1
 64 -103 l 1
 123.652 -7.55664 l 1
 63.4648 5.7793 24 56.7539 24 126 c 0
 24 276 181 441 325 441 c 0
 375 441 405 415 405 373 c 0
 405 287 298.941 211.42 149 190 c 2
 121 186 l 1
 113 154 111 139 111 124 c 0
 111 70 148 34 205 34 c 0
 248 34 279 50 351 109 c 1
EndSplineSet
Validated: 3073
EndChar

StartChar: yogh
Encoding: 658 658 400
Width: 446
Flags: HMW
LayerCount: 2
Fore
SplineSet
380 417 m 1
 205 210 l 1
 292 190 342 137 342 44 c 0
 342 -107 210 -209 66 -209 c 0
 28 -209 -48 -203 -48 -150 c 0
 -48 -121 -28 -111 -1 -111 c 0
 46 -111 78 -171 134 -171 c 0
 216 -171 262 -83 262 -11 c 0
 262 86 227 137 133 158 c 1
 308 368 l 1
 162 368 l 2
 114 368 99 355 81 309 c 1
 65 313 l 1
 96 428 l 1
 380 428 l 1
 380 417 l 1
EndSplineSet
Validated: 3073
EndChar

StartChar: circumflex
Encoding: 710 710 401
Width: 333
Flags: HMW
LayerCount: 2
Fore
SplineSet
467.767 507 m 1
 433.767 507 l 1
 333.659 610 l 1
 190.767 507 l 1
 156.767 507 l 1
 316.263 674 l 1
 378.263 674 l 1
 467.767 507 l 1
EndSplineSet
Validated: 3073
EndChar

StartChar: caron
Encoding: 711 711 402
Width: 333
Flags: HMW
LayerCount: 2
Fore
SplineSet
510.263 674 m 1
 349.767 507 l 1
 287.767 507 l 1
 199.263 674 l 1
 233.263 674 l 1
 332.37 571 l 1
 476.263 674 l 1
 510.263 674 l 1
EndSplineSet
Validated: 3073
EndChar

StartChar: breve
Encoding: 728 728 403
Width: 333
Flags: HMW
LayerCount: 2
Fore
SplineSet
464.138 664 m 1
 493.138 664 l 1
 458.606 558 401.767 507 317.767 507 c 0
 265.358 507 207.165 528.407 207.165 615.614 c 0
 207.165 629.909 208.728 645.973 212.138 664 c 1
 241.138 664 l 1
 241.138 597.031 268.422 567 332.52 567 c 0
 390.52 567 419.983 588 464.138 664 c 1
EndSplineSet
Validated: 3073
EndChar

StartChar: dotaccent
Encoding: 729 729 404
Width: 333
Flags: HMW
LayerCount: 2
Fore
SplineSet
323 621 m 0
 348 621 371 597 371 572 c 0
 371 545 349 523 322 523 c 0
 295 523 273 545 273 573 c 0
 273 599 295 621 323 621 c 0
EndSplineSet
Validated: 3073
EndChar

StartChar: ring
Encoding: 730 730 405
Width: 333
Flags: HMW
LayerCount: 2
Fore
SplineSet
356.128 711 m 0
 404.039 711 437.103 676.853 437.103 631.694 c 0
 437.103 565.271 372.864 512 313.829 512 c 0
 265.407 512 233.698 544.897 233.698 590.004 c 0
 233.698 656.767 297.794 711 356.128 711 c 0
349.9 677 m 0
 309.001 677 268.596 639.862 268.596 598.165 c 0
 268.596 568.629 289.658 546 320.056 546 c 0
 358.842 546 402.315 580.456 402.315 624.428 c 0
 402.315 654.163 380.438 677 349.9 677 c 0
EndSplineSet
Validated: 3073
EndChar

StartChar: ogonek
Encoding: 731 731 406
Width: 333
Flags: HMW
LayerCount: 2
Fore
SplineSet
213.483 -73 m 1
 230.082 -89 l 1
 181.817 -142 142.928 -165 101.928 -165 c 0
 66.6286 -165 43.2001 -140.539 43.2001 -106.295 c 0
 43.2001 -63.777 73.3343 -30.1952 118 0 c 1
 164 0 l 1
 123.377 -27.9674 104.273 -53.1226 104.273 -78.6723 c 0
 104.273 -96.6091 116.049 -109 134.831 -109 c 0
 155.831 -109 176.957 -99 213.483 -73 c 1
EndSplineSet
Validated: 3073
EndChar

StartChar: tilde
Encoding: 732 732 407
Width: 333
Flags: HMW
LayerCount: 2
Fore
SplineSet
486.121 626 m 1
 515.121 626 l 1
 461.812 550 420.059 520 365.059 520 c 0
 340.059 520 326.76 524 294.262 544 c 2
 275.938 555 l 2
 263.914 562 251.613 566 239.613 566 c 0
 216.613 566 193.238 551 169.059 520 c 1
 140.059 520 l 1
 182.691 585 233.996 621 283.996 621 c 0
 305.996 621 328.445 615 346.344 603 c 2
 365.242 591 l 2
 380.416 582 396.865 576 411.865 576 c 0
 434.865 576 452.967 588 486.121 626 c 1
EndSplineSet
Validated: 3073
EndChar

StartChar: hungarumlaut
Encoding: 733 733 408
Width: 333
Flags: HMW
LayerCount: 2
Fore
SplineSet
142 496 m 1
 217 656 l 2
 221 662 227 666 237 666 c 0
 259 666 281 661 281 632 c 0
 281 624 279 617 274 613 c 2
 177 496 l 1
 142 496 l 1
271 496 m 1
 375 656 l 2
 380 662 386 666 396 666 c 0
 417 666 438 656 438 629 c 0
 438 622 435 617 429 612 c 2
 306 496 l 1
 271 496 l 1
EndSplineSet
Validated: 3073
EndChar

StartChar: overlinecmb
Encoding: 773 773 414
Width: 0
Flags: HMW
AnchorPoint: "above" -4.625 444 mark 0
LayerCount: 2
Fore
SplineSet
-210.254 601 m 1
 252.746 601 l 1
 241.269 547 l 1
 -221.731 547 l 1
 -210.254 601 l 1
EndSplineSet
Validated: 3073
EndChar

StartChar: hookabovecomb
Encoding: 777 777 418
Width: 0
Flags: HMW
AnchorPoint: "above" -16.625 444 mark 0
LayerCount: 2
Fore
SplineSet
30.7422 521 m 1
 -3.25781 521 l 1
 14.1912 574.208 60.8756 580.41 60.8756 631.173 c 0
 60.8756 647.675 52.3381 658 33.8623 658 c 0
 16.8623 658 -3.41309 652 -8.81445 636 c 1
 -2.7584 630.357 2.13573 625.364 2.13573 615.783 c 0
 2.13573 591.157 -24.1571 585 -32.6543 585 c 0
 -45.4173 585 -52.5143 598.031 -52.5143 610.542 c 0
 -52.5143 642.71 -6.8671 688 42.2393 688 c 0
 75.888 688 114.544 674.67 114.544 632.042 c 0
 114.544 569.864 49.9371 564.869 30.7422 521 c 1
EndSplineSet
Validated: 3073
EndChar

StartChar: verticallineabovecmb
Encoding: 781 781 422
Width: 0
Flags: HMW
AnchorPoint: "above" 1.375 444 mark 0
LayerCount: 2
Fore
SplineSet
31.0654 499 m 1
 14.0654 499 -2.93457 499 -18.9346 499 c 1
 -12.9824 527 18.0508 673 22.9395 696 c 1
 44.9395 696 48.9395 696 72.9395 696 c 1
 68.0508 673 38.5049 534 31.0654 499 c 1
EndSplineSet
Validated: 3073
EndChar

StartChar: candrabinducmb
Encoding: 784 784 425
Width: 0
Flags: HMW
AnchorPoint: "above" -3 444 mark 0
LayerCount: 2
Fore
SplineSet
168 664 m 1
 197 664 l 1
 186 633 139 507 11 507 c 0
 -47 507 -93 538 -93 606 c 0
 -93 623 -90 642 -84 664 c 1
 -55 664 l 1
 -56 658 -56 652 -56 646 c 0
 -56 596 -28 567 29 567 c 0
 105 567 135 614 168 664 c 1
2 667 m 0
 2 686 17 717 50 717 c 0
 77 717 100 694 100 667 c 0
 100 639 77 617 50 617 c 0
 16 617 2 647 2 667 c 0
EndSplineSet
Validated: 3073
EndChar

StartChar: breveinvertedcmb
Encoding: 785 785 426
Width: 0
Flags: HMW
AnchorPoint: "abovecyr" 0 440 mark 0
AnchorPoint: "above" 0 444 mark 0
LayerCount: 2
Fore
SplineSet
123 506 m 1
 118 556 114 603 38 603 c 0
 -26 603 -73 567 -100 506 c 1
 -129 506 l 1
 -100 615 -19 663 53 663 c 0
 141 663 157 604 157 557 c 0
 157 535 154 516 152 506 c 1
 123 506 l 1
EndSplineSet
Validated: 3073
EndChar

StartChar: lefttackbelowcmb
Encoding: 792 792 433
Width: 0
Flags: HMW
AnchorPoint: "below" -193 0 mark 0
LayerCount: 2
Fore
SplineSet
-153.811 -182 m 1
 -336.811 -182 l 1
 -325.333 -128 l 1
 -142.333 -128 l 1
 -120.565 -38 l 1
 -66.5654 -38 l 1
 -120.767 -273 l 1
 -174.767 -273 l 1
 -153.811 -182 l 1
EndSplineSet
Validated: 3073
EndChar

StartChar: leftangleabovecmb
Encoding: 794 794 435
Width: 0
Flags: HMW
LayerCount: 2
Fore
SplineSet
260 742 m 1
 194 505 l 1
 140 505 l 1
 191 688 l 1
 23 688 l 1
 23 742 l 1
 260 742 l 1
EndSplineSet
Validated: 3073
EndChar

StartChar: horncmb
Encoding: 795 795 436
Width: 0
Flags: HMW
LayerCount: 2
Fore
SplineSet
317 498 m 0
 317 400 219 333 147 333 c 0
 136 333 95 335 80 358 c 1
 90 392 l 1
 102 373 125 361 153 361 c 0
 210 361 254 403 254 433 c 0
 254 464 169 437 169 485 c 0
 169 501 186 564 254 564 c 0
 294 564 317 538 317 498 c 0
EndSplineSet
Validated: 3073
EndChar

StartChar: uptackbelowcmb
Encoding: 797 797 438
Width: 0
Flags: HMW
AnchorPoint: "below" -218 0 mark 0
LayerCount: 2
Fore
SplineSet
-292.463 -228 m 1
 -253.565 -45 l 1
 -199.565 -45 l 1
 -238.463 -228 l 1
 -125.463 -228 l 1
 -136.941 -282 l 1
 -432.941 -282 l 1
 -421.463 -228 l 1
 -292.463 -228 l 1
EndSplineSet
Validated: 3073
EndChar

StartChar: hooksubpalatnosp
Encoding: 801 801 442
Width: 0
Flags: HMW
LayerCount: 2
Fore
SplineSet
-165 -145 m 0
 -165 -167 -185 -193 -213 -197 c 1
 -205 -203 -195 -207 -184 -207 c 0
 -154 -207 -123 -182 -115 -152 c 2
 -73 0 l 1
 -130 0 l 1
 -124 23 l 1
 -76 23 l 1
 -63 31 -54 39 -46 46 c 1
 -38 35 l 1
 -90 -152 l 2
 -102 -196 -146 -231 -190 -231 c 0
 -227 -231 -251 -206 -251 -175 c 0
 -251 -125 -208 -115 -196 -115 c 0
 -177 -115 -165 -128 -165 -145 c 0
EndSplineSet
Validated: 3073
EndChar

StartChar: hookretroflexbelowcmb
Encoding: 802 802 443
Width: 0
Flags: HMW
LayerCount: 2
Fore
SplineSet
17 -145 m 0
 17 -179 -31 -231 -84 -231 c 0
 -120 -231 -143 -207 -143 -174 c 0
 -143 -167 -142 -160 -140 -152 c 2
 -88 35 l 1
 -74 46 l 1
 -70 39 -65 31 -58 23 c 1
 -10 23 l 1
 -16 0 l 1
 -73 0 l 1
 -115 -152 l 2
 -116 -157 -117 -162 -117 -166 c 0
 -117 -190 -101 -207 -76 -207 c 0
 -65 -207 -53 -203 -43 -197 c 1
 -58 -195 -68 -183 -68 -168 c 0
 -68 -145 -46 -115 -14 -115 c 0
 5 -115 17 -128 17 -145 c 0
EndSplineSet
Validated: 3073
EndChar

StartChar: cedillacmb
Encoding: 807 807 448
Width: 0
Flags: HMW
AnchorPoint: "below" -175 0 mark 0
LayerCount: 2
Fore
SplineSet
-256 -96 m 1
 -196 0 l 1
 -158 0 l 1
 -202 -66 l 1
 -193 -64 -187 -63 -175 -63 c 0
 -131 -63 -95 -87 -95 -130 c 0
 -95 -198 -168 -217 -217 -217 c 0
 -241 -217 -275 -209 -307 -196 c 1
 -290 -167 l 1
 -272 -174 -249 -182 -224 -182 c 0
 -169 -182 -169 -150 -169 -138 c 0
 -169 -114 -191 -97 -215 -97 c 0
 -226 -97 -237 -100 -247 -104 c 1
 -256 -96 l 1
EndSplineSet
Validated: 3073
EndChar

StartChar: verticallinebelowcmb
Encoding: 809 809 450
Width: 0
Flags: HMW
AnchorPoint: "below" -192 0 mark 0
LayerCount: 2
Fore
SplineSet
-225.052 -259 m 1
 -242.052 -259 -259.052 -259 -275.052 -259 c 1
 -269.101 -231 -238.067 -85 -233.179 -62 c 1
 -211.179 -62 -207.179 -62 -183.179 -62 c 1
 -188.067 -85 -217.612 -224 -225.052 -259 c 1
EndSplineSet
Validated: 3073
EndChar

StartChar: bridgebelowcmb
Encoding: 810 810 451
Width: 0
Flags: HMW
AnchorPoint: "below" -175 0 mark 0
LayerCount: 2
Fore
SplineSet
-101 -120 m 1
 -304 -120 l 1
 -337 -238 l 1
 -391 -238 l 1
 -343 -66 l 1
 -32 -66 l 1
 -80 -238 l 1
 -134 -238 l 1
 -101 -120 l 1
EndSplineSet
Validated: 3073
EndChar

StartChar: dblarchinvertedbelowcmb
Encoding: 811 811 452
Width: 0
VWidth: 613
Flags: HMW
AnchorPoint: "below" -175 0 mark 0
LayerCount: 2
Fore
SplineSet
-162.035 -183 m 0
 -185.035 -183 -206.623 -174 -211.729 -152 c 1
 -230.623 -174 -254.303 -184 -279.303 -184 c 0
 -316.61 -184 -338.555 -169.502 -338.555 -133.463 c 0
 -338.555 -123.134 -336.752 -111.034 -332.991 -97 c 2
 -320.934 -52 l 1
 -266.934 -52 l 1
 -278.991 -97 l 2
 -280.882 -104.056 -281.774 -109.679 -281.774 -114.134 c 0
 -281.774 -126.726 -274.651 -130 -262.833 -130 c 0
 -242.833 -130 -230.958 -123 -223.991 -97 c 2
 -211.934 -52 l 1
 -157.934 -52 l 1
 -169.991 -97 l 2
 -171.525 -102.723 -172.285 -107.641 -172.285 -111.801 c 0
 -172.285 -124.357 -165.354 -130 -151.833 -130 c 0
 -132.833 -130 -120.689 -122 -113.991 -97 c 2
 -101.934 -52 l 1
 -47.9336 -52 l 1
 -60.2588 -98 l 2
 -76.8721 -160 -111.535 -183 -162.035 -183 c 0
EndSplineSet
Validated: 3073
EndChar

StartChar: barmidshortnosp
Encoding: 821 821 462
Width: 0
Flags: HMW
AnchorPoint: "middle" -48 228 mark 0
LayerCount: 2
Fore
SplineSet
-151.136 244 m 1
 61.8643 244 l 1
 52.7236 201 l 1
 -160.276 201 l 1
 -151.136 244 l 1
EndSplineSet
Validated: 3073
EndChar

StartChar: strokelongoverlaycmb
Encoding: 822 822 463
Width: 0
Flags: HMW
AnchorPoint: "middle" -108 224 mark 0
LayerCount: 2
Fore
SplineSet
-312.136 243 m 1
 119.864 243 l 1
 110.724 200 l 1
 -321.276 200 l 1
 -312.136 243 l 1
EndSplineSet
Validated: 3073
EndChar

StartChar: solidusshortoverlaycmb
Encoding: 823 823 464
Width: 0
Flags: HMW
AnchorPoint: "middle" -136 222 mark 0
LayerCount: 2
Fore
SplineSet
-375.542 148 m 1
 118.419 336 l 1
 117.129 297 l 1
 -376.831 109 l 1
 -375.542 148 l 1
EndSplineSet
Validated: 3073
EndChar

StartChar: soliduslongoverlaycmb
Encoding: 824 824 465
Width: 0
Flags: HMW
AnchorPoint: "middle" -108 222 mark 0
LayerCount: 2
Fore
SplineSet
-388.411 -93 m 1
 178 592 l 1
 202.41 574 l 1
 -363 -111 l 1
 -388.411 -93 l 1
EndSplineSet
Validated: 3073
EndChar

StartChar: squarebelowcmb
Encoding: 827 827 468
Width: 0
Flags: HMW
AnchorPoint: "below" -235 0 mark 0
LayerCount: 2
Fore
SplineSet
-216 -245 m 1
 -174 -93 l 1
 -327 -93 l 1
 -369 -245 l 1
 -216 -245 l 1
-366 -39 m 1
 -105 -39 l 1
 -177 -300 l 1
 -438 -300 l 1
 -366 -39 l 1
EndSplineSet
Validated: 3073
EndChar

StartChar: seagullbelowcmb
Encoding: 828 828 469
Width: 0
Flags: HMW
AnchorPoint: "below" -225 0 mark 0
LayerCount: 2
Fore
SplineSet
-166 -111 m 0
 -258 -111 -244 -224 -286 -224 c 0
 -294 -224 -296.4 -220 -296.4 -212.768 c 0
 -296.4 -201.92 -291 -183.8 -291 -161 c 0
 -291 -131 -304 -110 -343 -110 c 0
 -360 -110 -381 -114 -397 -119 c 0
 -399.551 -119.85 -401.621 -120.219 -403.276 -120.219 c 0
 -407.46 -120.219 -409 -117.866 -409 -115 c 0
 -409 -103 -350 -47 -305 -47 c 0
 -287 -47 -259 -63 -259 -127 c 2
 -259 -131 l 1
 -238 -92 -201 -47 -162 -47 c 0
 -111 -47 -100 -89 -100 -111 c 0
 -100 -115.648 -101.8 -120.295 -107.724 -120.295 c 0
 -109.448 -120.295 -111.521 -119.902 -114 -119 c 0
 -127 -114 -148 -111 -166 -111 c 0
EndSplineSet
Validated: 3073
EndChar

StartChar: tildeverticalcmb
Encoding: 830 830 471
Width: 0
Flags: HMW
AnchorPoint: "abovecyr" 26 455 mark 0
AnchorPoint: "above" 15 444 mark 0
LayerCount: 2
Fore
SplineSet
61 581 m 0
 61 609 32 618 32 648 c 0
 32 706 104 731 164 749 c 1
 168 733 l 1
 118 713 98 693 98 665 c 0
 98 638 127 626 127 595 c 0
 127 552 84 528 -5 494 c 1
 -10 510 l 1
 41 529 61 549 61 581 c 0
EndSplineSet
Validated: 3073
EndChar

StartChar: uni0360
Encoding: 864 864 473
Width: 0
Flags: HMW
AnchorPoint: "above" -103.224 499 mark 0
LayerCount: 2
Fore
SplineSet
99.6016 685 m 0
 188.602 685 204.998 621 280.998 621 c 0
 363.998 621 400.8 653 457.515 694 c 1
 475.451 689 l 1
 388.495 581 336.819 559 250.819 559 c 0
 161.819 559 148.423 623 66.4229 623 c 0
 -26.5771 623 -46.3164 596 -107.307 549 c 1
 -125.244 554 l 1
 -34.6494 665 10.6016 685 99.6016 685 c 0
EndSplineSet
Validated: 3073
EndChar

StartChar: numeralsigngreek
Encoding: 884 884 475
Width: 199
Flags: HMW
LayerCount: 2
Fore
SplineSet
48 557 m 1
 31 567 l 1
 57 610 144 780 193 780 c 0
 212 780 229 767 229 747 c 0
 229 712 81 587 48 557 c 1
EndSplineSet
Validated: 3073
EndChar

StartChar: numeralsignlowergreek
Encoding: 885 885 476
Width: 199
Flags: HMW
LayerCount: 2
Fore
SplineSet
198 -10 m 1
 172 -53 84 -223 35 -223 c 0
 16 -223 0 -210 0 -190 c 0
 0 -155 148 -30 181 0 c 1
 198 -10 l 1
EndSplineSet
Validated: 3073
EndChar

StartChar: ypogegrammeni
Encoding: 890 890 477
Width: 332
Flags: HMW
LayerCount: 2
Fore
SplineSet
182 -112 m 1
 168 -170 126 -200 67 -200 c 0
 34 -200 9 -189 9 -152 c 0
 9 -110 18 -93 28 -52 c 1
 104 -52 l 1
 95 -89 86 -104 86 -143 c 0
 86 -155 92 -163 105 -163 c 0
 133 -163 151 -136 157 -112 c 1
 182 -112 l 1
EndSplineSet
Validated: 3073
EndChar

StartChar: dieresistonos
Encoding: 901 901 479
Width: 333
Flags: HMW
LayerCount: 2
Fore
SplineSet
194 604 m 0
 217 604 235 586 235 564 c 0
 235 542 217 525 194 525 c 0
 173 525 156 542 156 565 c 0
 156 586 174 604 194 604 c 0
412 604 m 0
 435 604 453 586 453 564 c 0
 453 542 435 525 412 525 c 0
 391 525 374 542 374 565 c 0
 374 586 392 604 412 604 c 0
259 566 m 1
 355.699 763 l 2
 358.683 769.294 370 780 393 780 c 0
 414 780 428 763 428 745 c 0
 428 737 425.421 733.334 418.876 725 c 2
 294 566 l 1
 259 566 l 1
EndSplineSet
Validated: 3073
EndChar

StartChar: anoteleia
Encoding: 903 903 481
Width: 250
Flags: HMW
LayerCount: 2
Fore
SplineSet
199.82 352 m 0
 171.187 352 151.985 371.574 151.985 398.31 c 0
 151.985 432.455 182.944 470 224.901 470 c 0
 253.533 470 272.735 450.427 272.735 423.692 c 0
 272.735 389.547 241.777 352 199.82 352 c 0
EndSplineSet
Validated: 3073
EndChar

StartChar: Gamma
Encoding: 915 915 491
Width: 594
Flags: HMW
LayerCount: 2
Fore
SplineSet
627 653 m 1
 596 500 l 1
 575 502 l 1
 576 516 577 529 577 543 c 0
 577 612 509 621 447 621 c 2
 364 621 l 2
 341 621 318 617 312 594 c 2
 179 120 l 2
 173 99 168 78 168 56 c 0
 168 19 209 19 236 16 c 1
 236 0 l 1
 -8 0 l 1
 -8 16 l 1
 47 26 57 34 73 90 c 0
 196 532 l 2
 201 550 207 574 207 593 c 0
 207 635 161 635 130 637 c 1
 130 653 l 1
 627 653 l 1
EndSplineSet
Validated: 3073
EndChar

StartChar: Delta
Encoding: 916 916 492
Width: 660
Flags: HMW
LayerCount: 2
Fore
SplineSet
617 0 m 1
 -5 0 l 1
 467 666 l 1
 476 666 l 1
 617 0 l 1
501 34 m 1
 401 505 l 1
 61 34 l 1
 501 34 l 1
EndSplineSet
Validated: 3073
EndChar

StartChar: Theta
Encoding: 920 920 496
Width: 661
Flags: HMW
LayerCount: 2
Fore
SplineSet
678 423 m 0
 678 213 474 -18 258 -18 c 0
 117 -18 39 94 39 227 c 0
 39 422 243 666 446 666 c 0
 591 666 678 565 678 423 c 0
573 472 m 0
 573 559 540 633 442 633 c 0
 256 633 144 335 144 181 c 0
 144 97 176 15 274 15 c 0
 461 15 573 317 573 472 c 0
525 426 m 1
 477 233 l 1
 460 233 l 1
 462 240 464 248 464 256 c 0
 464 276 440 293 421 293 c 2
 275 293 l 2
 248 293 217 258 211 233 c 1
 195 233 l 1
 243 426 l 1
 260 426 l 1
 259 422 258 417 258 413 c 0
 258 393 269 364 293 364 c 2
 439 364 l 2
 473 364 503 393 508 426 c 1
 525 426 l 1
EndSplineSet
Validated: 3073
EndChar

StartChar: Lambda
Encoding: 923 923 499
Width: 661
Flags: HMW
LayerCount: 2
Fore
SplineSet
607 0 m 1
 361 0 l 1
 361 16 l 1
 397 19 439 20 439 66 c 0
 439 76 439 85 437 95 c 2
 368 521 l 1
 140 113 l 2
 128.863 93.0713 120 75 120 51 c 0
 120 17 153 18 179 16 c 1
 179 0 l 1
 -8 0 l 1
 -8 16 l 1
 55 31 91 117 121 168 c 2
 411 668 l 1
 437 668 l 1
 531 102 l 2
 541 42 542 21 607 16 c 1
 607 0 l 1
EndSplineSet
Validated: 3073
EndChar

StartChar: Xi
Encoding: 926 926 502
Width: 678
Flags: HMW
LayerCount: 2
Fore
SplineSet
684 653 m 1
 640 478 l 1
 626 478 l 1
 629 491 632 503 632 516 c 0
 632 558 601 569 564 569 c 2
 251 569 l 2
 181 569 167 537 145 478 c 1
 130 478 l 1
 174 653 l 1
 684 653 l 1
531 434 m 1
 477 218 l 1
 463 218 l 1
 465 226 467 234 467 242 c 0
 467 270 448 284 421 284 c 2
 258 284 l 2
 219 284 189 255 182 218 c 1
 168 218 l 1
 222 434 l 1
 236 434 l 1
 236 432 l 2
 236 426 233 419 233 412 c 0
 233 385 255 372 280 372 c 2
 443 372 l 2
 474 372 517 400 517 434 c 1
 531 434 l 1
565 175 m 1
 521 0 l 1
 11 0 l 1
 55 175 l 1
 70 175 l 1
 67 163 65 151 65 139 c 0
 65 96 95 84 133 84 c 2
 456 84 l 2
 507 84 542 129 551 175 c 1
 565 175 l 1
EndSplineSet
Validated: 3073
EndChar

StartChar: Pi
Encoding: 928 928 504
Width: 697
Flags: HMW
LayerCount: 2
Fore
SplineSet
767 637 m 1
 711 627 701 620 685 563 c 0
 667 496 549 99 549 58 c 0
 549 18 599 19 628 16 c 1
 628 0 l 1
 355 0 l 1
 355 16 l 1
 410 23 440 31 456 90 c 2
 575 518 l 2
 581 538 586 559 586 580 c 0
 586 623 550 623 516 623 c 2
 399 623 l 2
 347 623 312 601 298 549 c 0
 280 483 166 99 166 58 c 0
 166 21 211 20 238 16 c 1
 238 0 l 1
 -8 0 l 1
 -8 16 l 1
 47 26 57 34 73 90 c 2
 196 532 l 2
 202 552 207 573 207 594 c 0
 207 635 160 635 130 637 c 1
 130 653 l 1
 767 653 l 1
 767 637 l 1
EndSplineSet
Validated: 3073
EndChar

StartChar: Sigma
Encoding: 931 931 506
Width: 653
Flags: HMW
LayerCount: 2
Fore
SplineSet
698 653 m 1
 667 478 l 1
 650 478 l 1
 651 485 651 492 651 498 c 0
 651 579 583 623 508 623 c 2
 340 623 l 2
 330 623 303 618 303 604 c 0
 303 586 474 381 500 350 c 1
 159 86 l 1
 472 86 l 2
 522 86 565 128 573 177 c 1
 592 177 l 1
 548 0 l 1
 -16 0 l 1
 408 328 l 1
 149 653 l 1
 698 653 l 1
EndSplineSet
Validated: 3073
EndChar

StartChar: Upsilon
Encoding: 933 933 508
Width: 679
Flags: HMW
LayerCount: 2
Fore
SplineSet
679 553 m 0
 638.667 553 675.133 602 607 602 c 0
 483 602 409 372 389 299 c 0
 373 239 329 121 329 56 c 0
 329 19 370 19 397 16 c 1
 397 0 l 1
 153 0 l 1
 153 16 l 1
 208 26 219 34 234 90 c 2
 289 291 l 2
 304 347 315 405 315 463 c 0
 315 519 287 602 220 602 c 0
 139 602 154 553 105 553 c 0
 94.4473 553 87.0791 558.274 87.0791 566.626 c 0
 87.0791 582.266 126.262 672 205 672 c 0
 331 672 368 526 369 425 c 1
 423 518 503 672 628 672 c 0
 670 672 699 635 699 595 c 0
 699 564 689 553 679 553 c 0
EndSplineSet
Validated: 3073
EndChar

StartChar: Phi
Encoding: 934 934 509
Width: 751
Flags: HMW
LayerCount: 2
Fore
SplineSet
390 113 m 1
 385 94 381 75 381 56 c 0
 381 19 422 19 449 16 c 1
 449 0 l 1
 205 0 l 1
 205 16 l 1
 274 28 275 47 292 112 c 1
 183 112 54 153 54 283 c 0
 54 457 225 560 384 560 c 0
 395 560 405 560 416 559 c 1
 418 570 420 582 420 594 c 0
 420 633 380 634 350 637 c 1
 350 653 l 1
 597 653 l 1
 597 637 l 1
 540 627 530 618 514 560 c 1
 618 560 761 524 761 395 c 0
 761 228 585 111 428 111 c 0
 415 111 402 111 390 113 c 1
654 398 m 0
 654 486 588 528 506 529 c 1
 398 141 l 1
 542 141 654 252 654 398 c 0
408 529 m 1
 253 529 157 422 157 269 c 0
 157 178 215 142 300 141 c 1
 408 529 l 1
EndSplineSet
Validated: 3073
EndChar

StartChar: Psi
Encoding: 936 936 511
Width: 821
Flags: HMW
LayerCount: 2
Fore
SplineSet
883 541 m 0
 840 541 863 575 810 575 c 0
 794 575 732 567 732 535 c 0
 732 491 772 470 772 395 c 0
 772 303 688 240 574 210 c 0
 532 199 484 195 440 193 c 1
 428 150 409 101 409 56 c 0
 409 19 450 19 477 16 c 1
 477 0 l 1
 233 0 l 1
 233 16 l 1
 288 26 298 34 314 90 c 2
 343 193 l 1
 245 199 106 220 106 346 c 0
 106 448 231 486 231 547 c 0
 231 568 220 575 175 575 c 0
 132 575 128 540 97 540 c 0
 90.1309 540 83.998 543.125 83.998 555.828 c 0
 83.998 555.828 85.8691 653 178 653 c 0
 230 653 273 610 273 552 c 0
 273 462 195 413 195 333 c 0
 195 232 274 231 353 229 c 1
 437 532 l 2
 443 552 448 573 448 594 c 0
 448 633 408 634 378 637 c 1
 378 653 l 1
 625 653 l 1
 625 637 l 1
 569 627 559 620 543 563 c 2
 450 229 l 1
 482 230 520.215 228.291 551 238 c 0
 681 279 689 390 689 526 c 0
 689 650 807 658 836 658 c 0
 886.686 658 913.697 635.089 913.697 607.954 c 0
 913.697 596.4 905.097 541 883 541 c 0
EndSplineSet
Validated: 3073
EndChar

StartChar: Omega
Encoding: 937 937 512
Width: 767
Flags: HMW
LayerCount: 2
Fore
SplineSet
505 666 m 0
 599 666 771 616 771 446 c 0
 771 328 686 180 483 124 c 1
 466 81 l 1
 600 81 l 2
 661 81 686 117 697 153 c 1
 721 153 l 1
 673 0 l 1
 401 0 l 1
 455 147 l 1
 576 176 658 332 658 441 c 0
 658 590 553 630 488.09 630 c 0
 380 630 220 544 220 297 c 0
 220 210 262 170 305 149 c 1
 264 0 l 1
 -8 0 l 1
 28 153 l 1
 52 153 l 1
 50.1074 144.105 49.1104 135.998 49.1104 128.699 c 0
 49.1104 97.4326 67.4092 81 112 81 c 2
 251 81 l 1
 264 126 l 1
 186 138 110 216 110 307 c 0
 110 590 360 666 505 666 c 0
EndSplineSet
Validated: 3073
EndChar

StartChar: alpha
Encoding: 945 945 519
Width: 564
Flags: HMW
LayerCount: 2
Fore
SplineSet
527 432 m 1
 493 352 457 278 416 204 c 0
 405 185 389 164 382 144 c 0
 381 140 381 136 381 132 c 0
 381 96 396 62 422 62 c 0
 449 62 468.333 67.3333 487 126 c 1
 509 118 l 1
 500.333 73.3333 469 -11 411 -11 c 0
 361.68 -11 354.197 43.2589 354.197 85.1789 c 0
 354.197 95.106 354.617 104.341 355 112 c 1
 353 112 l 1
 312 46 232 -11 152 -11 c 0
 58 -11 9 58 9 146 c 0
 9 282 130 441 274 441 c 0
 359.571 441 382.492 358.878 382.492 294.345 c 0
 382.492 288.742 382.32 283.272 382 278 c 1
 384 278 l 1
 446 432 l 1
 527 432 l 1
353 300 m 0
 353 356 338 418 270 418 c 0
 158 418 93 215 93 124 c 0
 93 70 110 12 166 12 c 0
 284 12 353 206 353 300 c 0
EndSplineSet
Validated: 3073
EndChar

StartChar: beta
Encoding: 946 946 520
Width: 509
Flags: HMW
LayerCount: 2
Fore
SplineSet
247 416 m 0
 270.2 416 284.7 397 305 397 c 0
 362 397 415 461 415 538 c 0
 415 587 397 651 333 651 c 0
 255 651 187.432 574.096 164 436 c 2
 70 -118 l 2
 63 -159 53 -212 10 -212 c 0
 -20 -212 -34 -194 -34 -163 c 0
 -34 -127 -13 -65 -2 -22 c 2
 104 397 l 2
 146 561 200 674 356 674 c 0
 424 674 491 638 491 550 c 0
 491 445 386 399 329 386 c 1
 329 384 l 1
 410 357 453 290 453 228 c 0
 453 83 347 -10 213 -10 c 0
 178.89 -10 123.886 7.09573 123.886 74.6087 c 0
 123.886 76.3713 123.924 78.1682 124 80 c 1
 146 88 l 1
 145.88 86.0325 145.82 84.1021 145.82 82.209 c 0
 145.82 36.954 179.646 13 219 13 c 0
 312.5 13 365 144 365 230 c 0
 365 272 364 370 306 370 c 0
 281.853 370 264.192 353 246 353 c 0
 226 353 211 367 211 385 c 0
 211 406 232 416 247 416 c 0
EndSplineSet
Validated: 3073
EndChar

StartChar: delta
Encoding: 948 948 521
Width: 518
Flags: HMW
LayerCount: 2
Fore
SplineSet
176 -11 m 0
 45 -11 26 98 26 130 c 0
 26 308 148 422 257 422 c 0
 280 422 299 419 310 414 c 1
 312 416 l 1
 294 449 226 515 226 588 c 0
 226 662 299 677 366 677 c 0
 430 677 469 628 486 570 c 1
 466 560 l 1
 450 607 417 654 364 654 c 0
 338 654 310 641 310 599 c 0
 310 521 448 409 448 279 c 0
 448 127 332 -11 176 -11 c 0
362 308 m 2
 347 348 l 2
 337 376 316 399 265 399 c 0
 174 399 110 234 110 124 c 0
 110 34 153 12 182 12 c 0
 290 12 369 130 369 230 c 0
 369 245.6 366.192 296.822 362 308 c 2
EndSplineSet
Validated: 3073
EndChar

StartChar: epsilon
Encoding: 949 949 522
Width: 431
Flags: HMW
LayerCount: 2
Fore
SplineSet
368 321 m 0
 347 321 333 334 326 361 c 0
 321 379 309 418 259 418 c 0
 200 418 136 395 136 316 c 0
 136 278 164 241 200 241 c 0
 217 241 229 244 239 248 c 0
 249 252 263 261 277 261 c 0
 299 261 314 248 314 232 c 0
 314 210 294 198 277 198 c 0
 263 198 251 206 237 210 c 0
 227 214 213 217 202 217 c 0
 137 217 95 173 95 109 c 0
 95 48 142 26 191 26 c 0
 262 26 303 63 341 119 c 1
 363 111 l 1
 314 26 245 -10 150 -10 c 0
 89 -10 11 23 11 97 c 0
 11 179 77 219 150 230 c 1
 151 232 l 1
 109 236 64 270 64 318 c 0
 64 416 181 441 260 441 c 0
 329 441 401 406 401 360 c 0
 401 334 385 321 368 321 c 0
EndSplineSet
Validated: 3073
EndChar

StartChar: zeta
Encoding: 950 950 523
Width: 408
Flags: HMW
LayerCount: 2
Fore
SplineSet
292 -66 m 0
 292 -24 274 2 221 2 c 0
 190 2 167 -4 132 -4 c 0
 58 -4 22 50 22 126 c 0
 22 314 118 454 203 540 c 1
 156 546 98 572 98 622 c 0
 98 671 152 684 177 684 c 1
 188 666 l 1
 176 663 152 655 152 627 c 0
 152 578 195 558 222 557 c 1
 278 606 339 641 383 641 c 0
 417 641 442 636 442 606 c 0
 442 570 382 534 288 534 c 0
 270 534 254 535 232 537 c 1
 143 446 60 314 60 182 c 0
 60 122 68 80 135 80 c 0
 173 80 194 86 219 86 c 0
 273 86 337 66 337 -14 c 0
 337 -141 216 -178 128 -178 c 0
 90 -178 26 -160 26 -114 c 0
 26 -96 41 -84 54 -84 c 0
 76 -84 87 -93 102 -118 c 0
 118 -146 148 -152 169 -152 c 0
 220 -152 292 -130 292 -66 c 0
EndSplineSet
Validated: 3073
EndChar

StartChar: eta
Encoding: 951 951 524
Width: 539
Flags: HMW
LayerCount: 2
Fore
SplineSet
322 -212 m 0
 289 -212 277 -195 277 -163 c 0
 277 -154 288.531 -121.194 297 -98 c 2
 406 217 l 2
 424.648 270.89 440 329.5 440 347 c 0
 440 381.5 419 406 373 406 c 0
 249 406 183 134 152 0 c 1
 73 0 l 1
 167 339 l 2
 171.608 355.895 173.327 365.192 173.327 382.653 c 0
 173.327 390.816 171.286 400 157 400 c 0
 118 400 89.667 329.667 82 301 c 1
 61 309 l 1
 77 372 108 441 184 441 c 0
 229 441 248 409 248 378 c 0
 248 357 246 343.5 240 323 c 1
 243 323 l 1
 281.5 394 333 441 401 441 c 0
 462.963 441 488 398 488 352 c 0
 488 323 482.141 296.135 477 273 c 2
 389 -123 l 2
 376.292 -171.856 367 -212 322 -212 c 0
EndSplineSet
Validated: 3073
EndChar

StartChar: theta
Encoding: 952 952 525
Width: 523
Flags: HMW
LayerCount: 2
Fore
SplineSet
169 -11 m 0
 86 -11 25 74 25 176 c 0
 25 352 132 672 347 672 c 0
 463 672 497 574 497 475 c 0
 497 299 382 -11 169 -11 c 0
392 358 m 1
 406 415 413 470 413 530 c 0
 413 583 407 649 341 649 c 0
 221 649 167 450 144 358 c 1
 392 358 l 1
386 334 m 1
 138 334 l 1
 121 267 109 201 109 131 c 0
 109 77 118 12 174 12 c 0
 304 12 362 236 386 334 c 1
EndSplineSet
Validated: 3073
EndChar

StartChar: iota
Encoding: 953 953 526
Width: 270
Flags: HMW
LayerCount: 2
Fore
SplineSet
229 130 m 1
 212 67 176 -11 86 -11 c 0
 41 -11 3 14.5 3 63.5 c 0
 3 78.5 6 93.5 10 109.5 c 2
 98 432 l 1
 177 432 l 1
 168.067 397.757 94.6953 132 94.6953 132 c 2
 86.4219 98.2676 81.5 70.2012 81.5 61 c 0
 81.5 32.5 98 25 110 25 c 0
 172 25 198 105 208 137.5 c 1
 229 130 l 1
EndSplineSet
Validated: 3073
EndChar

StartChar: kappa
Encoding: 954 954 527
Width: 491
Flags: HMW
LayerCount: 2
Fore
SplineSet
354 -10 m 0
 284 -10 264 36 252 78 c 0
 238 128 230 226 170 226 c 2
 152 226 l 1
 89 0 l 1
 14 0 l 1
 110 350 l 2
 111 355 112 361 112 367 c 0
 112 387 99 393 48 394 c 1
 48 410 l 1
 135 426 154 430 208 441 c 1
 211 439 l 1
 158 250 l 1
 177 250 l 2
 230 250 263 315 284 349 c 0
 340 437 394 441 413 441 c 0
 450 441 466 414 466 390 c 0
 466 366 443 348 418 348 c 0
 404 348 393 357 381 368 c 0
 372 377 363 378 354 378 c 0
 316 378 283 260 230 243 c 1
 230 241 l 1
 264 237 297 209 314 170 c 0
 338 114 332 42 390 42 c 0
 414 42 426.348 69.0031 450 110 c 1
 465 99 l 1
 420 15 394 -10 354 -10 c 0
EndSplineSet
Validated: 3073
EndChar

StartChar: lambda
Encoding: 955 955 528
Width: 488
Flags: HMW
LayerCount: 2
Fore
SplineSet
447 118 m 1
 437 68 404 -11 350 -11 c 0
 288 -11 285 64 285 108 c 2
 285 311 l 1
 283 311 l 1
 87 0 l 1
 -11 0 l 1
 277 453 l 1
 277 462 278 475 278 489 c 0
 278 550 266 605 219 605 c 0
 192 605 167 590 156 540 c 1
 135 547 l 1
 142 599 160 678 223 678 c 0
 298 678 306.019 585.942 308 518 c 2
 318 175 l 2
 319.659 118.107 324 62 367 62 c 0
 409 62 419 112 425 126 c 1
 447 118 l 1
EndSplineSet
Validated: 3073
EndChar

StartChar: mu
Encoding: 956 956 529
Width: 501
Flags: HMW
LayerCount: 2
Fore
SplineSet
452 121 m 1
 436 54 403 -11 328 -11 c 0
 292 -11 264 15 264 57 c 0
 264 87 275 119 284 149 c 1
 281 149 l 1
 250 80 187 -11 102 -11 c 0
 43 -11 25 34 23 85 c 1
 21 85 l 1
 13 54 6 10 6 -22 c 0
 6 -52 9 -76 16 -97 c 0
 24 -122 35 -147 35 -167 c 0
 35 -193 20 -212 -3 -212 c 0
 -36 -212 -51 -180 -51 -137 c 0
 -51 -117 -48 -103 -42 -82 c 2
 98 431 l 1
 177 431 l 1
 92 120 l 2
 88 106 86 91 86 76 c 0
 86 49 96 25 127 25 c 0
 270 25 336 346 360 431 c 1
 439 431 l 1
 345 88 l 2
 342 77 338 58 338 52 c 0
 338 41 340 30 357 30 c 0
 396 30 426 109 431 129 c 1
 452 121 l 1
EndSplineSet
Validated: 3073
EndChar

StartChar: nu
Encoding: 957 957 530
Width: 515
Flags: HMW
LayerCount: 2
Fore
SplineSet
231 0 m 1
 205 0 l 1
 165 359 l 2
 163 375 161 389 142 389 c 0
 112 389 88 324 82 301 c 1
 61 309 l 1
 78 374 107 441 185 441 c 0
 229 441 243 417 247 376 c 2
 280 68 l 1
 325 103 421 185.472 421 270 c 0
 421 317 405 353 405 384 c 0
 405 412 426 441 464 441 c 0
 492 441 510 417 510 373 c 0
 510 240 325 60 231 0 c 1
EndSplineSet
Validated: 3073
EndChar

StartChar: xi
Encoding: 958 958 531
Width: 440
Flags: HMW
LayerCount: 2
Fore
SplineSet
340 -43 m 0
 340 -9 321 4 268 4 c 0
 237 4 170 -5 135 -5 c 0
 60 -5 10 25 10 108 c 0
 10 192 111 288 146 308 c 1
 114 316 97 342 97 375 c 0
 97 446 178 514 226 540 c 1
 178.5 545.5 97 569 97 622 c 0
 97 671 151 684 176 684 c 1
 187 666 l 1
 174.5 663 151 653 151 622 c 0
 151 571 222 558 249 557 c 1
 299 589 352.5 634.5 393.5 634.5 c 0
 429 634.5 445 619.5 445 599 c 0
 445 563 405 534 311 534 c 0
 293 534 272 535 250 537 c 1
 214 512 135 471 135 397 c 0
 135 357 176 342 196 342 c 1
 214 351 283 391 320 391 c 0
 354.5 391 369 376 369 353 c 0
 369 316 317 298 226 298 c 0
 212 298 188 300 168 302 c 1
 144 290 56 222 56 149 c 0
 56 100 91 79 138 79 c 0
 176 79 241 88 266 88 c 0
 320 88 385 75 385 9 c 0
 385 -125 264 -178 176 -178 c 0
 138 -178 74 -160 74 -114 c 0
 74 -96 89 -84 102 -84 c 0
 124 -84 135 -93 150 -118 c 0
 166 -146 196 -152 217 -152 c 0
 275 -152 340 -107 340 -43 c 0
EndSplineSet
Validated: 3073
EndChar

StartChar: omicron
Encoding: 959 959 532
Width: 524
Flags: HMW
LayerCount: 2
Fore
SplineSet
193 -11 m 0
 92 -11 20 56 20 159 c 0
 20 305 157 441 305 441 c 0
 406 441 480 376 480 283 c 0
 480 130 349 -11 193 -11 c 0
396 283 m 0
 396 336 380 418 297 418 c 0
 172 418 104 266 104 161 c 0
 104 94 132 12 205 12 c 0
 326 12 396 186 396 283 c 0
EndSplineSet
Validated: 3073
EndChar

StartChar: pi
Encoding: 960 960 533
Width: 608
Flags: HMW
LayerCount: 2
Fore
SplineSet
245 363 m 1
 188 160 l 2
 167.987 92.291 140 -9 48 -9 c 0
 29 -9 -22 -5 -22 38 c 0
 -22 55 -11 75 17 75 c 0
 35 75 46.5 62.4697 52.5 56.5 c 0
 61.4434 47.6016 68.5 38 82 38 c 0
 120 38 147.61 101.553 176 207 c 2
 218 363 l 1
 170 363 l 2
 138 363 112 346 98 317 c 1
 75 317 l 1
 115 414 153 433 256 433 c 0
 350 433 443 426 537 426 c 0
 554 426 572 434 579 451 c 1
 597 451 l 1
 572 366 540 363 453 363 c 1
 439 304 377 105 377 56 c 0
 377 37 386 23 406 23 c 0
 464.5 23 494 101 503 136 c 1
 524 128 l 1
 506 57 465 -13 381 -13 c 0
 334 -13 298 13 298 66 c 0
 298 100.5 358 300 375 363 c 1
 245 363 l 1
EndSplineSet
Validated: 3073
EndChar

StartChar: rho
Encoding: 961 961 534
Width: 506
Flags: HMW
LayerCount: 2
Fore
SplineSet
173 -11 m 0
 89.658 -11 26.9883 44.1261 26.9883 129.961 c 0
 26.9883 130.639 26.9922 131.319 27 132 c 1
 25 132 l 1
 19 105 16 77 16 49 c 0
 16 -148 256 -17 256 -159 c 0
 256 -188 234 -213 228 -218 c 1
 215 -210 l 1
 220 -204 220 -196 220 -192 c 0
 220 -123 29 -196 -5 -35 c 0
 -10 -9 -12 -7 -12 21 c 0
 -12 200 77 441 291 441 c 0
 387 441 451 386 451 288 c 0
 451 138 327 -11 173 -11 c 0
367 291 m 0
 367 347 354 418 284 418 c 0
 160 418 92 253 92 152 c 0
 92 90 108 12 184 12 c 0
 305 12 367 196 367 291 c 0
EndSplineSet
Validated: 3073
EndChar

StartChar: sigma1
Encoding: 962 962 535
Width: 423
Flags: HMW
LayerCount: 2
Fore
SplineSet
19 -84 m 0
 74.7031 -84 54.3311 -152 134 -152 c 0
 192 -152 256 -123 256 -61 c 0
 256 30 8 -59 8 138 c 0
 8 299 100 441 279 441 c 0
 356 441 411 398 411 353 c 0
 411 326 399 296 364 296 c 0
 333 296 308 322 308 353 c 0
 308 360.5 309 368.5 309 376.25 c 0
 309 409.717 281.602 418 266 418 c 0
 160 418 61 320 61 209 c 0
 61 18 302 134 302 -26 c 0
 302 -138 181 -178 93 -178 c 0
 55 -178 -8 -160 -8 -114 c 0
 -8 -96 6 -84 19 -84 c 0
EndSplineSet
Validated: 3073
EndChar

StartChar: sigma
Encoding: 963 963 536
Width: 532
Flags: HMW
LayerCount: 2
Fore
SplineSet
367 286 m 0
 367 310 353 332 324 332 c 0
 309 332 288 322 267 300 c 9
 253 319 l 17
 284.333 357.754 318.046 361.154 334.237 361.154 c 0
 401.775 361.154 451 318.955 451 260 c 0
 451 127 319 -11 185 -11 c 0
 86 -11 18 53 18 153 c 0
 18 316 151 441 304 441 c 0
 370 441 410 426 469 426 c 0
 493.337 426 516.556 426.544 525 450 c 1
 545 450 l 1
 535 413 510 374 465 374 c 0
 382 374 359 418 294 418 c 0
 162 418 102 246 102 132 c 0
 102 73 124 12 191 12 c 0
 310 12 367 168 367 286 c 0
EndSplineSet
Validated: 3073
EndChar

StartChar: tau
Encoding: 964 964 537
Width: 477
Flags: HMW
LayerCount: 2
Fore
SplineSet
475 451 m 1
 458 374 412 363 300 363 c 1
 233 120 l 2
 227 100 223 69 223 55 c 0
 223 35 233 23 253 23 c 0
 306 23 338 95 349 136 c 1
 370 128 l 1
 346 53 315 -13 224 -13 c 0
 181 -13 144 15 144 60 c 0
 144 107 206 308 220 365 c 1
 220 365 174 368 152 368 c 0
 127 368 99 347 85 317 c 1
 63 317 l 1
 91 392 131 431 221 431 c 0
 293 431 343 426 415 426 c 0
 434.5 426 449 435 457 451 c 1
 475 451 l 1
EndSplineSet
Validated: 3073
EndChar

StartChar: upsilon
Encoding: 965 965 538
Width: 540
Flags: HMW
LayerCount: 2
Fore
SplineSet
218 -11 m 0
 150 -11 104 25 104 96 c 0
 104 180 173 312 173 376 c 0
 173 384 171 400 153 400 c 0
 113 400 90 332 82 301 c 1
 61 309 l 1
 76 373 110 441 185 441 c 0
 234 441 248 405 248 361 c 0
 248 267 182 180 182 85 c 0
 182 44 204 25 244 25 c 0
 339 25 415 140 415 227 c 0
 415 300 389 322 389 366 c 0
 389 410 406 441 442 441 c 0
 474 441 495 413 495 387 c 0
 495 355 487 324 480 293 c 0
 447 163 378 -11 218 -11 c 0
EndSplineSet
Validated: 3073
EndChar

StartChar: phi
Encoding: 966 966 539
Width: 628
Flags: HMW
LayerCount: 2
Fore
SplineSet
292 -11 m 1
 239 -205 l 1
 164 -205 l 1
 216 -11 l 1
 128 -11 23 50 23 172 c 0
 23 282 119 441 255 441 c 0
 307 441 323 419 330 391 c 1
 313 375 l 1
 299 406 286 418 261 418 c 0
 140 418 107 206 107 132 c 0
 107 49 161 12 222 12 c 1
 235.201 55.5645 267.989 180 267.989 180 c 2
 304.115 311.969 364.445 441 477 441 c 0
 549 441 591 400 591 321 c 0
 591 145 454 -11 292 -11 c 1
562 319 m 0
 562 372 538 418 484 418 c 0
 407 418 387 342 371 278 c 2
 299 12 l 1
 429 12 562 152 562 319 c 0
EndSplineSet
Validated: 3073
EndChar

StartChar: chi
Encoding: 967 967 540
Width: 500
Flags: HMW
LayerCount: 2
Fore
SplineSet
265 -28 m 2
 268 -59 279 -130 319 -130 c 0
 370 -130 374 -86 381 -66 c 1
 402 -73 l 1
 398 -133 363 -205 307 -205 c 0
 246 -205 241 -103 236 -62 c 2
 222 57 l 1
 40 -195 l 1
 -52 -195 l 1
 210 164 l 1
 197 282 l 2
 193 314 192 361 149 361 c 0
 109 361 88 339 81 296 c 1
 60 303 l 1
 64 356 90 441 158 441 c 0
 219 441 222 375 227 332 c 2
 240 203 l 1
 406 431 l 1
 498 431 l 1
 252 95 l 1
 265 -28 l 2
EndSplineSet
Validated: 3073
EndChar

StartChar: psi
Encoding: 968 968 541
Width: 728
Flags: HMW
LayerCount: 2
Fore
SplineSet
689 406 m 0
 689 331 608 21 379 -10 c 1
 335 -224 l 1
 241 -224 l 1
 304 -10 l 1
 214 -7 132 33 132 134 c 0
 132 217 192 320 192 394 c 0
 192 410 185 420 168 420 c 0
 112 420 98 340 87 298 c 1
 58 298 l 1
 78 375 102 461 199 461 c 0
 250 461 269 422 269 376 c 0
 269 285 209 197 209 106 c 0
 209 43 253 17 311 14 c 1
 470 558 l 1
 495 558 l 1
 382 14 l 1
 503 30 594 155 594 273 c 0
 594 311 584 348 584 386 c 0
 584 419 601 461 640 461 c 0
 676 461 689 439 689 406 c 0
EndSplineSet
Validated: 3073
EndChar

StartChar: omega
Encoding: 969 969 542
Width: 701
Flags: HMW
LayerCount: 2
Fore
SplineSet
402 -10 m 0
 331 -10 306 35 306 93 c 0
 306 102 307 112 308 122 c 1
 305 122 l 1
 279 51 229 -10 147 -10 c 0
 54 -10 19 74 19 155 c 0
 19 301 130 457 285 461 c 1
 279 437 l 1
 172 426 144 325 122 237 c 0
 111 194 100 150 100 105 c 0
 100 61 113 19 165 19 c 0
 283 19 309 209 309 296 c 0
 309 337 324 385 373 385 c 0
 395 385 408 373 408 351 c 0
 408 299 333 197 333 100 c 0
 333 57 349 19 398 19 c 0
 510 19 568 260 568 349 c 0
 568 400 545 432 492 437 c 1
 498 461 l 1
 595 459 648 395 648 300 c 0
 648 174 541 -10 402 -10 c 0
EndSplineSet
Validated: 3073
EndChar

StartChar: betasymbolgreek
Encoding: 976 976 548
Width: 537
Flags: HMW
LayerCount: 2
Fore
SplineSet
162 480 m 1
 126 429 92 350 77 289 c 1
 79 289 l 1
 129 366 211 425 305 425 c 0
 397 425 479 386 479 283 c 0
 479 131 342 -10 190 -10 c 0
 79 -10 21 52 21 162 c 0
 21 380 215 705 457 705 c 0
 490 705 531 693 531 653 c 0
 531 522 256 495 162 480 c 1
494 646 m 0
 494 671 469 676 449 676 c 0
 351 676 231 592 181 510 c 1
 251 522 494 551 494 646 c 0
385 291 m 0
 385 354 358 396 290 396 c 0
 169 396 99 244 99 139 c 0
 99 76 127 19 198 19 c 0
 330 19 385 181 385 291 c 0
EndSplineSet
Validated: 3073
EndChar

StartChar: theta1
Encoding: 977 977 549
Width: 632
Flags: HMW
LayerCount: 2
Fore
SplineSet
616 322 m 1
 592 322 l 1
 595 333 597 345 597 357 c 0
 597 389 581 407 548 407 c 1
 527 251 438 -10 247 -10 c 0
 169 -10 121 21 121 102 c 0
 121 194 176 282 176 366 c 0
 176 386 169 401 147 401 c 0
 110 401 94 344 87 315 c 1
 63 315 l 1
 78 378 98 442 175 442 c 0
 231 442 250 403 250 352 c 0
 250 257 196 167 196 73 c 0
 196 34 214 14 254 14 c 0
 352 14 395 145 414 223 c 2
 459 407 l 1
 376 407 256 417 256 527 c 0
 256 623 339 705 435 705 c 0
 540 705 560 603 560 519 c 0
 560 489 558 460 554 431 c 1
 596 431 623 416 623 371 c 0
 623 355 620 338 616 322 c 1
486 609 m 0
 486 646 474 676 432 676 c 0
 356 676 328 586 328 523 c 0
 328 445 400 431 463 431 c 1
 471 487 486 552 486 609 c 0
EndSplineSet
Validated: 3073
EndChar

StartChar: Upsilon1
Encoding: 978 978 550
Width: 630
Flags: HMW
LayerCount: 2
Fore
SplineSet
607 488 m 0
 585 488 571 508 571 529 c 0
 571 570 625 590 625 609 c 0
 625 628 605 631 590 631 c 0
 486 631 406 374 386 299 c 0
 370 239 326 120 326 56 c 0
 326 19 367 19 394 16 c 1
 394 0 l 1
 150 0 l 1
 150 16 l 1
 206 26 215 34 231 90 c 0
 262 198 304 351 304 462 c 0
 304 480 303 498 299 515 c 0
 285 572 236 604 185 625 c 0
 162 634 138 639 116 649 c 1
 115 649 111 651 111 653 c 0
 111 670 174 670 186 670 c 0
 309 670 390 586 398 465 c 1
 440 557 510 672 625 672 c 0
 667 672 696 635 696 595 c 0
 696 550 655 488 607 488 c 0
EndSplineSet
Validated: 3073
EndChar

StartChar: phi1
Encoding: 981 981 553
Width: 612
Flags: HMW
LayerCount: 2
Fore
SplineSet
280 -10 m 1
 229 -224 l 1
 159 -224 l 1
 216 -10 l 1
 112 -4 20 43 20 159 c 0
 20 335 182 453 345 461 c 1
 400 662 l 1
 430 662 l 1
 386 461 l 1
 490 455 590 397 590 282 c 0
 590 110 439 -1 280 -10 c 1
507 289 m 0
 507 370 462 425 381 432 c 1
 286 19 l 1
 412 30 507 170 507 289 c 0
336 432 m 1
 205 421 106 294 106 166 c 0
 106 91 144 26 224 19 c 1
 336 432 l 1
EndSplineSet
Validated: 3073
EndChar

StartChar: omega1
Encoding: 982 982 554
Width: 704
Flags: HMW
LayerCount: 2
Fore
SplineSet
725 521 m 1
 704 437 l 1
 595 437 l 1
 642 407 660 354 660 300 c 0
 660 175 553 -10 414 -10 c 0
 343.471 -10 318.069 35.127 318.069 92.9307 c 0
 318.069 102.331 318.741 112.068 320 122 c 1
 317 122 l 1
 291 51 241 -10 159 -10 c 0
 66 -10 31 74 31 155 c 0
 31 265 94 383 193 434 c 1
 139 430 118 418 73 391 c 1
 57 391 l 1
 89 439 164 521 226 521 c 2
 725 521 l 1
581 354 m 0
 581 404 561 437 507 437 c 2
 287 437 l 2
 184 437 154 317 134 237 c 0
 123 194 112 150 112 105 c 0
 112 61 125 19 177 19 c 0
 283 19 316 179 320 261 c 0
 321 284 319 307 324 329 c 0
 331 360 350 385 385 385 c 0
 407 385 420 373 420 351 c 0
 420 299 345 198 345 100 c 0
 345 57 361 19 410 19 c 0
 523 19 581 263 581 354 c 0
EndSplineSet
Validated: 3073
EndChar

StartChar: uni03D7
Encoding: 983 983 555
Width: 529
Flags: HMW
LayerCount: 2
Fore
SplineSet
287 -151 m 0
 244.5 -151 203.521 -128.5 203.521 -89.5 c 0
 203.521 -72.5 217 -59 233 -59 c 0
 254.5 -59 263.5 -71 272.5 -93 c 0
 280.48 -112.508 290 -127 310.5 -127 c 0
 372 -127 408 -15 411.5 19 c 1
 409.5 19 l 1
 401 4.5 377 -11 353 -11 c 0
 314 -11 293 24 293 62 c 0
 293 119 312 175 327 228 c 1
 273 194 217 159 167 118 c 1
 148 78 112 -11 59 -11 c 0
 38 -11 30 4 30 22 c 0
 30 89 114 150 162 186 c 1
 173 227 191 274 191 315 c 0
 191 345 175 368 143 368 c 0
 102 368 89 333 82 303 c 1
 61 310 l 1
 66 344 79 441 151 441 c 0
 201 441 228 392 228 353 c 0
 228 300 210 256 195 206 c 1
 245 244 297 276 349 310 c 1
 365 349 406 441 456 441 c 0
 474 441 487 429 487 411 c 0
 487 351 409 278 359 251 c 1
 349 209 331 164 331 121 c 0
 331 96 338 62 368 62 c 0
 409 62 423 105 427 126 c 1
 449 118 l 1
 444 84.5 l 2
 435.473 43.6924 414 -151 287 -151 c 0
EndSplineSet
Validated: 3073
EndChar

StartChar: Stigma
Encoding: 986 986 556
Width: 588
Flags: HMW
LayerCount: 2
Fore
SplineSet
292 246 m 2
 293.393 250.18 294.301 253.268 294.301 255.517 c 0
 294.301 259.726 291.123 261 282 261 c 0
 230 261 96 294 96 426 c 0
 96 500 170 666 415 666 c 0
 526 666 605 612 605 533 c 0
 605 497 583 470 550 470 c 0
 508 470 486 500 486 533 c 2
 486 568 l 2
 486 612 443 633 399 633 c 0
 250 633 201 499 201 421 c 0
 201 326 244 284 308 284 c 2
 377 284 l 2
 391 284 395 279 395 270 c 0
 395 264 393 256 391 249 c 2
 355 120 l 2
 346 88 344 76 344 57 c 0
 344 29 355 23 412 16 c 1
 412 0 l 1
 168 0 l 1
 168 16 l 1
 224 26 233 31 249 90 c 2
 292 246 l 2
EndSplineSet
Validated: 3073
EndChar

StartChar: stigma
Encoding: 987 987 557
Width: 498
Flags: HMW
LayerCount: 2
Fore
SplineSet
55 177 m 0
 55 133 60 80 127 80 c 0
 165 80 186 86 211 86 c 0
 265 86 329 66 329 -14 c 0
 329 -141 208 -178 120 -178 c 0
 82 -178 18 -160 18 -114 c 0
 18 -96 33 -84 46 -84 c 0
 68 -84 79 -93 94 -118 c 0
 110 -146 140 -152 161 -152 c 0
 212 -152 284 -130 284 -66 c 0
 284 -24 266 2 213 2 c 0
 182 2 159 -4 124 -4 c 0
 50 -4 12 64 12 131 c 0
 12 276 122 433 277 433 c 0
 328 433 380 426 432 426 c 0
 455 426 481 429 496 448 c 1
 512 448 l 1
 480 383 447 357 374 357 c 0
 338 357 303 363 268 363 c 0
 160 363 55 287 55 177 c 0
EndSplineSet
Validated: 3073
EndChar

StartChar: Digamma
Encoding: 988 988 558
Width: 610
Flags: HMW
LayerCount: 2
Fore
SplineSet
645 653 m 1
 613 500 l 1
 592 502 l 1
 593 516 595 530 595 544 c 0
 595 612.644 524.029 620.788 462.839 620.788 c 0
 443.802 620.788 425.712 620 411 620 c 0
 402.957 620 393.318 620.621 383.508 620.621 c 0
 360.386 620.621 336.319 617.17 330 594 c 2
 264 361 l 1
 469 361 l 1
 422 215 l 1
 405 220 l 1
 409 239 413 258 413 278 c 0
 413 322.399 366.013 328.593 319.473 328.593 c 0
 301.459 328.593 283.512 327.665 268.382 327.665 c 0
 263.613 327.665 259.123 327.757 255 328 c 1
 241 278 184 108 184 60 c 0
 184 19 230 18 260 16 c 1
 260 0 l 1
 8 0 l 1
 8 16 l 1
 65 25 74 32 90 90 c 2
 213 532 l 2
 218 552 224 574 224 594 c 0
 224 637 179 635 147 637 c 1
 147 653 l 1
 645 653 l 1
EndSplineSet
Validated: 3073
EndChar

StartChar: digamma
Encoding: 989 989 559
Width: 478
Flags: HMW
LayerCount: 2
Fore
SplineSet
492 451 m 1
 475 396 454.5 357 384 357 c 0
 356 357 318 363 290 363 c 0
 137 363 109 195 72 82 c 1
 93 118 128 159 174 159 c 0
 209 159 243 153 278 153 c 0
 299 153 318 156 331 175 c 1
 343 175 l 1
 318 119 294 84 228 84 c 0
 202 84 177 89 151 89 c 0
 103 89 60 48 56 -9 c 2
 24 -140 l 2
 17 -169 8 -212 -37 -212 c 0
 -56 -212 -77.1094 -199 -77.1094 -173 c 0
 -77.1094 -128 -34 -108 -18 -96 c 0
 21 -68 26 -18 31 0 c 2
 85 204 l 2
 110 304 182 433 300 433 c 0
 341 433 382 426 424 426 c 0
 445 426 460.667 428 473 451 c 1
 492 451 l 1
EndSplineSet
Validated: 3073
EndChar

StartChar: Dzhecyrillic
Encoding: 1039 1039 563
Width: 728
Flags: HMW
AnchorPoint: "abovecyr" 478 672 basechar 0
LayerCount: 2
Fore
SplineSet
398 36 m 2
 426 36 447.152 46.957 455 75 c 2
 585 544 l 2
 591.342 566.663 595.265 583.721 595.265 596.638 c 0
 595.265 624.207 577.391 632.914 527 637 c 1
 528 653 l 1
 774 653 l 1
 774 637 l 1
 695 632 705 617 681 533 c 2
 564 109 l 2
 558.387 88.7928 555.216 73.1541 555.216 60.9565 c 0
 555.216 29.693 576.049 21.0354 630 16 c 1
 630 0 l 1
 430 0 l 2
 336 0 286 -102 273 -172 c 1
 248 -172 l 1
 254.456 -141.659 259.869 -112.984 259.869 -88.0618 c 0
 259.869 -35.7728 236.038 1.14441e-05 148 0 c 2
 -8 0 l 1
 -8 16 l 1
 71 23 64 37 84 109 c 2
 204 544 l 2
 209.533 563.641 212.616 579.073 212.616 591.248 c 0
 212.616 623.087 191.529 632.66 138 637 c 1
 138 653 l 1
 423 653 l 1
 423 637 l 1
 344 632 323 617 299 533 c 2
 178 106 l 2
 176.867 102.035 168.373 67.1455 168.373 63.751 c 0
 168.373 43.9414 185.779 36 202 36 c 2
 398 36 l 2
EndSplineSet
Validated: 3073
EndChar

StartChar: Becyrillic
Encoding: 1041 1041 565
Width: 583
Flags: HMW
AnchorPoint: "abovecyr" 380 672 basechar 0
LayerCount: 2
Fore
SplineSet
546 230 m 0
 546 89.8438 406.438 0 227 0 c 2
 -8 0 l 1
 -8 16 l 1
 48 26 56.7188 31.4941 73 90 c 2
 196 532 l 2
 203 557 207 580 207 594 c 0
 207 622 195 630 137 637 c 1
 137 653 l 1
 604 653 l 1
 573 500 l 1
 552 502 l 1
 553 516 554 529 554 543 c 0
 554 612.377 485.76 620.907 424.326 620.907 c 0
 404.293 620.907 384.984 620 369 620 c 0
 341 620 320 609 312 581 c 2
 252 371 l 1
 279 373 296 374 322 374 c 0
 506 374 546 295 546 230 c 0
169 71 m 2
 166.756 63.4275 165.535 57.4282 165.535 52.7152 c 0
 165.535 40.6241 173.573 37 193 37 c 0
 392.106 37 439 157.319 439 223 c 0
 439 292 414 334 299 334 c 0
 279 334 265 333 241 331 c 1
 169 71 l 2
EndSplineSet
Validated: 3073
EndChar

StartChar: Decyrillic
Encoding: 1044 1044 568
Width: 668
Flags: HMW
AnchorPoint: "abovecyr" 485 672 basechar 0
LayerCount: 2
Fore
SplineSet
147 0 m 2
 34 0 -12 -40 -59 -172 c 1
 -84 -172 l 1
 -16 38 l 1
 48 38 79.1514 56.7207 119 109 c 0
 228 252 284.495 462.289 311 544 c 0
 316.922 565.318 320.389 581.289 320.389 593.391 c 0
 320.389 622.163 300.793 629.073 248 634 c 1
 249 653 l 1
 728 653 l 1
 728 637 l 1
 656 629 658.203 615.943 638 544 c 2
 517 106 l 2
 513.546 93.7012 511.294 81.9463 511.294 71.2744 c 0
 511.294 41.3262 528.704 20 584 20 c 1
 538 -172 l 1
 513 -172 l 1
 515.803 -150.076 517.246 -130.707 517.246 -113.646 c 0
 517.246 -27.2021 480.188 0 395 0 c 2
 147 0 l 2
140 78 m 0
 129.586 64.6836 125.415 55.9912 125.415 49.7822 c 0
 125.415 36.7705 143.5 36 149 36 c 2
 312 36 l 2
 391.158 36 404.639 52.8203 428 137 c 2
 550 581 l 2
 551.152 585.149 551.678 588.924 551.678 592.345 c 0
 551.678 612.056 534.19 620 518 620 c 2
 420 620 l 2
 392 620 371.648 608.808 363 581 c 0
 339.694 506.062 262 234 140 78 c 0
EndSplineSet
Validated: 3073
EndChar

StartChar: Zhecyrillic
Encoding: 1046 1046 570
Width: 987
Flags: HMW
AnchorPoint: "abovecyr" 621 672 basechar 0
LayerCount: 2
Fore
SplineSet
969 546 m 0
 933 546 923 580 884 580 c 0
 868 580 856 569 826 510 c 0
 779 417 713 363 683 354 c 1
 683 349 l 1
 722 349 766 302 789 242 c 2
 832 108 l 2
 865 29 866 17 918 16 c 1
 918 0 l 1
 754 0 l 1
 688 215 l 2
 669.765 274.402 645 329 611 329 c 2
 575 329 l 1
 517 120 l 2
 508.28 87.9229 506 76 506 57 c 0
 506 32 517 23 574 16 c 1
 574 0 l 1
 330 0 l 1
 330 16 l 1
 386 26 393 32 411 90 c 2
 478 329 l 1
 448 329 l 2
 409.637 329 358 299 308 222 c 2
 151 0 l 1
 -18 0 l 1
 -18 16 l 1
 43 22 72 53 125 127 c 2
 225 256 l 2
 257.518 297.948 339 347 390 347 c 1
 390 353 l 1
 351.062 369.145 344.03 416.899 340.871 464 c 0
 337.118 519.962 331 575 299 575 c 0
 265.477 575 257 541 217.5 541 c 0
 197.5 541 166 554 166 589 c 0
 166 637 212 653 251 653 c 0
 303 653 376 623 380 515 c 0
 383.52 419.981 400 364 457 364 c 2
 487 364 l 1
 534 532 l 2
 541 557 545 580 545 594 c 0
 545 622 533 630 475 637 c 1
 475 653 l 1
 722 653 l 1
 722 637 l 1
 665 627 656.45 621.458 640 563 c 2
 585 364 l 1
 623 364 l 2
 673 364 747.533 431.707 791 520 c 0
 855 650 916.185 658 946 658 c 0
 1003 658 1021 621 1021 597 c 0
 1021 564 998 546 969 546 c 0
EndSplineSet
Validated: 3073
EndChar

StartChar: Zecyrillic
Encoding: 1047 1047 571
Width: 592
Flags: HMW
AnchorPoint: "abovecyr" 380 672 basechar 0
LayerCount: 2
Fore
SplineSet
118 479 m 1
 93 479 l 1
 155 666 l 1
 176 666 l 1
 176 643 181 632 198 632 c 0
 210 632 220 635 231 639 c 0
 258 648 294 666 366 666 c 0
 464 666 570 626 570 518 c 0
 570 408 440 354 375 350 c 1
 374 347 l 1
 444 337 515 273 515 188 c 0
 515 80 428 -14 252 -14 c 0
 122 -14 38 68 15 118 c 1
 36 133 l 1
 63 86 152 31 232 31 c 0
 342 31 395 100 395 191 c 0
 395 289 328 333 242 333 c 1
 258 374 l 1
 364 374 466 412 466 524 c 0
 466 593 414 633 350 633 c 0
 278 633 180 586 118 479 c 1
EndSplineSet
Validated: 3073
EndChar

StartChar: Iicyrillic
Encoding: 1048 1048 572
Width: 720
Flags: HMW
AnchorPoint: "abovecyr" 449 672 basechar 0
LayerCount: 2
Fore
SplineSet
589.132 590.301 m 0
 589.132 626.838 565.746 631.358 519 637 c 1
 519 653 l 1
 766 653 l 1
 766 637 l 1
 709 627 702 621 684 563 c 2
 561 120 l 2
 552 88 550 76 550 57 c 0
 550 29 561 23 618 16 c 1
 618 0 l 1
 374 0 l 1
 374 16 l 1
 430 26 439 31 455 90 c 2
 568 500 l 1
 172 94 l 1
 172 94 166.88 75.44 166.88 59.312 c 0
 166.88 30.8407 179.394 22.9516 236 16 c 1
 236 0 l 1
 -8 0 l 1
 -8 16 l 1
 48 26 55 32 73 90 c 2
 196 532 l 2
 203 557 207 580 207 594 c 0
 207 622 195 630 137 637 c 1
 137 653 l 1
 384 653 l 1
 384 637 l 1
 327 627 318 622 302 563 c 2
 189 155 l 1
 585 561 l 1
 585 561 589.132 577.529 589.132 590.301 c 0
EndSplineSet
Validated: 3073
EndChar

StartChar: Kacyrillic
Encoding: 1050 1050 574
Width: 644
Flags: HMW
AnchorPoint: "abovecyr" 432 672 basechar 0
LayerCount: 2
Fore
SplineSet
647 546 m 0
 602.641 546 604.151 580 562 580 c 0
 546 580 534 569 504 510 c 0
 457 417 391 363 361 354 c 1
 361 349 l 1
 390 349 435 302 458 242 c 2
 510 108 l 2
 543 29 544 17 596 16 c 1
 596 0 l 1
 432 0 l 1
 366 215 l 2
 342 281 346 329 273 329 c 2
 237 329 l 1
 179 120 l 2
 170 88 168 76 168 57 c 0
 168 29 179 23 236 16 c 1
 236 0 l 1
 -8 0 l 1
 -8 16 l 1
 48 26 55 32 73 90 c 2
 196 532 l 2
 203 557 207 580 207 594 c 0
 207 622 195 630 137 637 c 1
 137 653 l 1
 384 653 l 1
 384 637 l 1
 327 627 320 621 302 563 c 2
 247 364 l 1
 300 364 l 2
 350 364 427.096 430.955 469 520 c 0
 533 656 594 658 624 658 c 0
 682 658 699 621 699 597 c 0
 699 564 676 546 647 546 c 0
EndSplineSet
Validated: 3073
EndChar

StartChar: Elcyrillic
Encoding: 1051 1051 575
Width: 695
Flags: HMW
AnchorPoint: "abovecyr" 517 672 basechar 0
LayerCount: 2
Fore
SplineSet
54 -8 m 0
 3 -8 -34 27.5 -34 67.5 c 0
 -34 101.5 -9.5 119 14 119 c 0
 47 119 59 86 64.5 69 c 0
 70.0258 51.9203 82.5 46 96 46 c 0
 125 46 162.801 84.335 183.5 119.5 c 0
 227.538 194.312 262.76 265.253 340 544 c 0
 346.028 565.701 349.603 582.133 349.603 594.692 c 0
 349.603 623.803 330.395 632.11 278 637 c 1
 278 653 l 1
 765 653 l 1
 765 637 l 1
 690 627 698 621 680 563 c 2
 557 120 l 2
 548 88 546 76 546 57 c 0
 546 29 557 23 614 16 c 1
 614 0 l 1
 370 0 l 1
 370 16 l 1
 426 26 434.679 31.5049 451 90 c 2
 588 581 l 2
 589.16 585.159 589.691 588.941 589.691 592.368 c 0
 589.691 612.055 572.183 620 556 620 c 2
 450 620 l 2
 422 620 400.683 609.09 393 581 c 0
 302.729 250.946 224 -8 54 -8 c 0
EndSplineSet
Validated: 3073
EndChar

StartChar: Ucyrillic
Encoding: 1059 1059 583
Width: 739
Flags: HMW
AnchorPoint: "abovecyr" 485 672 basechar 0
LayerCount: 2
Fore
SplineSet
397 637 m 1
 329.5 633.5 318 617.5 318 581 c 0
 318 556 323.509 540.166 333 511 c 2
 429 216 l 1
 610 505 l 2
 636 546 645 560.667 645 574 c 0
 645 597.333 623 635 569 637 c 1
 569 653 l 1
 814 653 l 1
 814 637 l 1
 750 633 722.679 627.837 668 540 c 2
 419 140 l 2
 359 41 322 -18 229 -18 c 0
 180 -18 141 22 141 62 c 0
 141 102 168.5 117 193.5 117 c 0
 234 117 243 84.5 243 62.5 c 2
 243 52 l 2
 243 36.5 252 26 271 26 c 0
 300 26 332.866 60 365 121 c 1
 244 479 l 2
 233.37 510.449 216.535 579.137 190 608.5 c 0
 170.994 629.531 143 637 111 637 c 1
 111 653 l 1
 397 653 l 1
 397 637 l 1
EndSplineSet
Validated: 3073
EndChar

StartChar: Tsecyrillic
Encoding: 1062 1062 586
Width: 696
Flags: HMW
AnchorPoint: "abovecyr" 457 672 basechar 0
LayerCount: 2
Fore
SplineSet
177 106 m 2
 176 102 167.373 67.1458 167.373 63.7513 c 0
 167.373 43.9416 184.779 36 201 36 c 2
 397 36 l 2
 425 36 446.407 46.8867 454 75 c 2
 578 532 l 2
 584.77 557.063 589 580 589 594 c 0
 589 622 577 630 519 637 c 1
 519 653 l 1
 766 653 l 1
 766 637 l 1
 709 627 700.523 621.438 684 563 c 2
 554 106 l 2
 550.505 93.7131 548.294 81.9462 548.294 71.2743 c 0
 548.294 41.326 565.704 20 621 20 c 1
 575 -172 l 1
 550 -172 l 1
 552.802 -150.077 554.246 -130.707 554.246 -113.646 c 0
 554.246 -27.2024 517.187 7.62939e-06 432 0 c 2
 -8 0 l 1
 -8 16 l 1
 48 26 56.7188 31.4941 73 90 c 2
 196 532 l 2
 203 557 207 580 207 594 c 0
 207 622 195 630 137 637 c 1
 137 653 l 1
 384 653 l 1
 384 637 l 1
 327 627 317.906 621.608 302 563 c 2
 177 106 l 2
EndSplineSet
Validated: 3073
EndChar

StartChar: Checyrillic
Encoding: 1063 1063 587
Width: 642
Flags: HMW
AnchorPoint: "abovecyr" 418 672 basechar 0
LayerCount: 2
Fore
SplineSet
278 563 m 2
 237 419 l 2
 234.621 410.645 233.535 402.93 233.535 395.814 c 0
 233.535 335.194 312.345 318 342 318 c 0
 387 318 421 336 480 372 c 1
 524 532 l 2
 531 557 535 580 535 594 c 0
 535 622 523 630 465 637 c 1
 465 653 l 1
 712 653 l 1
 712 637 l 1
 655 627 648 621 630 563 c 2
 507 120 l 2
 498 88 496 76 496 57 c 0
 496 29 507 23 564 16 c 1
 564 0 l 1
 320 0 l 1
 320 16 l 1
 376 26 385 31 401 90 c 2
 469 334 l 1
 411 296 347 273 298 273 c 0
 229.81 273 135.798 301.893 135.798 387.446 c 0
 135.798 399.762 137.746 413.253 142 428 c 2
 172 532 l 2
 179 557 183 580 183 594 c 0
 183 622 171 630 113 637 c 1
 113 653 l 1
 360 653 l 1
 360 637 l 1
 303 627 295 621 278 563 c 2
EndSplineSet
Validated: 3073
EndChar

StartChar: Shacyrillic
Encoding: 1064 1064 588
Width: 973
Flags: HMW
AnchorPoint: "abovecyr" 608 672 basechar 0
LayerCount: 2
Fore
SplineSet
673 36 m 2
 701 36 722.317 46.9111 730 75 c 2
 855 532 l 2
 861.85 557.042 866 580 866 594 c 0
 866 622 854 630 796 637 c 1
 796 653 l 1
 1043 653 l 1
 1043 637 l 1
 986 627 977.247 621.516 961 563 c 2
 838 120 l 2
 829 88 827 76 827 57 c 0
 827 29 838 23 895 16 c 1
 895 0 l 1
 -8 0 l 1
 -8 16 l 1
 48 26 56.7188 31.4941 73 90 c 2
 196 532 l 2
 203 557 207 580 207 594 c 0
 207 622 195 630 137 637 c 1
 137 653 l 1
 384 653 l 1
 384 637 l 1
 327 627 318.616 621.412 302 563 c 2
 172 106 l 2
 170.872 102.034 162.373 67.1455 162.373 63.751 c 0
 162.373 43.9414 179.779 36 196 36 c 2
 341 36 l 2
 369 36 390.146 46.959 398 75 c 2
 526 532 l 2
 533.002 556.999 537 580 537 594 c 0
 537 622 525 630 467 637 c 1
 467 653 l 1
 714 653 l 1
 714 637 l 1
 657 627 648.424 621.467 632 563 c 2
 503.627 106 l 2
 502.512 102.03 494 67.1455 494 63.751 c 0
 494 43.9414 511.406 36 527.627 36 c 2
 673 36 l 2
EndSplineSet
Validated: 3073
EndChar

StartChar: Shchacyrillic
Encoding: 1065 1065 589
Width: 983
Flags: HMW
AnchorPoint: "abovecyr" 608 672 basechar 0
LayerCount: 2
Fore
SplineSet
673 36 m 2
 701 36 722.317 46.9111 730 75 c 2
 855 532 l 2
 861.85 557.042 866 580 866 594 c 0
 866 622 854 630 796 637 c 1
 796 653 l 1
 1043 653 l 1
 1043 637 l 1
 986 627 977.142 621.545 961 563 c 2
 834 106 l 2
 830.604 93.6846 828.294 81.9463 828.294 71.2744 c 0
 828.294 41.3262 845.704 20 901 20 c 1
 855 -172 l 1
 830 -172 l 1
 832.803 -150.076 834.246 -130.707 834.246 -113.646 c 0
 834.246 -27.2021 797.187 0 712 0 c 2
 -8 0 l 1
 -8 16 l 1
 48 26 56.7188 31.4941 73 90 c 2
 196 532 l 2
 203 557 207 580 207 594 c 0
 207 622 195 630 137 637 c 1
 137 653 l 1
 384 653 l 1
 384 637 l 1
 327 627 318.616 621.412 302 563 c 2
 172 106 l 2
 170.872 102.034 162.373 67.1455 162.373 63.751 c 0
 162.373 43.9414 179.779 36 196 36 c 2
 341 36 l 2
 369 36 390.089 46.9746 398 75 c 2
 527 532 l 2
 534.053 556.985 538 580 538 594 c 0
 538 622 526 630 468 637 c 1
 468 653 l 1
 715 653 l 1
 715 637 l 1
 658 627 649.616 621.412 633 563 c 2
 503 106 l 2
 501.872 102.034 493.373 67.1455 493.373 63.751 c 0
 493.373 43.9414 510.779 36 527 36 c 2
 673 36 l 2
EndSplineSet
Validated: 3073
EndChar

StartChar: Hardsigncyrillic
Encoding: 1066 1066 590
Width: 716
Flags: HMW
AnchorPoint: "abovecyr" 498 672 basechar 0
LayerCount: 2
Fore
SplineSet
310 620 m 2
 299 620 l 2
 187 620 157 592 103 483 c 1
 79 483 l 1
 132 653 l 1
 554 653 l 1
 554 637 l 1
 474 634 456.091 616.974 435 544 c 2
 385 371 l 1
 412 373 433 374 459 374 c 0
 612 374 682 320 682 240 c 0
 682 140 640 101 605 72 c 0
 553 28 458 0 364 0 c 2
 128 0 l 1
 128 16 l 1
 184 26 193.011 31.4131 209 90 c 2
 342 581 l 2
 343.125 585.121 343.64 588.872 343.64 592.273 c 0
 343.64 612.058 326.213 620 310 620 c 2
302 71 m 2
 299.756 63.4277 298.535 57.4277 298.535 52.7148 c 0
 298.535 40.624 306.573 37 326 37 c 0
 461 37 573 90 573 248 c 0
 573 282 547 334 432 334 c 0
 412 334 398 333 374 331 c 1
 302 71 l 2
EndSplineSet
Validated: 3073
EndChar

StartChar: Yericyrillic
Encoding: 1067 1067 591
Width: 877
Flags: HMW
AnchorPoint: "abovecyr" 553 672 basechar 0
LayerCount: 2
Fore
SplineSet
546 240 m 0
 546 140 504 101 469 72 c 0
 417 28 322 0 228 0 c 2
 -8 0 l 1
 -8 16 l 1
 48 26 57 31 73 90 c 2
 196 532 l 2
 203 557 207 580 207 594 c 0
 207 622 195 630 137 637 c 1
 137 653 l 1
 384 653 l 1
 384 637 l 1
 327 627 318 622 302 563 c 2
 249 371 l 1
 276 373 297 374 323 374 c 0
 476 374 546 320 546 240 c 0
166 71 m 2
 163.756 63.4275 162.535 57.4282 162.535 52.7152 c 0
 162.535 40.6241 170.573 37 190 37 c 0
 325 37 437 90 437 248 c 0
 437 282 411 334 296 334 c 0
 276 334 262 333 238 331 c 1
 166 71 l 2
545 0 m 1
 545 16 l 1
 601 26 610 31 626 90 c 2
 749 532 l 2
 756 557 760 580 760 594 c 0
 760 622 748 630 690 637 c 1
 690 653 l 1
 937 653 l 1
 937 637 l 1
 880 627 871 622 855 563 c 2
 732 120 l 2
 723 88 721 76 721 57 c 0
 721 29 732 23 789 16 c 1
 789 0 l 1
 545 0 l 1
EndSplineSet
Validated: 3073
EndChar

StartChar: Softsigncyrillic
Encoding: 1068 1068 592
Width: 580
Flags: HMW
AnchorPoint: "abovecyr" 413 672 basechar 0
LayerCount: 2
Fore
SplineSet
546 240 m 0
 546 140 504 101 469 72 c 0
 417 28 322 0 228 0 c 2
 -8 0 l 1
 -8 16 l 1
 48 26 56.7188 31.4941 73 90 c 2
 196 532 l 2
 203 557 207 580 207 594 c 0
 207 622 195 630 137 637 c 1
 137 653 l 1
 384 653 l 1
 384 637 l 1
 327 627 318.159 621.539 302 563 c 2
 249 371 l 1
 276 373 297 374 323 374 c 0
 476 374 546 320 546 240 c 0
166 71 m 2
 163.756 63.4275 162.535 57.4282 162.535 52.7152 c 0
 162.535 40.6241 170.573 37 190 37 c 0
 325 37 437 90 437 248 c 0
 437 282 411 334 296 334 c 0
 276 334 262 333 238 331 c 1
 166 71 l 2
EndSplineSet
Validated: 3073
EndChar

StartChar: Ereversedcyrillic
Encoding: 1069 1069 593
Width: 594
Flags: HMW
AnchorPoint: "abovecyr" 391 672 basechar 0
LayerCount: 2
Fore
SplineSet
252 -14 m 0
 139 -14 52 32 14 113 c 1
 37 131 l 1
 91 60 149 30 232 30 c 0
 390 30 466 202 486 339 c 1
 463 315 429 296 384 296 c 0
 314 296 263 352 202 352 c 0
 183 352 159 346 138 332 c 1
 128 346 l 1
 161 379 197 395 234 395 c 0
 304 395 356 341 415 341 c 0
 477 341 498 369 498 444 c 0
 498 510 483.933 633 352 633 c 0
 268 633 174 573 111 456 c 1
 86 456 l 1
 165 666 l 1
 186 666 l 1
 185.816 663.883 185.725 661.892 185.725 660.023 c 0
 185.725 641.595 194.565 635 210 635 c 0
 234 635 312 666 366 666 c 0
 507 666 604 592 604 400 c 0
 604 202 454 -14 252 -14 c 0
EndSplineSet
Validated: 3073
EndChar

StartChar: IUcyrillic
Encoding: 1070 1070 594
Width: 984
Flags: HMW
AnchorPoint: "abovecyr" 507 672 basechar 0
LayerCount: 2
Fore
SplineSet
769 633 m 0
 586.188 633 469 335.538 469 184 c 0
 469 76 515 15 599 15 c 0
 778.4 15 898 306.25 898 481 c 0
 898 575 848 633 769 633 c 0
-8 0 m 1
 -8 16 l 1
 48 26 55 32 73 90 c 2
 196 532 l 2
 203 557 207 580 207 594 c 0
 207 622 195 630 137 637 c 1
 137 653 l 1
 384 653 l 1
 384 637 l 1
 327 627 320 621 302 563 c 2
 244 354 l 1
 390 354 l 1
 439.724 507.497 611.888 666 778 666 c 0
 912 666 1003 569 1003 429 c 0
 1003 219.499 803 -18 582 -18 c 0
 455 -18 364 81 364 221 c 0
 364 252 369 288 377 319 c 1
 234 319 l 1
 179 120 l 2
 170 88 168 76 168 57 c 0
 168 29 179 23 236 16 c 1
 236 0 l 1
 -8 0 l 1
EndSplineSet
Validated: 3073
EndChar

StartChar: IAcyrillic
Encoding: 1071 1071 595
Width: 683
Flags: HMW
AnchorPoint: "abovecyr" 505 672 basechar 0
LayerCount: 2
Fore
SplineSet
209 207 m 2
 259.926 269.242 354 302 392 302 c 9
 392 310 l 17
 317 310 203 375 203 459 c 0
 203 591.6 329.906 653 513 653 c 2
 753 653 l 1
 753 637 l 1
 696 627 687.247 621.516 671 563 c 2
 548 120 l 2
 539 88 537 76 537 57 c 0
 537 29 548 23 605 16 c 1
 605 0 l 1
 361 0 l 1
 361 16 l 1
 417 26 424 32 442 90 c 2
 504 299 l 1
 476 299 l 2
 450.047 299 372.777 277.695 312 198 c 2
 151 0 l 1
 -18 0 l 1
 -18 16 l 1
 44 16 74.4727 51.3105 122 108 c 2
 209 207 l 2
582 580 m 2
 583.461 585.843 584.268 590.988 584.268 595.474 c 0
 584.268 612.485 572.654 620 541 620 c 0
 356.462 620 313 521.638 313 456 c 0
 313 354 419 337 514 335 c 1
 582 580 l 2
EndSplineSet
Validated: 3073
EndChar

StartChar: becyrillic
Encoding: 1073 1073 597
Width: 475
Flags: HMW
AnchorPoint: "abovecyr" 382 672 basechar 0
LayerCount: 2
Fore
SplineSet
87.5 303 m 1
 118 353 214.654 441 321 441 c 0
 414 441 468 385 468 293 c 0
 468 156 318 -11 178 -11 c 0
 85 -11 27 38 27 133 c 0
 27 282 91.2835 449.363 191 538 c 0
 344 674 488 634 555 689 c 1
 578 689 l 1
 466 502 313.63 608.309 183 484 c 0
 121 425 99 356 83.833 303.666 c 1
 87.5 303 l 1
384 324 m 0
 384 368 366 420 314 420 c 0
 193 420 111 203 111 103 c 0
 111 53 136 10 191 10 c 0
 310 10 384 227 384 324 c 0
EndSplineSet
Validated: 3073
Substitution2: "'locl' Localized Forms for Serbian-Macedonian-1" serb.be
EndChar

StartChar: vecyrillic
Encoding: 1074 1074 598
Width: 418
Flags: HMW
AnchorPoint: "abovecyr" 326 453 basechar 0
LayerCount: 2
Fore
SplineSet
254 230 m 1
 254 228 l 1
 330 228 369 208 369 148 c 0
 369 57 281 -11 167 -11 c 0
 47 -11 27 80 27 134 c 0
 27 297 174 441 309 441 c 0
 376 441 419 418 419 370 c 0
 419 303 328 237 254 230 c 1
203 208 m 0
 181 208 123 190 123 190 c 1
 117 170 111 142 111 103 c 0
 111 65 123 13 179 13 c 0
 251 13 285 78 285 124 c 0
 285 172 263 208 203 208 c 0
143 253 m 2
 143 253 142 247 131 217 c 1
 218 234 239 245 281 274 c 0
 313 296 346 337 346 372 c 0
 346 393 338 417 298 417 c 0
 237 417 180 341 143 253 c 2
EndSplineSet
Validated: 3073
Substitution2: "'ss01' Style Set 1 in Cyrillic for Bulgarian-subtable" bulg.alt_ve
EndChar

StartChar: gecyrillic
Encoding: 1075 1075 599
Width: 354
Flags: HMW
AnchorPoint: "abovecyr" 247 453 basechar 0
LayerCount: 2
Fore
SplineSet
136 25 m 0
 185 25 224 47 279 106 c 1
 295 96 l 1
 235 20 180 -11 106 -11 c 0
 44 -11 8 19 8 65 c 0
 8 144 48.29 169.218 132 232 c 0
 204 286 250 306 250 360 c 0
 250 379 237 405 211 405 c 0
 162 405 123 383 68 324 c 1
 52 334 l 1
 112 410 167 441 241 441 c 0
 295 441 335 407 335 368 c 0
 335 288 276 256 198 200 c 0
 122.384 145.712 88 122 88 66 c 0
 88 41 105 25 136 25 c 0
EndSplineSet
Validated: 3073
Substitution2: "'locl' Localized Forms for Serbian-Macedonian-1" imacron
EndChar

StartChar: decyrillic
Encoding: 1076 1076 600
Width: 493
Flags: HMW
AnchorPoint: "abovecyr" 382 672 basechar 0
LayerCount: 2
Fore
SplineSet
194 666 m 1
 229 683 l 1
 304 664 467 598 467 359 c 0
 467 161 331 -11 174 -11 c 0
 83 -11 27 43 27 129 c 0
 27 280 173 441 310 441 c 0
 348 441 377 424 394 392 c 1
 396 393 l 1
 376 568 286 636 194 666 c 1
313 420 m 0
 270 420 228 390 189 334 c 0
 141 263 111 175 111 101 c 0
 111 47 142 10 189 10 c 0
 232 10 270 35 306 88 c 0
 351 152 384 253 384 326 c 0
 384 383 356 420 313 420 c 0
EndSplineSet
Validated: 3073
Substitution2: "'ss01' Style Set 1 in Cyrillic for Bulgarian-subtable" cyrillic.alt_de
Substitution2: "'locl' Localized Forms for Serbian-Macedonian-1" cyrillic.alt_de
EndChar

StartChar: zhecyrillic
Encoding: 1078 1078 602
Width: 914
Flags: HMW
AnchorPoint: "abovecyr" 514 453 basechar 0
LayerCount: 2
Fore
SplineSet
341.609 206 m 1
 304 88 230 -11 105 -11 c 0
 45 -11 0 24 0 70 c 0
 0 96 21 116 48 116 c 0
 72 116 87 102 87 78 c 0
 87 60 72 41.3252 72 30 c 0
 72 18 87 10 110 10 c 0
 218 10 271 178.6 271 291 c 0
 271 350 249 405 192 405 c 0
 148 405 118 386 86 340 c 1
 70 350 l 1
 120 430 160 441 222 441 c 0
 315 441 357 366 357 291 c 0
 357 271 354 248 349 230 c 1
 424 230 l 1
 477 432 l 1
 551 432 l 1
 499 230 l 1
 574 230 l 1
 612 344 684 441 809 441 c 0
 869 441 914 406 914 360 c 0
 914 334 893 314 866 314 c 0
 842 314 827 328 827 352 c 0
 827 370 842 388.675 842 400 c 0
 842 412 827 420 804 420 c 0
 696 420 643 251.4 643 139 c 0
 643 80 665 25 722 25 c 0
 766 25 796 44 828 90 c 1
 844 80 l 1
 794 0 754 -11 692 -11 c 0
 599 -11 557 64 557 139 c 0
 557 159 561 188 566 206 c 1
 493 206 l 1
 436 0 l 1
 361 0 l 1
 417 206 l 1
 341.609 206 l 1
EndSplineSet
Validated: 3073
Substitution2: "'ss01' Style Set 1 in Cyrillic for Bulgarian-subtable" bulg.alt_zhe
EndChar

StartChar: zecyrillic
Encoding: 1079 1079 603
Width: 412
Flags: HMW
AnchorPoint: "abovecyr" 256 453 basechar 0
LayerCount: 2
Fore
SplineSet
177 -9 m 0
 71 -9 15.5 70 6 95 c 1
 19 103 l 1
 44.5 60.5 108 27 161 27 c 0
 240 27 277 73 277 130 c 0
 277 189 227 208 179 213 c 1
 186 238 l 1
 284 238 313 298.406 313 337 c 0
 313 371 294 412 230 412 c 0
 177 412 124 385 77 296 c 1
 62 296 l 1
 103 432 l 1
 114 432 l 1
 122 424 120 422 128 422 c 0
 147 422 187 441 244 441 c 0
 341 441 389 393 389 347 c 0
 389 272 317 232 263 226 c 1
 262 223 l 1
 306 218.5 358 183 358 132 c 0
 358 32 267 -9 177 -9 c 0
EndSplineSet
Validated: 3073
EndChar

StartChar: kacyrillic
Encoding: 1082 1082 606
Width: 483
Flags: HMW
AnchorPoint: "abovecyr" 274 453 basechar 0
LayerCount: 2
Fore
SplineSet
352 -10 m 0
 282 -10 262 36 250 78 c 0
 236 128 228 226 168 226 c 2
 150 226 l 1
 87 0 l 1
 12 0 l 1
 108 350 l 2
 109 355 110 361 110 367 c 0
 110 387 97 393 46 394 c 1
 46 410 l 1
 133 426 152 430 206 441 c 1
 209 439 l 1
 156 250 l 1
 175 250 l 2
 228 250 261 315 282 349 c 0
 338 437 392 441 411 441 c 0
 448 441 464 414 464 390 c 0
 464 366 441 348 416 348 c 0
 402 348 391 357 379 368 c 0
 370 377 361 378 352 378 c 0
 314 378 281 260 228 243 c 1
 228 241 l 1
 262 237 295 209 312 170 c 0
 336 114 330 42 388 42 c 0
 404 42 415 53 433 84 c 2
 448 110 l 1
 463 99 l 1
 418 15 392 -10 352 -10 c 0
EndSplineSet
Validated: 3073
Substitution2: "'ss01' Style Set 1 in Cyrillic for Bulgarian-subtable" k
EndChar

StartChar: elcyrillic
Encoding: 1083 1083 607
Width: 504
Flags: HMW
AnchorPoint: "abovecyr" 344 453 basechar 0
LayerCount: 2
Fore
SplineSet
15 75 m 0
 47.2109 75 55.7764 38 80 38 c 0
 118 38 140 102 170 207 c 2
 214 361 l 2
 236.009 438.031 308.77 441 366 441 c 0
 421.924 441 451.887 404.395 451.887 370.432 c 0
 451.887 365.527 451.262 360.677 450 356 c 2
 386 117 l 2
 372 61 372 61 372 54 c 0
 372 46 380 38 388 38 c 0
 402 38 419 54 449 91 c 2
 470 117 l 1
 484 104 l 1
 415 12 389 -9 344 -9 c 0
 311 -9 297 7 297 45 c 0
 297 55 300 69 313 120 c 2
 373 335 l 2
 375.032 342.494 376.073 349.832 376.073 356.768 c 0
 376.073 383.973 360.06 405 325 405 c 0
 311 405 252.189 404.42 232 336 c 2
 180 160 l 2
 161 92 125 -9 42 -9 c 0
 23 -9 -24 -5 -24 38 c 0
 -24 55 -13 75 15 75 c 0
EndSplineSet
Validated: 3073
EndChar

StartChar: emcyrillic
Encoding: 1084 1084 608
Width: 641
Flags: HMW
AnchorPoint: "abovecyr" 403 453 basechar 0
LayerCount: 2
Fore
SplineSet
170 207 m 2
 214 361 l 2
 214.953 364.335 215 371.75 215 376 c 0
 215 396 196 400 155 400 c 1
 155 414 l 1
 212 421 241 428 298 441 c 1
 301 439 l 1
 323 88 l 1
 525 432 l 1
 608 432 l 1
 523 117 l 1
 509 61 509 61 509 54 c 0
 509 46 517 38 525 38 c 0
 539 38 556 54 586 91 c 2
 607 117 l 1
 621 104 l 1
 552 12 526 -9 481 -9 c 0
 448 -9 434 7 434 45 c 0
 434 55 437 69 450 120 c 1
 519 376 l 1
 281 -18 l 1
 251 -18 l 1
 230 331 l 1
 180 160 l 2
 160.23 92.2197 125 -9 42 -9 c 0
 23 -9 -24 -5 -24 38 c 0
 -24 55 -13 75 15 75 c 0
 33 75 44.5 62.4697 50.5 56.5 c 0
 59.4434 47.6016 66.5 38 80 38 c 0
 118 38 139.371 102.182 170 207 c 2
EndSplineSet
Validated: 3073
EndChar

StartChar: encyrillic
Encoding: 1085 1085 609
Width: 492
Flags: HMW
AnchorPoint: "abovecyr" 300 453 basechar 0
LayerCount: 2
Fore
SplineSet
144 206 m 1
 87 0 l 1
 12 0 l 1
 108 350 l 2
 109 355 110 361 110 367 c 0
 110 387 97 393 46 394 c 1
 46 410 l 1
 133 426 154 430 208 441 c 1
 211 439 l 1
 150 230 l 1
 332 230 l 1
 385 432 l 1
 459 432 l 1
 374 117 l 2
 360 61 360 61 360 54 c 0
 360 46 368 38 376 38 c 0
 390 38 407 54 437 91 c 2
 458 117 l 1
 472 104 l 1
 403 12 377 -9 332 -9 c 0
 299 -9 285 7 285 45 c 0
 285 55 286.114 69.5186 301 120 c 2
 326 206 l 1
 144 206 l 1
EndSplineSet
Validated: 3073
EndChar

StartChar: ucyrillic
Encoding: 1091 1091 615
Width: 478
Flags: HMW
AnchorPoint: "abovecyr" 300 453 basechar 0
LayerCount: 2
Fore
SplineSet
107 376 m 0
 107 396 88 400 47 400 c 1
 47 414 l 1
 104 421 140 428 197 441 c 1
 200 439 l 1
 109 76 l 2
 108 73 108 71 108 67 c 0
 108 52 117 42 129 42 c 0
 161 42 210 93 270 188 c 0
 316 261 323 277 380 432 c 1
 454 432 l 1
 363 106 l 2
 327 -24 257 -207 105 -207 c 0
 9 -207 -7 -165 -7 -134 c 0
 -7 -110 11 -93 33 -93 c 0
 62 -93 71 -112 71 -130 c 0
 71 -140 67 -148 63 -155 c 0
 59 -161 59 -163 59 -168 c 0
 59 -177 64 -184 106 -184 c 0
 233 -184 265 33 281 88 c 2
 321 228 l 1
 319 228 l 1
 207 42 154 -11 84 -11 c 0
 49 -11 31 8 31 44 c 0
 31 62 38 96 56 167 c 2
 93 309 l 2
 102 343 107 368 107 376 c 0
EndSplineSet
Validated: 3073
EndChar

StartChar: efcyrillic
Encoding: 1092 1092 616
Width: 735
Flags: HMW
AnchorPoint: "abovecyr" 482 672 basechar 0
LayerCount: 2
Fore
SplineSet
453 27 m 0
 546 27 614 190 614 314 c 0
 614 394 561 401 527 401 c 0
 494 401 426 347 410 272 c 2
 384 150 l 2
 379.65 130.043 377.199 112.247 377.199 96.8115 c 0
 377.199 51.9189 397.933 27 453 27 c 0
175 -143 m 0
 175 -158 166 -160 166 -170 c 0
 166 -179 174 -186 186 -186 c 0
 228 -186 245 -130 271 -24 c 2
 293 62 l 1
 241 -1 207 -12 136 -12 c 0
 71 -12 21 35 21 113 c 0
 21 272 141 441 273 441 c 0
 313 441 353 414 358 368 c 1
 382 502 426 678 562 678 c 0
 611 678 648 650 648 613 c 0
 648 591 629 573 606 573 c 0
 584 573 569 589 569 613 c 0
 569 628 579 637 579 644 c 0
 579 651 570 656 557 656 c 0
 501 656 474 585 445 428 c 2
 432 369 l 1
 495 441 537 441 588 441 c 0
 659 441 703 394 703 316 c 0
 703 157 585 -11 453 -11 c 0
 423 -11 374.281 12.6562 361.281 62.6562 c 1
 331.281 -74.3438 291 -205 178 -205 c 0
 134 -205 99 -180 99 -146 c 0
 99 -123 115 -105 136 -105 c 0
 157 -105 175 -122 175 -143 c 0
267 401 m 0
 174 401 107 238 107 114 c 0
 107 34 160 27 194 27 c 0
 227 27 295 81 311 156 c 2
 337 278 l 2
 341.111 296.755 343.505 313.992 343.505 329.253 c 0
 343.505 373.391 323.474 401 267 401 c 0
EndSplineSet
Validated: 3073
EndChar

StartChar: tsecyrillic
Encoding: 1094 1094 618
Width: 485
Flags: HMW
AnchorPoint: "abovecyr" 289 453 basechar 0
LayerCount: 2
Fore
SplineSet
465 108 m 1
 426.236 52.5527 416.364 23.1084 416.364 -1.00684 c 0
 416.364 -26.0381 427 -45.3291 427 -82 c 0
 427 -110 406 -134 340 -186 c 1
 328 -170 l 1
 352 -150 365 -142 365 -120 c 0
 365 -95 364 -83.5 364 -70 c 0
 364 -49 364 -32 402 30 c 1
 381 7 357 -9 327 -9 c 0
 299 -9 278 9 278 39 c 0
 278 60 294 129 323 236 c 1
 208 43 155 -11 84 -11 c 0
 49 -11 31 8 31 44 c 0
 31 62 38 96 56 167 c 2
 93 309 l 2
 102 343 107 368 107 376 c 0
 107 396 88 400 47 400 c 1
 47 414 l 1
 104 421 140 428 197 441 c 1
 200 439 l 1
 109 76 l 2
 108 73 108 71 108 67 c 0
 108 52 117 42 129 42 c 0
 161 42 210 93 270 188 c 0
 316 261 323 277 380 432 c 1
 454 432 l 1
 375 133 l 2
 356 61 356 61 356 55 c 0
 356 44 359 38 365 38 c 0
 390 38 412 66 451 117 c 1
 465 108 l 1
EndSplineSet
Validated: 3073
EndChar

StartChar: checyrillic
Encoding: 1095 1095 619
Width: 484
Flags: HMW
AnchorPoint: "abovecyr" 299 453 basechar 0
LayerCount: 2
Fore
SplineSet
450 117 m 1
 464 108 l 1
 396 11 373 -9 326 -9 c 0
 296 -9 278 9 278 39 c 0
 278 60 321 225 350 332 c 1
 260 152 182 136 143 136 c 0
 108 136 73 156 73 207 c 0
 73 225 79.5605 261.156 90 299 c 2
 98 328 l 2
 107 362 107 368 107 376 c 0
 107 395.8 88.25 400 47 400 c 1
 47 414 l 1
 104 421 140 428 197 441 c 1
 200 439 l 1
 150 230 l 2
 149 227 149 225 149 221 c 0
 149 201 155 184 174 184 c 0
 249 184 302 289 378 432 c 1
 450 432 l 1
 375 133 l 2
 357 61 356 61 356 55 c 0
 356 44 360 38 367 38 c 0
 383 38 398 52 450 117 c 1
EndSplineSet
Validated: 3073
EndChar

StartChar: shacyrillic
Encoding: 1096 1096 620
Width: 734
Flags: HMW
AnchorPoint: "abovecyr" 420 453 basechar 0
LayerCount: 2
Fore
SplineSet
107 376 m 0
 107 395.8 88.25 400 47 400 c 1
 47 414 l 1
 104 421 140 428 197 441 c 1
 200 439 l 1
 109 76 l 2
 108 73 108 71 108 67 c 0
 108 52 117 42 129 42 c 0
 161 42 210 93 270 188 c 0
 316 261 323 277 380 432 c 1
 454 432 l 1
 375 133 l 2
 361.088 80.2822 358 73.3848 358 67 c 0
 358 48 367 42 379 42 c 0
 411 42 460 93 520 188 c 0
 566 261 573 277 630 432 c 1
 704 432 l 1
 625 133 l 2
 606 61 606 61 606 55 c 0
 606 44 610 38 617 38 c 0
 633 38 648 52 700 117 c 1
 714 108 l 1
 646 11 623 -9 576 -9 c 0
 546 -9 528 9 528 39 c 0
 528 60 544 129 573 236 c 1
 458 43 405 -11 334 -11 c 0
 299 -11 279 8 279 44 c 0
 279 65 294 129 323 236 c 1
 208 43 155 -11 84 -11 c 0
 49 -11 31 8 31 44 c 0
 31 62 38 96 56 167 c 2
 93 309 l 2
 102 343 107 368 107 376 c 0
EndSplineSet
Validated: 3073
AlternateSubs2: "'salt' Stylistic Alternatives in Cyrillic for Serbian-subtable" serb.alt_sha
EndChar

StartChar: shchacyrillic
Encoding: 1097 1097 621
Width: 735
Flags: HMW
AnchorPoint: "abovecyr" 418 453 basechar 0
LayerCount: 2
Fore
SplineSet
715 108 m 1
 676.236 52.5527 666.364 23.5898 666.364 -0.271484 c 0
 666.364 -25.0391 677 -44.3105 677 -82 c 0
 677 -110 656 -134 590 -186 c 1
 578 -170 l 1
 602 -150 615 -142 615 -120 c 0
 615 -98.5 614 -85 614 -70 c 0
 614 -49 614 -33 652 30 c 1
 631 8 608 -9 576 -9 c 0
 549 -9 528 9 528 39 c 0
 528 60 544 129 573 236 c 1
 458 43 405 -11 334 -11 c 0
 299 -11 279 8 279 44 c 0
 279 65 294 129 323 236 c 1
 208 43 155 -11 84 -11 c 0
 49 -11 31 8 31 44 c 0
 31 62 38 96 56 167 c 2
 93 309 l 2
 102 343 107 368 107 376 c 0
 107 396 88 400 47 400 c 1
 47 414 l 1
 104 421 140 428 197 441 c 1
 200 439 l 1
 109 76 l 2
 108 73 108 71 108 67 c 0
 108 52 117 42 129 42 c 0
 161 42 210 93 270 188 c 0
 316 261 323 277 380 432 c 1
 454 432 l 1
 375 133 l 2
 359.304 73.5215 357.94 71.3672 357.94 69.0342 c 0
 357.94 68.543 358 68.0439 358 67 c 0
 358 52 367 42 379 42 c 0
 411 42 460 93 520 188 c 0
 566 261 573 277 630 432 c 1
 704 432 l 1
 625 133 l 2
 606 61 606 61 606 55 c 0
 606 44 610 38 617 38 c 0
 633 38 654 53 701 117 c 1
 715 108 l 1
EndSplineSet
Validated: 3073
EndChar

StartChar: hardsigncyrillic
Encoding: 1098 1098 622
Width: 545
Flags: HMW
AnchorPoint: "abovecyr" 382 453 basechar 0
LayerCount: 2
Fore
SplineSet
410 439 m 1
 353 374 287 305 245 195 c 1
 247 193 l 1
 282 238 349 274 391 274 c 0
 440 274 513 270 513 164 c 0
 513 72 423 -11 291 -11 c 0
 193 -11 159 40 159 110 c 0
 159 251 274 350 303 378 c 1
 300 382 l 1
 294 380 272 375 244 375 c 0
 206 375 184 412 145 412 c 0
 125 412 104 396 104 381 c 0
 104 348 111 365 111 327 c 0
 111 306 94 294 75 294 c 0
 43 294 36 320 36 339 c 0
 36 400 121 441 178 441 c 0
 217 441 260 424 307 424 c 0
 344 424 360 431 387 439 c 1
 410 439 l 1
356 231 m 0
 312 231 264 182 248 157 c 0
 239 144 233 119 233 98 c 0
 233 66 248 13 300 13 c 0
 378 13 435 85 435 157 c 0
 435 188 429 231 356 231 c 0
EndSplineSet
Validated: 3073
EndChar

StartChar: yericyrillic
Encoding: 1099 1099 623
Width: 677
Flags: HMW
AnchorPoint: "abovecyr" 407 453 basechar 0
LayerCount: 2
Fore
SplineSet
60 176 m 2
 108 350 l 2
 109 355 110 361 110 367 c 0
 110 387 97 393 46 394 c 1
 46 410 l 1
 133 426 154 430 208 441 c 1
 211 439 l 1
 136 188 l 1
 139 189 l 1
 171 239 242 274 284 274 c 0
 332 274 405 270 405 164 c 0
 405 72 316 -11 183 -11 c 0
 86 -11 51 40 51 110 c 0
 51 131 54 153 60 176 c 2
249 231 m 0
 205 231 157 182 140 157 c 0
 131 144 126 119 126 98 c 0
 126 66 140 13 193 13 c 0
 271 13 328 85 328 157 c 0
 328 188 322 231 249 231 c 0
542 51 m 0
 542 44 550 36 558 36 c 0
 567 36 582 46 599 63 c 0
 609 74 616 82 640 114 c 1
 653 103 l 1
 596 19 559 -11 513 -11 c 0
 483 -11 467 9 467 46 c 0
 467 66 473 97 489 155 c 2
 537 332 l 2
 543 352 546 368 546 376 c 0
 546 396 536 399 483 400 c 1
 483 416 l 1
 522 419 542 422 643 441 c 1
 646 439 l 1
 558 117 l 2
 553.443 100.326 542 69.5 542 51 c 0
EndSplineSet
Validated: 3073
EndChar

StartChar: softsigncyrillic
Encoding: 1100 1100 624
Width: 437
Flags: HMW
AnchorPoint: "abovecyr" 306 453 basechar 0
LayerCount: 2
Fore
SplineSet
60 176 m 2
 108 350 l 2
 109 355 110 361 110 367 c 0
 110 387 97 393 46 394 c 1
 46 410 l 1
 133 426 154 430 208 441 c 1
 211 439 l 1
 136 188 l 1
 139 189 l 1
 171 239 242 274 284 274 c 0
 332 274 405 270 405 164 c 0
 405 72 316 -11 183 -11 c 0
 86 -11 51 40 51 110 c 0
 51 131 54 153 60 176 c 2
249 231 m 0
 205 231 157 182 140 157 c 0
 131 144 126 119 126 98 c 0
 126 66 140 13 193 13 c 0
 271 13 328 85 328 157 c 0
 328 188 322 231 249 231 c 0
EndSplineSet
Validated: 3073
EndChar

StartChar: ereversedcyrillic
Encoding: 1101 1101 625
Width: 432
Flags: HMW
AnchorPoint: "abovecyr" 257 453 basechar 0
LayerCount: 2
Fore
SplineSet
166 -12 m 0
 64 -12 20 56 7 96 c 1
 20 104 l 1
 44 62 90 24 146 24 c 0
 285 24 306 186 310 227 c 1
 293 205 267 194 244 194 c 0
 201 194 177.5 224 143 224 c 0
 127 224 109 221 91 208 c 1
 83 224 l 1
 95 241 127.5 260 156 260 c 0
 197.5 260 222 231 262 231 c 0
 314.562 231 317.026 267.958 317.026 300.194 c 0
 317.026 315.128 312 413 224 413 c 0
 170 413 125 385 78 296 c 1
 63 296 l 1
 104 432 l 1
 115 432 l 1
 118 425 121 422 129 422 c 0
 148 422 204 441 253 441 c 0
 340 441 400 362 400 270 c 0
 400 133 310 -12 166 -12 c 0
EndSplineSet
Validated: 3073
EndChar

StartChar: iucyrillic
Encoding: 1102 1102 626
Width: 671
Flags: HMW
AnchorPoint: "abovecyr" 331 453 basechar 0
LayerCount: 2
Fore
SplineSet
246 230 m 1
 287 345 409 441 523 441 c 0
 608 441 666 384 666 301 c 0
 666 226 626 141 560 76 c 0
 502 19 438 -11 372 -11 c 0
 281 -11 225 43 225 129 c 0
 225 152 228 182 237 206 c 1
 144 206 l 1
 87 0 l 1
 12 0 l 1
 108 350 l 2
 109 355 110 361 110 367 c 0
 110 387 97 393 46 394 c 1
 46 410 l 1
 133 426 154 430 208 441 c 1
 211 439 l 1
 152 230 l 1
 246 230 l 1
511 420 m 0
 468 420 426 390 387 334 c 0
 338 263 309 175 309 101 c 0
 309 46 340 10 387 10 c 0
 430 10 468 35 505 88 c 0
 549 153 582 253 582 326 c 0
 582 383 554 420 511 420 c 0
EndSplineSet
Validated: 3073
EndChar

StartChar: iacyrillic
Encoding: 1103 1103 627
Width: 519
Flags: HMW
AnchorPoint: "abovecyr" 340 453 basechar 0
LayerCount: 2
Fore
SplineSet
261 432 m 2
 486 432 l 1
 401 117 l 2
 387 61 387 61 387 54 c 0
 387 46 395 38 403 38 c 0
 417 38 434 54 464 91 c 2
 485 117 l 1
 499 104 l 1
 430 12 404 -9 359 -9 c 0
 326 -9 312 7 312 45 c 0
 312 72 351 198 351 198 c 1
 329 198 l 2
 304 197 237 163 211 108 c 0
 155.918 -10.0332 104.706 -11 64.0254 -11 c 0
 42.7729 -11 10.523 13.708 -7 57 c 9
 6 66 l 17
 23 41 37 26 55 26 c 0
 94 26 98 96 139 140 c 0
 178 182 203 187 270 202 c 1
 271.144 206.125 270.75 206.25 271 210 c 1
 160 210 117 265 117 322 c 0
 117 404 210 432 261 432 c 2
359 232 m 1
 393 355 l 2
 395.411 363.842 398.792 373.654 398.792 382.227 c 0
 398.792 394.984 391.306 405 362 405 c 0
 290 405 203 398 203 311 c 0
 203 263 272.75 232 308 232 c 2
 359 232 l 1
EndSplineSet
Validated: 3073
EndChar

StartChar: dje
Encoding: 1106 1106 630
Width: 510
Flags: HMW
AnchorPoint: "abovecyr" 392 672 basechar 0
LayerCount: 2
Fore
SplineSet
169 -207 m 0
 84 -207 67 -152 67 -125 c 0
 67 -99 84 -78 107 -78 c 0
 142.103 -78 143.003 -103.202 143.003 -117.741 c 0
 143.003 -118.527 143 -119.282 143 -120 c 0
 143 -133 130.029 -151 130.029 -162.5 c 0
 130.029 -171.5 135 -190 170 -190 c 0
 316 -190 394 188 394 285 c 0
 394 351 391 390 351 390 c 0
 303 390 222.891 287.075 197 249 c 0
 146 174 127 87 104 0 c 1
 29 0 l 1
 167 526 l 1
 81 526 l 1
 89 550 l 1
 174 550 l 1
 178 565 188 600 188 615 c 0
 188 637.053 166.153 641.533 145.698 641.533 c 0
 136.471 641.533 127.528 640.622 121 640 c 1
 121 656 l 1
 174 662 226 671 278 683 c 1
 283 678 l 1
 249 550 l 1
 389 550 l 1
 381 526 l 1
 241 526 l 1
 165 239 l 1
 166 238.25 166.375 237.625 167 237 c 1
 208 303 305 441 390 441 c 0
 482 441 483 357 483 333 c 0
 483 88 328 -207 169 -207 c 0
EndSplineSet
Validated: 3073
EndChar

StartChar: ecyrillic
Encoding: 1108 1108 632
Width: 442
Flags: HMW
AnchorPoint: "abovecyr" 300 453 basechar 0
LayerCount: 2
Fore
SplineSet
296 440 m 0
 327 440 357 429 368.5 424.5 c 0
 377.672 420.911 387.402 418 396 418 c 0
 406 418 409 422 414 432 c 1
 425 432 l 1
 404 296 l 1
 389 296 l 1
 385 373 361 415 290 415 c 0
 223 415 149 339 124.482 230.953 c 1
 136 244 165.453 260 191 260 c 0
 236.5 260 254 231 300 231 c 0
 321 231 333.5 236.5 344 250.5 c 1
 353 234.5 l 1
 345 220 316 194 282 194 c 0
 232 194 219 224 176 224 c 0
 123.35 224 116 193 116 147 c 0
 116 86 136 25 207 25 c 0
 265 25 313 65 350 106 c 1
 366 96 l 1
 317 34 261 -11 178 -11 c 0
 77 -11 30 48 30 147 c 0
 30 291 145 440 296 440 c 0
EndSplineSet
Validated: 3073
EndChar

StartChar: ljecyrillic
Encoding: 1113 1113 637
Width: 707
Flags: HMW
AnchorPoint: "abovecyr" 432 453 basechar 0
LayerCount: 2
Fore
SplineSet
170 207 m 2
 214 361 l 2
 234.607 434.801 313.59 441.296 349.708 441.296 c 0
 436.339 441.296 451.867 398.748 451.867 370.382 c 0
 451.867 365.494 451.249 360.661 450 356 c 2
 405 188 l 1
 408 189 l 1
 440 239 510.73 274 553 274 c 0
 601 274 675 270 675 164 c 0
 675 72 585 -11 452 -11 c 0
 355 -11 321 40 321 110 c 0
 321 131 322.715 153.318 329 176 c 2
 372 335 l 2
 374.153 342.768 375.264 350.374 375.264 357.54 c 0
 375.264 384.346 359.718 405 325 405 c 0
 311 405 251.845 404.521 232 336 c 2
 180 160 l 2
 160.358 92.1826 125 -9 42 -9 c 0
 23 -9 -24 -5 -24 38 c 0
 -24 55 -13 75 15 75 c 0
 33 75 44.5 62.4697 50.5 56.5 c 0
 59.4434 47.6016 66.5 38 80 38 c 0
 118 38 140.632 101.821 170 207 c 2
518 231 m 0
 474 231 426 182 410 157 c 0
 401 144 395 119 395 98 c 0
 395 66 410 13 462 13 c 0
 540 13 597 85 597 157 c 0
 597 188 591 231 518 231 c 0
EndSplineSet
Validated: 3073
EndChar

StartChar: njecyrillic
Encoding: 1114 1114 638
Width: 696
Flags: HMW
AnchorPoint: "abovecyr" 375 453 basechar 0
LayerCount: 2
Fore
SplineSet
326 198 m 1
 144 198 l 1
 89 0 l 1
 14 0 l 1
 110 350 l 2
 111 355 112 361 112 367 c 0
 112 387 99 393 48 394 c 1
 48 410 l 1
 135 426 156 430 210 441 c 1
 213 439 l 1
 154 238 l 1
 336 238 l 1
 387 432 l 1
 461 432 l 1
 395 188 l 1
 398 189 l 1
 430 239 500.731 274 542 274 c 0
 591 274 664 270 664 164 c 0
 664 72 575 -11 442 -11 c 0
 345 -11 310 40 310 110 c 0
 310 131 312 154 319 176 c 2
 326 198 l 1
507 231 m 0
 463 231 416 182 399 157 c 0
 390 144 385 119 385 98 c 0
 385 66 399 13 452 13 c 0
 529 13 586 85 586 157 c 0
 586 188 581 231 507 231 c 0
EndSplineSet
Validated: 3073
EndChar

StartChar: tshecyrillic
Encoding: 1115 1115 639
Width: 498
Flags: HMW
AnchorPoint: "abovecyr" 382 672 basechar 0
LayerCount: 2
Fore
SplineSet
478 105 m 1
 444 56 400 -9 333 -9 c 0
 303 -9 288 8 288 37 c 0
 288 100 370 309 370 363 c 0
 370 380 357 390 341 390 c 0
 293 390 213 287 187 249 c 0
 136 174 117 87 94 0 c 1
 19 0 l 1
 63 168 157 526 157 526 c 1
 72 526 l 1
 79 550 l 1
 164 550 l 1
 168 565 178 600 178 615 c 0
 178 637.053 156.153 641.533 135.698 641.533 c 0
 126.471 641.533 117.528 640.622 111 640 c 1
 111 656 l 1
 164 662 216 671 268 683 c 1
 273 678 l 1
 239 550 l 1
 379 550 l 1
 372 526 l 1
 232 526 l 1
 155 239 l 1
 157 237 l 1
 198 303 295 441 380 441 c 0
 425 441 448 414 448 369 c 0
 448 300 367 116 367 57 c 0
 367 48 373 38 383 38 c 0
 408 38 451 99 465 117 c 1
 478 105 l 1
EndSplineSet
Validated: 3073
EndChar

StartChar: dzhecyrillic
Encoding: 1119 1119 643
Width: 491
Flags: HMW
AnchorPoint: "abovecyr" 296 453 basechar 0
LayerCount: 2
Fore
SplineSet
114 376 m 0
 114 395.8 95.25 400 54 400 c 1
 54 414 l 1
 111 421 147 428 204 441 c 1
 207 439 l 1
 116 76 l 2
 115 73 115 71 115 67 c 0
 115 52 124 42 136 42 c 0
 168 42 217 93 277 188 c 0
 323 261 330 277 387 432 c 1
 461 432 l 1
 382 133 l 2
 363 61 363 61 363 55 c 0
 363 44 367 38 374 38 c 0
 390 38 405 52 457 117 c 1
 471 108 l 1
 403 11 380 -9 333 -9 c 0
 303 -9 285 9 285 39 c 0
 285 60 301 129 330 236 c 1
 215 43 162 -11 91 -11 c 0
 56 -11 38 8 38 44 c 0
 38 62 45 96 63 167 c 2
 100 309 l 2
 109 343 114 368 114 376 c 0
234 34 m 1
 234 34 246 26 248 26 c 1
 243.235 12.5 241.484 1.97754 241.484 -7.09668 c 0
 241.484 -32.3027 255 -46.3379 255 -82 c 0
 255 -110.5 234 -134 168 -186 c 1
 156 -170 l 1
 180 -150 193 -142 193 -120 c 2
 192 -100 l 2
 192.333 -95.667 192.444 -91.7773 192.444 -88.2227 c 0
 192.444 -81.1113 192 -75.333 192 -70 c 0
 192 -49 194 -30 234 34 c 1
EndSplineSet
Validated: 3073
EndChar

StartChar: uni048C
Encoding: 1164 1164 644
Width: 602
Flags: HMW
LayerCount: 2
Fore
SplineSet
92.0273 489 m 1
 106.496 543 l 1
 199.455 543 l 1
 214.117 596.084 213.783 597.349 227 653 c 1
 333 653 l 1
 301.404 543 l 1
 384.496 543 l 1
 370.027 489 l 1
 285.894 489 l 1
 252 371 l 1
 279 373 296 374 322 374 c 0
 506 374 546 295 546 230 c 0
 546 89.8438 406.438 0 227 0 c 2
 -8 0 l 1
 -8 16 l 1
 48 26 56.7188 31.4941 73 90 c 2
 184.414 489 l 1
 92.0273 489 l 1
169 71 m 2
 166.756 63.4275 165.535 57.4282 165.535 52.7152 c 0
 165.535 40.6241 173.573 37 193 37 c 0
 392.106 37 439 157.319 439 223 c 0
 439 292 414 334 299 334 c 0
 279 334 265 333 241 331 c 1
 169 71 l 2
EndSplineSet
Validated: 3073
EndChar

StartChar: uni048D
Encoding: 1165 1165 645
Width: 433
Flags: HMW
LayerCount: 2
Fore
SplineSet
14 299 m 1
 25 350 l 1
 104 350 l 1
 105 355 106 361 106 367 c 0
 106 387 93 393 42 394 c 1
 42 410 l 1
 129 426 150 430 204 441 c 1
 207 439 l 1
 180.406 350 l 1
 246 350 l 1
 235 299 l 1
 165.167 299 l 1
 132 188 l 1
 135 189 l 1
 167 239 238 274 280 274 c 0
 328 274 401 270 401 164 c 0
 401 72 312 -11 179 -11 c 0
 82 -11 47 40 47 110 c 0
 47 131 50 153 56 176 c 2
 89.931 299 l 1
 14 299 l 1
245 231 m 0
 201 231 153.104 181.928 136 157 c 0
 127.055 143.963 122 119 122 98 c 0
 122 66 136 13 189 13 c 0
 267 13 324 85 324 157 c 0
 324 188 318 231 245 231 c 0
EndSplineSet
Validated: 3073
EndChar

StartChar: afii10050
Encoding: 1168 1168 646
Width: 552
Flags: HMW
LayerCount: 2
Fore
SplineSet
130 653 m 1
 455 655 l 2
 568 657 594 670 636 760 c 1
 661 760 l 1
 619 620 l 1
 392 620 l 2
 383.66 620 373.988 620.621 364.281 620.621 c 0
 341.4 620.621 318.319 617.17 312 594 c 2
 179 120 l 2
 173 99 168 78 168 56 c 0
 168 19 209 19 236 16 c 1
 236 0 l 1
 -8 0 l 1
 -8 16 l 1
 47 26 57 34 73 90 c 2
 196 532 l 2
 201 550 207 574 207 593 c 0
 207 635 161 635 130 637 c 1
 130 653 l 1
EndSplineSet
Validated: 3073
EndChar

StartChar: afii10098
Encoding: 1169 1169 647
Width: 424
Flags: HMW
LayerCount: 2
Fore
SplineSet
195 376 m 2
 89 0 l 1
 14 0 l 1
 106 332 l 2
 112.334 354.522 116.068 371.719 116.068 384.55 c 0
 116.068 408.18 103.405 417 71 417 c 1
 71 432 l 1
 336 432 l 2
 396 432 415 447 445 520 c 1
 463 520 l 1
 424 395 l 1
 230 395 l 2
 209 395 199 390 195 376 c 2
EndSplineSet
Validated: 3073
EndChar

StartChar: uni0492
Encoding: 1170 1170 648
Width: 593
Flags: HMW
LayerCount: 2
Fore
SplineSet
627 653 m 1
 596 500 l 1
 575 502 l 1
 575.925 514.944 577.023 527.035 577.023 539.849 c 0
 577.023 587.94 527.87 620 392 620 c 0
 364 620 318.081 615.814 312 594 c 2
 249 368 l 1
 409 368 l 1
 397 326 l 1
 237 326 l 1
 179 120 l 2
 173 99 168 78 168 56 c 0
 168 19 209 19 236 16 c 1
 236 0 l 1
 -8 0 l 1
 -8 16 l 1
 47 26 57 34 73 90 c 2
 139 326 l 1
 52 326 l 1
 64 368 l 1
 150 368 l 1
 196 532 l 2
 201 550 207 574 207 593 c 0
 207 635 161 635 130 637 c 1
 130 653 l 1
 627 653 l 1
EndSplineSet
Validated: 3073
EndChar

StartChar: uni0493
Encoding: 1171 1171 649
Width: 424
Flags: HMW
LayerCount: 2
Fore
SplineSet
434 432 m 1
 396 307 l 1
 378 307 l 1
 381 324 383 338 383 350 c 0
 383 390 371 395 331 395 c 2
 229 395 l 2
 204.5 395 197 387 194 376 c 2
 154 230 l 1
 272 230 l 1
 265 206 l 1
 147 206 l 1
 89 0 l 1
 14 0 l 1
 71 206 l 1
 7 206 l 1
 14 230 l 1
 78 230 l 1
 105 332 l 2
 111 352 114 368 114 380 c 0
 114 405 105 417 70 417 c 1
 70 432 l 1
 434 432 l 1
EndSplineSet
Validated: 3073
EndChar

StartChar: uni0494
Encoding: 1172 1172 650
Width: 611
Flags: HMW
LayerCount: 2
Fore
SplineSet
204 -129 m 0
 262 -129 245 -214 297 -214 c 0
 379 -214 496 10 496 165 c 0
 496 272 442 380 339 380 c 0
 311.793 380 288.987 370.318 261.499 353.432 c 1
 196 120 l 2
 190.1 98.9718 185 78 185 56 c 0
 185 19 226 19 253 16 c 1
 253 0 l 1
 9 0 l 1
 9 16 l 1
 64 26 74 34 90 90 c 2
 213 532 l 2
 218 550 224 574 224 593 c 0
 224 635 178 635 147 637 c 1
 147 653 l 1
 644 653 l 1
 613 500 l 1
 592 502 l 1
 593 516 594 529 594 543 c 0
 594 612 526 621 464 621 c 0
 444 621 425 620 409 620 c 0
 401 620 391 621 381 621 c 0
 358 621 335 617 329 594 c 2
 270.303 384.81 l 1
 312.889 410.359 342.762 424 379 424 c 0
 508 424 579 293 579 167 c 0
 579 -2 464 -242 292 -242 c 0
 231 -242 165 -207 165 -165 c 0
 165 -143 185 -129 204 -129 c 0
EndSplineSet
Validated: 3073
EndChar

StartChar: uni0496
Encoding: 1174 1174 651
Width: 992
Flags: HMW
LayerCount: 2
Fore
SplineSet
958 546 m 0
 913.641 546 915.151 580 873 580 c 0
 857 580 845 569 815 510 c 0
 768 417 702 363 672 354 c 1
 671 349 l 1
 710 349 756.544 302.914 777 242 c 2
 821 108 l 2
 845.496 35.0566 875 20 939 20 c 1
 893 -172 l 1
 868 -172 l 1
 870.802 -150.077 872.246 -130.707 872.246 -113.646 c 0
 872.246 -9.30992 814.789 0 743 0 c 1
 677 215 l 2
 659.326 272.574 637 329 600 329 c 2
 564 329 l 1
 506 120 l 2
 497.28 87.9229 495 76 495 57 c 0
 495 29 506 23 563 16 c 1
 563 0 l 1
 319 0 l 1
 319 16 l 1
 375 26 382 32 400 90 c 2
 467 329 l 1
 437 329 l 2
 398.637 329 347 299 297 222 c 2
 140 0 l 1
 -29 0 l 1
 -29 16 l 1
 33 16 61 53 114 127 c 2
 214 256 l 2
 246.518 297.948 328 347 379 347 c 1
 379 353 l 1
 338.959 369.602 332.657 419.63 329.611 468 c 0
 326.176 522.555 326.883 575 288 575 c 0
 254.477 575 251.229 541 206.5 541 c 0
 186.5 541 155 554 155 589 c 0
 155 637 201 653 240 653 c 0
 292 653 365 623 369 515 c 0
 372.52 419.981 389 364 446 364 c 2
 476 364 l 1
 523 532 l 2
 530 557 534 580 534 594 c 0
 534 622 522 630 464 637 c 1
 464 653 l 1
 711 653 l 1
 711 637 l 1
 654 627 645.45 621.458 629 563 c 2
 574 364 l 1
 612 364 l 2
 662 364 737.414 431.279 780 520 c 0
 840 645 909 658 935 658 c 0
 993 658 1010 621 1010 597 c 0
 1010 564 987 546 958 546 c 0
EndSplineSet
Validated: 3073
EndChar

